STARTFONT 2.1
COMMENT
COMMENT Converted from OpenType font "Q:\font stuff\winfont\Legacy Serif Md ITC TT Medium.ttf" by "otf2bdf 3.0".
COMMENT
FONT -FreeType-Legacy Serif Md ITC TT-Medium-R-Normal--84-840-72-72-P-393-ISO10646-1
SIZE 84 72 72
FONTBOUNDINGBOX 95 97 -10 -23
STARTPROPERTIES 19
FOUNDRY "FreeType"
FAMILY_NAME "Legacy Serif Md ITC TT"
WEIGHT_NAME "Medium"
SLANT "R"
SETWIDTH_NAME "Normal"
ADD_STYLE_NAME ""
PIXEL_SIZE 84
POINT_SIZE 840
RESOLUTION_X 72
RESOLUTION_Y 72
SPACING "P"
AVERAGE_WIDTH 393
CHARSET_REGISTRY "ISO10646"
CHARSET_ENCODING "1"
FONT_ASCENT 74
FONT_DESCENT 23
COPYRIGHT " (c) Copyright 1997 International Typeface Corporation. All rights reserved."
_OTF_FONTFILE "Q:\font stuff\winfont\Legacy Serif Md ITC TT Medium.ttf"
_OTF_PSNAME "LegacySerifMdITCTTMedium"
ENDPROPERTIES
CHARS 252
STARTCHAR 0020
ENCODING 32
SWIDTH 238 0
DWIDTH 20 0
BBX 0 0 0 0
BITMAP
ENDCHAR
STARTCHAR 0021
ENCODING 33
SWIDTH 345 0
DWIDTH 29 0
BBX 11 56 9 -1
BITMAP
0FC0
7FE0
7FE0
FFE0
FFE0
FFE0
FFE0
FFE0
7FE0
7FE0
7FE0
7FE0
7FC0
7FC0
7FC0
3FC0
3FC0
3FC0
3FC0
3F80
3F80
3F80
1F80
1F80
1F80
1F80
1F00
1F00
1F00
1F00
1F00
0F00
0F00
0F00
0F00
0F00
0E00
0E00
0E00
0E00
0E00
0000
0000
0000
0000
0F00
3F80
7FC0
7FE0
FFE0
FFE0
FFE0
7FE0
7FC0
3F80
0F00
ENDCHAR
STARTCHAR 0022
ENCODING 34
SWIDTH 345 0
DWIDTH 29 0
BBX 18 23 6 31
BITMAP
7C1F00
FE3F80
FF3FC0
FF3FC0
FE3F80
FE3F80
FE3F80
FE3F80
FE3F80
FE3F80
FE1F80
7C1F80
7C1F80
7C1F00
7C0F00
7C0F00
780F00
780F00
380F00
380F00
380F00
380F00
380600
ENDCHAR
STARTCHAR 0023
ENCODING 35
SWIDTH 500 0
DWIDTH 42 0
BBX 45 55 -2 -1
BITMAP
00000F000E00
00000F000E00
00000F000E00
00001E001E00
00001E001C00
00001E001C00
00001E001C00
00003C003800
00003C003800
00003C003800
00007C003800
000078007000
000078007000
000078007000
0000F0007000
0000F000E000
03FFFFFFFFF8
03FFFFFFFFF8
03FFFFFFFFF8
07FFFFFFFFF0
07FFFFFFFFF0
07FFFFFFFFF0
0003C007C000
0003C0078000
0003C0078000
0007C0078000
0007800F0000
0007800F0000
0007800F0000
000F000F0000
000F001E0000
000F001E0000
3FFFFFFFFF80
3FFFFFFFFF80
7FFFFFFFFF00
7FFFFFFFFF00
FFFFFFFFFF00
FFFFFFFFFE00
003800780000
003800780000
003800780000
007000780000
007000F00000
007000F00000
006000F00000
00E001F00000
00E001E00000
00E001E00000
00C001E00000
01C003C00000
01C003C00000
01C003C00000
038003C00000
038007800000
030006000000
ENDCHAR
STARTCHAR 0024
ENCODING 36
SWIDTH 523 0
DWIDTH 44 0
BBX 36 69 4 -9
BITMAP
0000700000
0000700000
0000700000
0000700000
0000700000
0000700000
0000700000
0000700000
0007FFFF00
007FFFFF00
01FFFFFF00
03FE73FF00
0FF0707F00
1FE0703F00
1FC0701F00
3F80700F00
3F80700F00
7F80700700
7F80700700
7F80700380
7F80700300
7F80700000
7F80700000
7FC0700000
7FE0700000
7FF8700000
3FFC700000
3FFF700000
1FFFF00000
0FFFF80000
07FFFF0000
03FFFFC000
01FFFFF000
007FFFF800
001FFFFE00
0003FFFF00
0000FFFF80
00007FFF80
000077FFC0
000071FFE0
000070FFE0
0000707FE0
0000703FE0
C000703FF0
E000703FF0
E000701FF0
E000701FF0
F000701FE0
F000703FE0
F800703FE0
F800703FC0
7C00707FC0
7E00707F80
7F8070FF80
7FF073FF00
3FFFFFFE00
3FFFFFF800
3FFFFFE000
307FFF0000
0000700000
0000700000
0000700000
0000700000
0000700000
0000700000
0000700000
0000700000
0000700000
0000700000
ENDCHAR
STARTCHAR 0025
ENCODING 37
SWIDTH 678 0
DWIDTH 57 0
BBX 54 55 2 -1
BITMAP
007F0000000000
01FFC00000E000
07FFF00001E000
0F87F80001C000
1F01F800038000
3E01FC00038000
3E00FE00070000
7C007E00070000
7C007E000E0000
7C007F000E0000
FC003F001C0000
FC003F00180000
FC003F00380000
FC003F00300000
FC003F00700000
FC003F00E00000
FC003F00E00000
FE003E01C00000
7E003E01C00000
7E003E03800000
7F007C03000000
3F007C07000000
3F80F806000000
1FE1F00E000000
0FFFE00C000000
07FFC01C000000
01FE0018000000
0000003001FC00
000000700FFF00
000000603FFF80
000000E07C1FC0
000000C0F80FE0
000001C1F007F0
00000181F003F0
00000383F003F8
00000303E001F8
00000703E001FC
00000E07E001FC
00000C07E000FC
00001C07E000FC
00003807E000FC
00003807E000FC
00007007E000FC
00007007E000FC
0000E007F000FC
0001E007F000F8
0001C003F000F8
0003C003F801F8
00078003F801F0
00070001FC01E0
000F0000FE03E0
001E0000FF07C0
001E00007FFF00
003C00001FFE00
0000000007F000
ENDCHAR
STARTCHAR 0026
ENCODING 38
SWIDTH 761 0
DWIDTH 64 0
BBX 59 54 5 -1
BITMAP
00001FC000000000
0000FFF000000000
0003FFFC00000000
0007FFFE00000000
000F87FF00000000
001E01FF00000000
003C00FF80000000
007C007F80000000
007C007F80000000
00F8003F80000000
00F8003F80000000
00F8003F80000000
01FC003F80000000
01FC003F80000000
01FC003F00000000
01FE003E00000000
00FF007E00000000
00FFC0FC03001F00
007FE1F007FFFF00
007FFFE007FFFF00
003FFF8007FFF800
001FFFE0001FF000
000FFFF0000FE000
003FFFFC000FC000
007C7FFE000F8000
01F01FFF000F0000
03E007FF801E0000
07E001FFC01E0000
0FC000FFC03C0000
1FC0007FE0780000
1F80003FF0780000
3F80003FF0F00000
3F80001FF9E00000
7F00000FFBC00000
7F00000FFFC00000
7F000007FF800000
FF000007FF000000
FF000003FF000000
FF800003FF000000
FF800001FF800000
FF800001FF800060
7FC00003FFC000E0
7FC00007FFE000E0
7FE0000FFFE000E0
7FF0001FFFF001E0
3FFC007FBFF803C0
3FFF01FF1FFE0FC0
1FFFFFFE0FFFFF80
0FFFFFFC0FFFFF80
0FFFFFF007FFFF00
03FFFFE003FFFE00
01FFFF8001FFFC00
007FFE00007FF800
000FF000001FC000
ENDCHAR
STARTCHAR 0027
ENCODING 39
SWIDTH 345 0
DWIDTH 29 0
BBX 8 23 11 31
BITMAP
7E
FF
FF
FF
FF
FF
FF
FF
7E
7E
7E
7E
7E
7C
3C
3C
3C
3C
3C
3C
38
38
18
ENDCHAR
STARTCHAR 0028
ENCODING 40
SWIDTH 333 0
DWIDTH 28 0
BBX 21 79 5 -20
BITMAP
000030
000078
0000F8
0001F0
0003E0
0007E0
000FC0
001F80
001F00
003F00
007E00
00FE00
00FC00
01FC00
03F800
03F800
07F000
07F000
0FE000
0FE000
1FE000
1FC000
1FC000
3FC000
3FC000
3F8000
7F8000
7F8000
7F8000
7F8000
7F0000
FF0000
FF0000
FF0000
FF0000
FF0000
FF0000
FF0000
FF0000
FF0000
FF0000
FF0000
FF0000
FF0000
FF0000
FF0000
FF0000
FF0000
7F0000
7F8000
7F8000
7F8000
3F8000
3F8000
3FC000
3FC000
1FC000
1FE000
0FE000
0FE000
07F000
07F000
07F000
03F800
01F800
01FC00
00FC00
00FE00
007E00
003F00
003F80
001F80
000FC0
0007E0
0003E0
0001F0
0000F8
000078
000010
ENDCHAR
STARTCHAR 0029
ENCODING 41
SWIDTH 345 0
DWIDTH 29 0
BBX 22 79 2 -20
BITMAP
600000
F00000
780000
7E0000
3F0000
1F8000
0FC000
0FC000
07E000
03F000
03F800
01F800
01FC00
00FE00
00FE00
007F00
007F00
003F80
003F80
001FC0
001FC0
001FE0
001FE0
000FE0
000FF0
000FF0
0007F0
0007F8
0007F8
0007F8
0007F8
0007F8
0003F8
0003FC
0003FC
0003FC
0003FC
0003FC
0003FC
0003FC
0003FC
0003FC
0003FC
0003FC
0003FC
0003FC
0003FC
0007F8
0007F8
0007F8
0007F8
0007F8
000FF0
000FF0
000FF0
000FE0
001FE0
001FE0
001FC0
003FC0
003F80
003F80
007F00
007F00
00FE00
00FE00
01FC00
01F800
03F000
03F000
07E000
0FC000
0F8000
1F0000
3E0000
7C0000
F80000
F00000
600000
ENDCHAR
STARTCHAR 002A
ENCODING 42
SWIDTH 523 0
DWIDTH 44 0
BBX 33 30 5 24
BITMAP
0070070000
01F00F8000
03F80FC000
03F80FC000
01F81FC000
00FC1F8000
00FC1F0000
007C3E0000
003E3E0000
001E3C0000
000E780000
0007700000
7E03601F00
FFF1E3FF80
FFFFFFFF80
FFFFFFFF80
FFE1E1FF80
7E03600F00
0007700000
000E780000
001E3C0000
003E3E0000
007C3F0000
007C1F0000
00FC1F8000
01F81FC000
03F80FC000
03F80FC000
01F00F8000
00F0070000
ENDCHAR
STARTCHAR 002B
ENCODING 43
SWIDTH 523 0
DWIDTH 44 0
BBX 35 35 4 9
BITMAP
0001F00000
0001F00000
0001F00000
0001F00000
0001F00000
0001F00000
0001F00000
0001F00000
0001F00000
0001F00000
0001F00000
0001F00000
0001F00000
0001F00000
0001F00000
0001F00000
FFFFFFFFE0
FFFFFFFFE0
FFFFFFFFE0
FFFFFFFFE0
0001F00000
0001F00000
0001F00000
0001F00000
0001F00000
0001F00000
0001F00000
0001F00000
0001F00000
0001F00000
0001F00000
0001F00000
0001F00000
0001F00000
0001F00000
ENDCHAR
STARTCHAR 002C
ENCODING 44
SWIDTH 238 0
DWIDTH 20 0
BBX 16 24 2 -15
BITMAP
03C0
07F0
0FF8
0FFC
0FFC
0FFE
0FFE
07FE
01FE
007F
007F
007E
007E
007E
007E
007C
00FC
00F8
01F0
03E0
0FC0
3F80
FE00
7000
ENDCHAR
STARTCHAR 002D
ENCODING 45
SWIDTH 297 0
DWIDTH 25 0
BBX 19 6 3 16
BITMAP
FFFFE0
FFFFE0
FFFFE0
FFFFE0
FFFFE0
FFFFE0
ENDCHAR
STARTCHAR 002E
ENCODING 46
SWIDTH 238 0
DWIDTH 20 0
BBX 11 11 5 -1
BITMAP
1E00
3F80
7F80
FFC0
FFC0
FFE0
FFE0
FFC0
7F80
3F80
1E00
ENDCHAR
STARTCHAR 002F
ENCODING 47
SWIDTH 416 0
DWIDTH 35 0
BBX 34 78 -2 -19
BITMAP
00000007C0
00000007C0
00000007C0
0000000F80
0000000F80
0000000F00
0000001F00
0000001F00
0000001E00
0000003E00
0000003E00
0000007C00
0000007C00
0000007800
000000F800
000000F800
000000F000
000001F000
000001F000
000001E000
000003E000
000003C000
000007C000
000007C000
0000078000
00000F8000
00000F8000
00000F0000
00001F0000
00001E0000
00001E0000
00003E0000
00003C0000
00007C0000
00007C0000
0000780000
0000F80000
0000F80000
0001F00000
0001F00000
0001F00000
0003E00000
0003E00000
0003C00000
0007C00000
0007C00000
000F800000
000F800000
000F800000
001F000000
001F000000
001F000000
003E000000
003E000000
007C000000
007C000000
007C000000
00F8000000
00F8000000
00F8000000
01F0000000
01F0000000
03F0000000
03E0000000
03E0000000
07E0000000
07C0000000
0FC0000000
0FC0000000
0F80000000
1F80000000
1F80000000
3F00000000
3F00000000
3F00000000
7E00000000
7E00000000
FE00000000
ENDCHAR
STARTCHAR 0030
ENCODING 48
SWIDTH 523 0
DWIDTH 44 0
BBX 36 55 4 -1
BITMAP
0003FC0000
001FFF8000
007FFFE000
00FFFFF000
01FE0FF800
03FC03FC00
07F801FE00
0FF001FE00
0FE000FF00
1FE000FF00
1FE000FF80
3FC0007F80
3FC0007FC0
7FC0007FC0
7FC0003FC0
7F80003FC0
7F80003FE0
FF80003FE0
FF80003FE0
FF80003FE0
FF80003FE0
FF80003FE0
FF80003FE0
FF80003FF0
FF80001FF0
FF80001FF0
FF80001FF0
FF80001FF0
FF80001FF0
FF80001FF0
FF80001FF0
FF80001FE0
FF80003FE0
FF80003FE0
FF80003FE0
FF80003FE0
FF80003FE0
7F80003FE0
7F80003FE0
7F80003FC0
7FC0003FC0
3FC0007FC0
3FC0007F80
3FC0007F80
1FE0007F80
1FE000FF00
0FF000FF00
0FF001FE00
07F801FC00
03FC03FC00
03FE0FF800
01FFFFF000
007FFFC000
003FFF8000
0007FC0000
ENDCHAR
STARTCHAR 0031
ENCODING 49
SWIDTH 523 0
DWIDTH 44 0
BBX 28 55 9 -1
BITMAP
0000C000
0003E000
000FE000
001FC000
007FC000
01FFC000
07FFC000
3FFFC000
FFFFC000
FCFFC000
C07FC000
007FC000
003FC000
003FC000
003FC000
003FC000
003FC000
003FC000
003FC000
003FC000
003FC000
003FC000
003FC000
003FC000
003FC000
003FC000
003FC000
003FC000
003FC000
003FC000
003FC000
003FC000
003FC000
003FC000
003FC000
003FC000
003FC000
003FC000
003FC000
003FC000
003FC000
003FC000
003FC000
007FC000
007FC000
007FC000
007FC000
007FC000
00FFC000
01FFE000
07FFF000
FFFFFC00
FFFFFFF0
FFFFFFF0
FE000FF0
ENDCHAR
STARTCHAR 0032
ENCODING 50
SWIDTH 523 0
DWIDTH 44 0
BBX 37 55 3 -1
BITMAP
0001FF0000
000FFFE000
003FFFF000
007FFFFC00
01FFFFFE00
03FFFFFE00
03F01FFF00
07C007FF80
0F8003FF80
1F0001FF80
1E0000FFC0
3C0000FFC0
3C00007FC0
1C00007FC0
0000007FC0
0000007FC0
0000007FC0
0000007FC0
0000007F80
000000FF80
000000FF80
000000FF00
000001FF00
000001FE00
000003FE00
000003FC00
000007F800
00000FF800
00000FF000
00001FE000
00001FC000
00003F8000
00007F0000
0000FE0000
0000FC0000
0001F80000
0003F00000
0007E00000
000FC00000
000F800038
001F000038
003E000070
007C000070
00F8000070
01F00000F0
01E00001F0
03C00007E0
07FFFFFFE0
0FFFFFFFE0
1FFFFFFFE0
3FFFFFFFC0
7FFFFFFFC0
FFFFFFFFC0
FFFFFFFFC0
FFFFFFFF80
ENDCHAR
STARTCHAR 0033
ENCODING 51
SWIDTH 523 0
DWIDTH 44 0
BBX 35 55 4 -1
BITMAP
0001FE0000
000FFF8000
003FFFE000
00FFFFF000
01FFFFF800
03FFFFF800
07E07FFC00
0F801FFC00
1E000FFC00
1C0007FE00
1C0007FE00
080007FC00
000007FC00
000003FC00
000007F800
000007F800
000007F000
000007E000
00000FC000
00001F8000
00003E0000
00007C0000
0000FC0000
0003FFE000
000FFFF800
001FFFFC00
00FFFFFE00
00FFFFFF00
00F01FFF80
000007FF80
000003FFC0
000001FFC0
000000FFC0
000000FFC0
0000007FC0
0000007FE0
0000007FE0
0000007FC0
0000003FC0
0000003FC0
0000007FC0
0000007FC0
0000007F80
0800007F80
7C00007F00
FE0000FF00
FE0000FE00
FF0001FC00
FF8003F800
FFC007F000
7FF01FE000
7FFFFF8000
1FFFFF0000
0FFFF80000
01FF800000
ENDCHAR
STARTCHAR 0034
ENCODING 52
SWIDTH 523 0
DWIDTH 44 0
BBX 39 55 3 -1
BITMAP
0000000E00
0000001F00
0000003F00
0000007F00
000000FF00
000000FF00
000001FF00
000003FF00
000007FF00
00000FFF00
00000FFF00
00001FFF00
00003DFF00
000079FF00
0000F1FF00
0000F1FF00
0001E1FE00
0003C1FE00
000781FE00
000F01FE00
001F01FE00
001E01FE00
003C01FE00
007801FE00
00F001FE00
01F001FE00
01E001FE00
03C001FE00
078001FE00
0F0001FE00
1F0001FE00
3E0001FE00
3C0001FE00
780001FE00
FFFFFFFFFE
FFFFFFFFFE
FFFFFFFFFE
FFFFFFFFFE
FFFFFFFFFE
000001FF00
000001FF00
000001FF00
000001FF00
000001FF00
000001FF00
000001FF00
000001FF00
000001FF00
000001FF00
000001FF00
000001FF00
000001FF00
000001FF00
000001FF00
000001FF00
ENDCHAR
STARTCHAR 0035
ENCODING 53
SWIDTH 535 0
DWIDTH 45 0
BBX 35 56 4 -1
BITMAP
0000000060
00000000E0
000FFFFFC0
000FFFFFC0
001FFFFFC0
001FFFFF80
001FFFFF80
003FFFFF80
003FFFFF00
003FFFFE00
0038000000
0078000000
0070000000
0070000000
00F0000000
00E0000000
00E0000000
00E0000000
01F8000000
01FF000000
01FFC00000
03FFF80000
03FFFE0000
03FFFF8000
03FFFFC000
01FFFFF000
003FFFF800
000FFFFC00
0001FFFE00
00007FFE00
00001FFF00
000007FF80
000003FF80
000001FF80
000000FFC0
000000FFC0
0000007FC0
0000007FC0
0000003FC0
0000003FC0
0000003FC0
0000003FC0
0000003F80
1C00003F80
7E00003F80
7E00007F00
FF00007F00
FF0000FE00
FF8000FC00
FFC001F800
7FE003F000
3FF80FE000
1FFFFFC000
0FFFFF0000
03FFFC0000
007FC00000
ENDCHAR
STARTCHAR 0036
ENCODING 54
SWIDTH 523 0
DWIDTH 44 0
BBX 36 56 4 -1
BITMAP
0000001FE0
000000FFE0
000007FFF0
00001FFFE0
00007FC000
0000FF0000
0003FE0000
0007F80000
000FF00000
003FE00000
007FC00000
00FF800000
00FF000000
01FE000000
03FE000000
07FC000000
07F8000000
0FF8000000
0FF0000000
1FF0000000
1FF0000000
3FE0000000
3FE01FE000
3FE07FF800
7FC1FFFE00
7FC3FFFF00
7FC7FFFF80
7FC707FF80
7FCC01FFC0
FF8C00FFC0
FF80007FE0
FF80007FE0
FF80003FF0
FF80003FF0
FF80003FF0
FF80001FF0
FF80001FF0
FF80001FF0
FF80001FF0
7F80001FF0
7FC0001FF0
7FC0001FF0
7FC0001FF0
7FC0001FF0
3FE0001FE0
3FE0003FE0
3FF0003FC0
1FF0003FC0
1FF8007F80
0FFC00FF80
07FE01FF00
03FF07FE00
01FFFFF800
00FFFFF000
003FFFC000
0007FE0000
ENDCHAR
STARTCHAR 0037
ENCODING 55
SWIDTH 523 0
DWIDTH 44 0
BBX 39 55 4 -1
BITMAP
3FFFFFFFFC
3FFFFFFFFE
3FFFFFFFFC
3FFFFFFFFC
3FFFFFFFF8
7FFFFFFFF8
7FFFFFFFF0
7FFFFFFFF0
7E000003E0
78000007C0
78000007C0
7000000F80
7000000F80
7000001F00
E000001F00
E000003E00
4000007C00
0000007C00
000000F800
000000F800
000001F000
000001F000
000003E000
000007E000
000007C000
00000F8000
00000F8000
00001F0000
00001F0000
00003E0000
00007E0000
00007C0000
0000FC0000
0000F80000
0001F80000
0001F00000
0003E00000
0007E00000
0007C00000
000FC00000
000F800000
001F800000
003F000000
003F000000
007E000000
007E000000
00FC000000
01FC000000
01F8000000
03F8000000
07F0000000
07F0000000
07E0000000
07E0000000
01C0000000
ENDCHAR
STARTCHAR 0038
ENCODING 56
SWIDTH 523 0
DWIDTH 44 0
BBX 36 55 4 -1
BITMAP
0003FF0000
003FFFE000
00FFFFF800
01FFFFFC00
03FC0FFE00
07F003FF00
0FE001FF00
1FE000FF80
1FC000FF80
3FC0007F80
3FC0007FC0
3FC0007FC0
3FC0003FC0
3FC0003F80
3FC0003F80
3FC0007F80
3FE0007F80
3FE0007F00
3FF000FF00
1FFC00FE00
1FFE01FC00
0FFF83F000
07FFE7E000
03FFFF8000
01FFFE0000
00FFFF0000
003FFFC000
000FFFF000
003FFFFC00
00FDFFFE00
03F07FFF00
07E01FFF80
0FE007FFC0
1FC003FFC0
3FC001FFE0
7F8000FFE0
7F80007FE0
FF80003FE0
FF80003FF0
FF80003FF0
FF80001FF0
FF80001FE0
FF80001FE0
FF80003FE0
FF80003FE0
FFC0003FC0
FFC0007FC0
7FE0007F80
7FF000FF80
3FF801FF00
1FFE07FE00
0FFFFFF800
07FFFFF000
01FFFF8000
001FFC0000
ENDCHAR
STARTCHAR 0039
ENCODING 57
SWIDTH 523 0
DWIDTH 44 0
BBX 36 55 4 -1
BITMAP
0003FE0000
001FFFC000
007FFFF000
01FFFFF800
03FC0FFC00
07F803FE00
0FF001FF00
1FE001FF80
3FC000FF80
3FC0007FC0
7F80007FC0
7F80007FC0
7F80003FE0
FF80003FE0
FF80003FE0
FF80003FE0
FF80001FF0
FF80001FF0
FF80001FF0
FF80001FF0
FF80001FF0
FFC0001FF0
FFC0001FF0
7FE0001FF0
7FE0001FF0
7FF0011FF0
3FF8031FF0
1FFE0F3FE0
1FFFFE3FE0
0FFFFE3FE0
07FFF83FE0
01FFF03FE0
007F807FC0
0000007FC0
0000007FC0
000000FF80
000000FF80
000001FF00
000001FF00
000003FE00
000003FC00
000007FC00
00000FF800
00000FF000
00001FE000
00003FC000
00007F8000
0000FF0000
0003FE0000
0007F80000
003FF00000
7FFFC00000
FFFF000000
FFF8000000
7F80000000
ENDCHAR
STARTCHAR 003A
ENCODING 58
SWIDTH 238 0
DWIDTH 20 0
BBX 11 37 5 -1
BITMAP
1E00
3F80
7F80
FFC0
FFC0
FFE0
FFC0
FFC0
7F80
3F80
1E00
0000
0000
0000
0000
0000
0000
0000
0000
0000
0000
0000
0000
0000
0000
0000
1E00
3F80
7F80
FFC0
FFC0
FFE0
FFE0
FFC0
7F80
3F80
1E00
ENDCHAR
STARTCHAR 003B
ENCODING 59
SWIDTH 238 0
DWIDTH 20 0
BBX 16 51 2 -15
BITMAP
03C0
07E0
0FF0
1FF8
1FF8
1FFC
1FF8
1FF8
0FF0
07E0
03C0
0000
0000
0000
0000
0000
0000
0000
0000
0000
0000
0000
0000
0000
0000
0000
0000
07C0
0FF0
1FF8
1FFC
1FFC
1FFE
1FFE
07FE
01FE
00FF
007F
007E
007E
007E
007E
007C
00FC
00F8
01F0
03E0
0FC0
3F80
FE00
7000
ENDCHAR
STARTCHAR 003C
ENCODING 60
SWIDTH 523 0
DWIDTH 44 0
BBX 30 40 7 7
BITMAP
00000004
0000001C
0000003C
000000F8
000001F0
000007E0
00000F80
00003F00
00007C00
0001F800
0003E000
000FC000
003F0000
007C0000
01F80000
03E00000
0FC00000
1FC00000
7FF00000
FFF80000
FFFE0000
3FFF0000
1FFFC000
07FFE000
03FFF800
00FFFC00
007FFF00
001FFF80
000FFFE0
0003FFF0
0001FFFC
00007FFC
00003FFC
00000FFC
000007FC
000001FC
000000FC
0000003C
0000001C
00000004
ENDCHAR
STARTCHAR 003D
ENCODING 61
SWIDTH 523 0
DWIDTH 44 0
BBX 36 15 4 19
BITMAP
FFFFFFFFF0
FFFFFFFFF0
FFFFFFFFF0
FFFFFFFFF0
0000000000
0000000000
0000000000
0000000000
0000000000
0000000000
0000000000
FFFFFFFFF0
FFFFFFFFF0
FFFFFFFFF0
FFFFFFFFF0
ENDCHAR
STARTCHAR 003E
ENCODING 62
SWIDTH 523 0
DWIDTH 44 0
BBX 29 39 7 8
BITMAP
C0000000
E0000000
F8000000
FC000000
FF000000
FF800000
FFE00000
FFF00000
FFF80000
7FFE0000
3FFF0000
0FFFC000
07FFE000
01FFF800
00FFFC00
007FFF00
001FFF80
000FFFC0
0003FFF0
0001FFF8
00007FF8
00003FF0
00000FC0
00001F80
00007E00
0000F800
0003F000
000FC000
001F8000
007E0000
00F80000
03F00000
0FC00000
1F800000
7E000000
F8000000
F0000000
C0000000
80000000
ENDCHAR
STARTCHAR 003F
ENCODING 63
SWIDTH 404 0
DWIDTH 34 0
BBX 27 55 5 -1
BITMAP
1FE00000
7FFC0000
FFFF0000
FFFF8000
FFFFE000
FFFFF000
FFFFF800
7F01F800
78007C00
00001E00
00001E00
00000F00
00000F80
00000780
000007C0
000007C0
00000FC0
00000FC0
00001FC0
00003FE0
00007FC0
0001FFC0
0007FFC0
001FFF80
007FFF80
01FFFF00
03FFFE00
07FFFC00
0FFFF000
0FFFC000
0FFE0000
0FF80000
0FE00000
0F800000
0F000000
07000000
07000000
07000000
07000000
03000000
03000000
00000000
00000000
00000000
07800000
0FE00000
1FF00000
3FF00000
3FF80000
3FF80000
3FF80000
3FF00000
1FF00000
0FE00000
07800000
ENDCHAR
STARTCHAR 0040
ENCODING 64
SWIDTH 761 0
DWIDTH 64 0
BBX 57 55 4 -1
BITMAP
0000003FF8000000
000007FFFFC00000
00003FFFFFF00000
0000FFFFFFFC0000
0003FFC00FFF0000
0007FE0001FF8000
001FF000007FC000
003FE000003FE000
007F8000001FF000
00FF0000000FF800
01FE00000007F800
03FC00000703FC00
07F800000F83FE00
07F800003F81FE00
0FF00001FF81FE00
1FE00007FF00FF00
1FE0000FFF00FF00
3FC0003FFF00FF00
3FC0007FFF00FF00
7F8000FC7F00FF00
7F8001F03F00FF80
7F8003E07E007F80
7F0007C07E007F00
FF000F807E00FF00
FF001F007E00FF00
FF001F00FE00FF00
FF003E00FE00FF00
FF007E00FC00FF00
FF007C01FC00FE00
FF007C01FC01FE00
FF00FC03FC01FE00
FF00FC07FC01FC00
FF00FC07FC03F800
FF00FC0EFC03F800
FF00FC1EFC07F000
FF00FC3CFC0FE000
FF00FFF8FC1FC000
FF80FFF8FC3F8000
7F80FFF0FFFF0000
7F807FE0FFFC0000
7FC03FC0FFF00000
3FC01F003F800000
3FE0000000000000
1FF0000000000000
0FF0000000000000
0FF8000000000000
07FE000000000000
03FF000000000000
01FFC00000000000
007FF00000400000
003FFF000FE00000
000FFFFFFFE00000
0003FFFFFF800000
00007FFFFC000000
000007FFC0000000
ENDCHAR
STARTCHAR 0041
ENCODING 65
SWIDTH 666 0
DWIDTH 56 0
BBX 56 55 0 -1
BITMAP
0000000F000000
0000003F800000
0000007F800000
0000007F800000
0000007F800000
000000FFC00000
000000FFC00000
000001FFE00000
000001FFE00000
000001FFE00000
000003FFF00000
000003CFF00000
000007CFF00000
0000078FF80000
00000787F80000
00000F07F80000
00000F03FC0000
00001E03FC0000
00001E03FE0000
00003C01FE0000
00003C01FE0000
00007801FF0000
00007800FF0000
00007800FF0000
0000F0007F8000
0000F0007F8000
0001E0007FC000
0001E0003FC000
0003C0003FC000
0003C0001FE000
000780001FE000
0007FFFFFFF000
0007FFFFFFF000
000FFFFFFFF000
000FFFFFFFF800
001F00000FF800
001E00000FFC00
003E000007FC00
003E000007FC00
007C000007FE00
007C000003FE00
007C000003FF00
00F8000003FF00
00F8000001FF00
01F8000001FF80
01F0000001FF80
03F0000000FFC0
03F0000000FFC0
07F0000000FFE0
07F0000000FFE0
0FF0000000FFF0
1FFC000001FFF8
7FFFC0001FFFFF
FFFFC0001FFFFF
FFFFC0001FFFFF
ENDCHAR
STARTCHAR 0042
ENCODING 66
SWIDTH 630 0
DWIDTH 53 0
BBX 46 55 3 -1
BITMAP
FFFFFFFE0000
FFFFFFFFC000
FFFFFFFFF000
0FFFE7FFFC00
07FF001FFE00
03FF0007FF00
03FF0003FF00
03FF0001FF80
03FF0000FF80
01FF0000FFC0
01FF00007FC0
01FF00007FC0
01FF00007FC0
01FF00007FC0
01FF00007FC0
01FF00007F80
01FF00007F80
01FF0000FF80
01FF0000FF00
01FF0001FE00
01FF0001FC00
01FF0003F800
01FF000FE000
01FF003F8000
01FFFFFC0000
01FFFFFFE000
01FFFFFFFC00
01FF003FFE00
01FF0003FF80
01FF0000FFC0
01FF00007FE0
01FF00003FF0
01FF00001FF0
01FF00000FF8
01FF00000FF8
01FF00000FF8
01FF000007FC
01FF000007FC
01FF000007FC
01FF000007FC
01FF000007FC
01FF000007FC
01FF000007F8
01FF00000FF8
01FF00000FF8
03FF00000FF0
03FF00001FF0
03FF00003FE0
03FF00003FC0
03FF8000FF80
07FF8001FF00
0FFFE00FFE00
FFFFFFFFF800
FFFFFFFFE000
FFF81FFC0000
ENDCHAR
STARTCHAR 0043
ENCODING 67
SWIDTH 678 0
DWIDTH 57 0
BBX 50 55 4 -1
BITMAP
0000007FFE01C0
00000FFFFFFFC0
00007FFFFFFF80
0001FFFFFFFF80
0007FF800FFF80
001FFC0000FF80
003FF000003F80
007FC000001F80
00FF8000001F80
01FF0000000F00
03FE0000000F00
07FC0000000F00
0FFC0000000700
0FF80000000700
1FF80000000700
1FF00000000700
3FF00000000000
3FE00000000000
7FE00000000000
7FE00000000000
7FE00000000000
7FC00000000000
FFC00000000000
FFC00000000000
FFC00000000000
FFC00000000000
FFC00000000000
FFC00000000000
FFC00000000000
FFC00000000000
FFC00000000000
FFC00000000000
FFE00000000000
7FE00000000000
7FE00000000000
7FE00000000000
7FE00000000000
7FF00000000000
3FF00000000000
3FF80000000000
1FF80000000000
1FFC0000000000
0FFC00000001C0
0FFE0000000380
07FF0000000780
03FF8000000780
01FFC000000F80
00FFE000003F00
007FF800007F00
003FFE0001FF00
000FFFC00FFE00
0007FFFFFFFE00
0000FFFFFFFE00
00001FFFFFF000
000001FFFE0000
ENDCHAR
STARTCHAR 0044
ENCODING 68
SWIDTH 773 0
DWIDTH 65 0
BBX 58 55 3 -1
BITMAP
FFFFFFFFE0000000
FFFFFFFFFE000000
FFFFFFFFFFC00000
0FFFFFFFFFF80000
03FFF001FFFC0000
03FF80000FFF0000
03FF800003FF8000
01FF000000FFC000
01FF0000007FE000
01FF0000003FF000
01FF0000001FF800
01FF0000000FFC00
01FF00000007FC00
01FF00000003FE00
01FF00000003FE00
01FF00000001FF00
01FF00000001FF00
01FF00000001FF00
01FF00000000FF80
01FF00000000FF80
01FF00000000FF80
01FF00000000FF80
01FF000000007FC0
01FF000000007FC0
01FF000000007FC0
01FF000000007FC0
01FF000000007FC0
01FF000000007FC0
01FF000000007FC0
01FF000000007FC0
01FF000000007FC0
01FF000000007F80
01FF00000000FF80
01FF00000000FF80
01FF00000000FF80
01FF00000000FF80
01FF00000001FF00
01FF00000001FF00
01FF00000001FE00
01FF00000003FE00
01FF00000003FC00
01FF00000007FC00
01FF0000000FF800
01FF0000001FF800
01FF0000003FF000
01FF0000007FE000
01FF000000FFC000
01FF000001FF8000
03FF800007FF0000
03FFC0001FFC0000
07FFF001FFF80000
0FFFFFFFFFE00000
7FFFFFFFFF800000
FFFFFFFFFC000000
FE003FFF80000000
ENDCHAR
STARTCHAR 0045
ENCODING 69
SWIDTH 595 0
DWIDTH 50 0
BBX 45 55 3 -1
BITMAP
7F000003FFE0
7FFFFFFFFFE0
7FFFFFFFFFE0
7FFFFFFFFFE0
07FF80007FC0
03FF000007C0
03FF000003C0
01FF000003C0
01FF000003C0
01FF000001C0
01FF000001C0
01FF000001C0
01FF000001C0
01FF00000000
01FF00000000
01FF00000000
01FF00000000
01FF00000000
01FF00001C00
01FF00001C00
01FF00001C00
01FF00001C00
01FF00003C00
01FF00007C00
01FFEFFFFC00
01FFFFFFFC00
01FFFFFFF800
01FFFFFFF800
01FF0003F800
01FF00007800
01FF00003C00
01FF00003C00
01FF00001C00
01FF00001C00
01FF00001C00
01FF00001C00
01FF00000000
01FF00000000
01FF00000000
01FF00000030
01FF00000038
01FF00000078
01FF00000070
01FF000000F0
01FF000000F0
01FF000001F0
01FF000003F0
01FF000007E0
01FF80000FE0
01FFC0007FE0
03FFFFFFFFE0
0FFFFFFFFFC0
FFFFFFFFFFC0
FFFFFFFFFFC0
FFC00003FF80
ENDCHAR
STARTCHAR 0046
ENCODING 70
SWIDTH 559 0
DWIDTH 47 0
BBX 42 55 3 -1
BITMAP
FFFFFFFFFFC0
FFFFFFFFFFC0
FFFFFFFFFFC0
0FFFFFFFFFC0
07FF8001FFC0
03FF00001FC0
03FF000007C0
03FF000007C0
03FF000007C0
03FF00000380
03FF00000380
03FF00000380
03FF00000380
03FF00000380
03FF00000000
03FF00000000
03FF00000000
03FF00000000
03FF00003000
03FF00003800
03FF00003800
01FF00007800
01FF00007800
01FF0000F800
01FF0003F800
01FFFFFFF800
01FFFFFFF800
03FFFFFFF800
03FFFFFFF800
03FF0001F800
03FF00007800
03FF00007800
03FF00007800
03FF00007800
03FF00007800
03FF00003000
03FF00000000
03FF00000000
03FF00000000
03FF00000000
03FF00000000
03FF00000000
03FF00000000
03FF00000000
03FF00000000
03FF00000000
03FF00000000
03FF80000000
03FF80000000
07FF80000000
07FFC0000000
0FFFE0000000
FFFFFF000000
FFFFFF800000
FFFFFF000000
ENDCHAR
STARTCHAR 0047
ENCODING 71
SWIDTH 738 0
DWIDTH 62 0
BBX 56 55 4 -1
BITMAP
0000001FFFC1C0
000003FFFFFFC0
00001FFFFFFFC0
0000FFFFFFFFC0
0003FFC003FFC0
000FFC00003FC0
001FF000000FC0
003FC0000007C0
00FF80000003C0
01FF00000003C0
01FE00000003C0
03FC00000001C0
07F800000001C0
0FF000000001C0
0FF00000000000
1FE00000000000
1FE00000000000
3FE00000000000
3FC00000000000
7FC00000000000
7FC00000000000
7FC00000000000
7F800000000000
7F800000000000
FF800000000000
FF800000000000
FF800000000000
FF8000007FFFFF
FF8000007FFFFF
FF8000007FFFFE
FF80000003FFF8
FF800000007FF0
FF800000007FF0
FFC00000003FE0
7FC00000003FE0
7FC00000003FE0
7FC00000003FE0
7FE00000003FE0
3FE00000003FE0
3FE00000003FE0
3FF00000003FE0
1FF80000003FE0
0FF80000003FE0
0FFC0000003FE0
07FE0000003FE0
03FF0000003FE0
03FF8000003FE0
01FFC000007FE0
007FF000007FE0
003FFC0000FFE0
000FFFC003FFF0
0007FFFFFFFFF0
0000FFFFFFFFE0
00001FFFFFFE00
000000FFFE0000
ENDCHAR
STARTCHAR 0048
ENCODING 72
SWIDTH 797 0
DWIDTH 67 0
BBX 62 55 3 -1
BITMAP
7FFFFF8003FFFFFC
7FFFFF8003FFFFFC
7FFFFF0001FFFFF8
07FFE000001FFF80
01FFC000000FFE00
01FFC000000FFE00
01FF8000000FFC00
01FF8000000FFC00
00FF8000000FFC00
00FF8000000FFC00
00FF80000007FC00
00FF80000007FC00
00FF80000007FC00
00FF80000007FC00
00FF80000007FC00
00FF80000007FC00
00FF80000007F800
00FF80000007F800
00FF80000007F800
00FF80000007F800
00FF80000007F800
00FF80000007F800
00FF80000007F800
00FF80000007F800
00FFFFFFFFFFF800
00FFFFFFFFFFF800
00FFFFFFFFFFF800
00FFFFFFFFFFF800
00FF80000007F800
00FF80000007F800
00FF80000007F800
00FF80000007F800
00FF80000007F800
00FF80000007F800
00FF80000007F800
00FF80000007F800
00FF80000007F800
00FF80000007F800
00FF80000007F800
00FF80000007F800
00FF80000007F800
00FF8000000FFC00
00FF8000000FFC00
00FF8000000FFC00
00FF8000000FFC00
00FF8000000FFC00
01FF8000000FFC00
01FF8000000FFC00
01FF8000000FFC00
03FFC000001FFC00
03FFC000001FFE00
0FFFE000003FFE00
FFFFFE0007FFFFF0
FFFFFF8007FFFFFC
FFFFFF8007FFFFFC
ENDCHAR
STARTCHAR 0049
ENCODING 73
SWIDTH 357 0
DWIDTH 30 0
BBX 26 55 2 -1
BITMAP
7FFFFFC0
7FFFFFC0
7FFFFFC0
03FFF800
01FFE000
00FFE000
00FFC000
00FFC000
00FFC000
007FC000
007FC000
007FC000
007F8000
007F8000
007F8000
007F8000
007F8000
007F8000
007F8000
007F8000
007F8000
007F8000
007F8000
007F8000
007F8000
007F8000
007F8000
007F8000
007F8000
007F8000
007F8000
007F8000
007F8000
007F8000
007F8000
00FF8000
00FF8000
00FF8000
00FF8000
00FF8000
00FF8000
00FF8000
00FF8000
00FF8000
00FF8000
00FF8000
00FF8000
00FFC000
00FFC000
01FFC000
03FFE000
0FFFF000
FFFFFFC0
FFFFFFC0
FFFFFFC0
ENDCHAR
STARTCHAR 004A
ENCODING 74
SWIDTH 333 0
DWIDTH 28 0
BBX 35 71 -7 -17
BITMAP
0030000FE0
003FFFFFE0
003FFFFFE0
0000FFFFE0
00007FFE00
00007FF800
00003FF000
00003FF000
00003FF000
00003FF000
00003FE000
00003FE000
00003FE000
00003FE000
00003FE000
00003FE000
00003FE000
00003FE000
00003FE000
00003FE000
00003FE000
00003FE000
00003FE000
00003FE000
00003FE000
00003FE000
00003FE000
00003FE000
00003FE000
00003FE000
00003FE000
00003FE000
00003FE000
00003FE000
00003FE000
00003FE000
00003FE000
00003FE000
00003FE000
00003FE000
00003FE000
00003FE000
00003FE000
00003FE000
00003FE000
00003FE000
00003FE000
00003FE000
00003FE000
00003FE000
00003FE000
00003FC000
00003FC000
00003FC000
00003FC000
00003FC000
00007F8000
00007F8000
00007F0000
00007F0000
00007E0000
00007C0000
0000FC0000
1C01F80000
7F83F00000
7FFFE00000
FFFFC00000
FFFF000000
FFFE000000
7FF8000000
1FC0000000
ENDCHAR
STARTCHAR 004B
ENCODING 75
SWIDTH 678 0
DWIDTH 57 0
BBX 55 55 3 -1
BITMAP
7F00FE008007F8
FFFFFE01FFFFF8
3FFFFE00FFFFF8
07FFE00007FFC0
03FFC00007FF80
01FF800007FE00
01FF800007FC00
01FF80000FF800
01FF80001FF000
01FF80003FC000
01FF80007F8000
01FF8000FF0000
01FF8001FE0000
01FF8003F80000
01FF8007F00000
01FF800FE00000
01FF801FC00000
01FF003F000000
01FF007E000000
01FF00FC000000
01FF01F8000000
01FF03E0000000
01FF07E0000000
01FF0FE0000000
01FF1FF0000000
01FF3FF8000000
01FF7FFC000000
01FFFFFE000000
01FFEFFF000000
01FFC7FF000000
01FF83FF800000
01FF01FFC00000
01FF00FFE00000
01FF007FF00000
01FF003FF80000
01FF003FFC0000
01FF001FFC0000
01FF000FFE0000
01FF0007FF0000
01FF0003FF8000
01FF0001FFC000
01FF0001FFE000
01FF0000FFF000
01FF00007FF000
01FF00003FF800
01FF00001FFC00
01FF00000FFE00
01FF80000FFF00
01FF800007FF80
01FF800003FFC0
03FF800003FFE0
07FFC00007FFF0
7FFFFE007FFFFE
FFFFFE00FFFFFE
7FFFFE007FFFFE
ENDCHAR
STARTCHAR 004C
ENCODING 76
SWIDTH 559 0
DWIDTH 47 0
BBX 44 55 3 -1
BITMAP
7C007F000000
7FFFFF000000
7FFFFE000000
7FFFE0000000
07FFC0000000
03FF80000000
01FF80000000
01FF80000000
01FF80000000
01FF80000000
00FF80000000
00FF80000000
00FF80000000
00FF80000000
00FF80000000
00FF80000000
00FF80000000
00FF80000000
00FF80000000
00FF80000000
00FF80000000
00FF80000000
00FF80000000
00FF80000000
00FF80000000
00FF80000000
00FF80000000
00FF80000000
00FF80000000
00FF80000000
00FF80000000
00FF80000000
00FF80000000
00FF80000000
00FF80000000
00FF80000000
00FF80000000
00FF80000000
00FF80000000
00FF80000060
00FF80000070
00FF800000F0
00FF800000F0
00FF800000E0
00FF800001E0
00FF800001E0
01FF800003E0
01FF800007E0
01FF80000FC0
01FFC000FFC0
03FFFFFFFFC0
07FFFFFFFFC0
7FFFFFFFFFC0
FFFFFFFFFF80
FFE000000780
ENDCHAR
STARTCHAR 004D
ENCODING 77
SWIDTH 940 0
DWIDTH 79 0
BBX 74 55 2 -1
BITMAP
3FFFE0000000003FFFC0
3FFFE0000000003FFFC0
3FFFE0000000007FFF80
03FFF0000000007FF800
00FFF0000000007FF000
007FF800000000FFE000
003FF800000000FFE000
003FF800000001FFE000
003FFC00000001FFC000
003FFC00000001FFC000
003FFE00000003FFC000
003FFE00000003FFC000
003FFF00000007FFC000
003DFF00000007BFC000
003DFF8000000FBFC000
003CFF8000000F3FC000
003CFFC000001F3FC000
003C7FC000001E3FC000
003C7FE000003E3FC000
003C7FE000003C3FC000
003C3FF000007C3FC000
003C3FF00000783FC000
003C1FF80000F83FC000
003C1FF80000F03FC000
003C0FFC0001F03FC000
003C0FFC0001E03FC000
003C07FE0003E03FC000
007C07FE0003C03FC000
007C03FE0007C03FC000
007C03FF0007803FC000
007C01FF800F803FE000
007C01FF800F003FE000
007C00FFC01F003FE000
007C00FFC01E003FE000
007C007FE03E003FE000
007C007FE03C003FE000
007C003FE07C003FE000
007C003FF078003FE000
007C001FF8F8003FE000
007C001FF8F0003FE000
007C000FF9F0003FE000
007C000FFFE0003FE000
007C0007FFE0003FE000
007C0007FFC0003FE000
007C0003FFC0003FE000
00FC0003FF80003FE000
00FC0003FF80003FE000
00FC0001FF00007FE000
00FE0001FF00007FE000
01FE0000FE00007FE000
03FF0000FE0000FFF000
0FFF80007C0003FFF800
FFFFFC007C007FFFFFC0
FFFFFE0020007FFFFFC0
FFFFFE0000007FFFFFC0
ENDCHAR
STARTCHAR 004E
ENCODING 78
SWIDTH 773 0
DWIDTH 65 0
BBX 64 55 1 -1
BITMAP
780F0000003E003F
7FFF8000003FFFFF
7FFFC000003FFFFF
07FFC000003FFFFF
01FFE0000001FFF0
00FFF00000007FC0
00FFF80000003F80
007FFC0000003F80
007FFE0000001F80
007FFF0000001F00
007FFF8000001F00
007FFF8000001F00
007FFFC000001F00
007DFFE000001F00
007CFFF000001F00
007C7FF800001F00
007C3FFC00001F00
007C1FFE00001F00
007C0FFF00001F00
007C0FFF80001F00
007C07FFC0001E00
007C03FFE0001E00
007C01FFF0001E00
007C00FFF8001E00
007C007FFC001E00
007C003FFC001E00
007C001FFE001E00
007C000FFF001E00
007C0007FF801E00
007C0003FFC01E00
007C0001FFE01E00
007C0000FFF01E00
007C0000FFF81E00
007C00007FFC1E00
007C00003FFE1E00
007C00001FFF1E00
007C00000FFF9E00
007C000007FFDE00
007C000003FFDE00
007C000001FFFE00
007C000000FFFE00
007C0000007FFE00
007C0000003FFE00
007C0000001FFE00
007C0000000FFE00
007C0000000FFE00
00FC00000007FE00
00FE00000003FE00
00FE00000001FE00
01FE00000000FE00
03FF000000007E00
07FFC00000003E00
FFFFFE0000003E00
FFFFFE0000001E00
E000FE0000000C00
ENDCHAR
STARTCHAR 004F
ENCODING 79
SWIDTH 797 0
DWIDTH 67 0
BBX 59 55 4 -1
BITMAP
000000FFF8000000
00000FFFFF800000
00007FFFFFE00000
0001FFFFFFF80000
0007FE007FFE0000
000FF0000FFF8000
003FC00003FFC000
007F800000FFE000
00FE0000007FF000
01FE0000003FF800
03FC0000001FFC00
07F80000000FFC00
0FF000000007FE00
0FF000000003FF00
1FE000000003FF00
1FE000000001FF80
3FC000000001FF80
3FC000000000FFC0
7FC000000000FFC0
7FC0000000007FC0
7FC0000000007FC0
7F80000000007FE0
FF80000000007FE0
FF80000000003FE0
FF80000000003FE0
FF80000000003FE0
FF80000000003FE0
FF80000000003FE0
FF80000000003FE0
FF80000000003FE0
FF80000000003FE0
FFC0000000003FE0
FFC0000000003FE0
7FC0000000003FC0
7FC0000000003FC0
7FE0000000003FC0
7FE0000000007FC0
3FE0000000007F80
3FF0000000007F80
3FF000000000FF00
1FF800000000FF00
1FF800000000FE00
0FFC00000001FE00
07FE00000003FC00
07FF00000003F800
03FF80000007F000
01FFC000000FE000
00FFE000001FC000
007FF800007F8000
003FFE0001FF0000
000FFFC00FFC0000
0003FFFFFFF00000
0000FFFFFFC00000
00003FFFFE000000
000003FFE0000000
ENDCHAR
STARTCHAR 0050
ENCODING 80
SWIDTH 571 0
DWIDTH 48 0
BBX 44 55 2 -1
BITMAP
7FFFFFFC0000
7FFFFFFFC000
7FFFFFFFF800
07FFC01FFC00
01FFC003FE00
00FFC001FF00
00FFC000FF80
00FF80007FC0
00FF80003FE0
00FF80003FE0
00FF80003FE0
00FF80001FF0
00FF80001FF0
00FF80001FF0
00FF80001FF0
00FF80001FF0
00FF80001FF0
00FF80001FF0
00FF80001FF0
00FF80001FF0
00FF80001FF0
00FF80003FE0
00FF80003FE0
00FF80007FC0
00FF80007FC0
00FF8000FF80
00FF8003FF00
00FF8007FE00
00FF803FFC00
00FF8FFFF800
00FFBFFFE000
00FFFFFF8000
00FFFFF80000
00FF80000000
00FF80000000
00FF80000000
00FF80000000
00FF80000000
00FF80000000
00FF80000000
00FF80000000
00FF80000000
00FF80000000
00FF80000000
00FF80000000
00FFC0000000
00FFC0000000
01FFC0000000
01FFC0000000
01FFC0000000
03FFE0000000
07FFF0000000
7FFFFF800000
FFFFFF800000
FFFFFF800000
ENDCHAR
STARTCHAR 0051
ENCODING 81
SWIDTH 797 0
DWIDTH 67 0
BBX 64 71 4 -17
BITMAP
000000FFF0000000
00000FFFFF800000
00007FFFFFE00000
0001FFFFFFF80000
0007FE007FFE0000
000FF0000FFF0000
003FC00003FFC000
007F800000FFE000
00FF0000007FF000
01FE0000003FF800
03FC0000001FFC00
07F80000000FFC00
07F000000007FE00
0FF000000003FF00
1FE000000003FF00
1FE000000001FF80
3FC000000001FF80
3FC000000000FFC0
3FC000000000FFC0
7FC0000000007FC0
7FC0000000007FC0
7F80000000007FE0
7F80000000007FE0
FF80000000003FE0
FF80000000003FE0
FF80000000003FE0
FF80000000003FE0
FF80000000003FE0
FF80000000003FE0
FF80000000003FE0
FF80000000003FE0
FFC0000000003FE0
FFC0000000003FE0
7FC0000000003FC0
7FC0000000003FC0
7FC0000000003FC0
7FE0000000007FC0
3FE0000000007F80
3FF0000000007F80
3FF000000000FF00
1FF800000000FF00
1FF800000000FE00
0FFC00000001FE00
0FFE00000003FC00
07FF00000003F800
03FF80000007F000
01FFC000000FE000
00FFE000001FC000
007FF800007F8000
003FFE0001FF0000
001FFF800FFC0000
0007FFFFFFF00000
0001FFFFFFC00000
00007FFFFE000000
000007FFFC000000
0000000FFE000000
00000007FF000000
00000003FF800000
00000001FFC00000
00000001FFF00000
00000000FFF80000
000000003FFC0000
000000001FFE0000
000000000FFF8000
0000000007FFE000
0000000003FFF800
0000000000FFFF01
00000000003FFFFF
00000000000FFFFF
000000000003FFFC
0000000000003FE0
ENDCHAR
STARTCHAR 0052
ENCODING 82
SWIDTH 666 0
DWIDTH 56 0
BBX 56 55 3 -1
BITMAP
00003FFF000000
FFFFFFFFE00000
FFFFFFFFF80000
FFFFFFFFFE0000
07FF801FFF0000
03FF0007FF8000
03FF0001FFC000
03FF0000FFC000
01FF00007FE000
01FF00003FE000
01FF00003FF000
01FF00003FF000
01FF00001FF000
01FF00001FF000
01FF00001FF000
01FF00001FF000
01FF00001FF000
01FF00001FF000
01FF00001FE000
01FF00001FE000
01FF00003FE000
01FF00003FC000
01FF00007F8000
01FF00007F8000
01FF0001FF0000
01FF0003FC0000
01FF003FF80000
01FFFFFFE00000
01FFFFFF800000
01FFFFFFC00000
01FFFFFFC00000
01FF007FE00000
01FF007FE00000
01FF007FF00000
01FF003FF00000
01FF003FF80000
01FF001FFC0000
01FF000FFC0000
01FF000FFE0000
01FF0007FE0000
01FF0007FF0000
01FF0003FF8000
01FF0001FFC000
01FF0001FFC000
01FF0000FFE000
01FF00007FF000
01FF00007FF800
01FF00003FFC00
01FF00001FFF00
03FF80000FFF80
03FF800007FFF0
0FFFE00001FFFF
7FFFFF0000FFFF
FFFFFF00003FFF
FFFFFF000003FC
ENDCHAR
STARTCHAR 0053
ENCODING 83
SWIDTH 559 0
DWIDTH 47 0
BBX 39 55 4 -1
BITMAP
0001FFF820
001FFFFFE0
007FFFFFE0
01FFFFFFE0
03FF80FFE0
07FC001FE0
0FF80007E0
1FF00003E0
1FE00003E0
3FE00001E0
3FE00000E0
3FE00000F0
3FE00000F0
3FE0000070
3FE0000000
3FE0000000
3FE0000000
3FF0000000
3FF8000000
3FFC000000
1FFF000000
1FFFC00000
0FFFF00000
07FFFC0000
03FFFF8000
01FFFFE000
007FFFF800
001FFFFE00
0007FFFF00
0001FFFFC0
00007FFFE0
00000FFFF0
000003FFF0
000000FFF8
0000007FF8
0000001FFC
0000000FFC
0000000FFC
E0000007FC
E0000007FE
E0000007FE
E0000003FC
F0000007FC
F0000007FC
F8000007FC
F8000007FC
FC00000FF8
FE00001FF0
FF80003FF0
FFC0007FE0
FFFC03FFC0
FFFFFFFF80
7FFFFFFE00
7FFFFFF800
601FFF8000
ENDCHAR
STARTCHAR 0054
ENCODING 84
SWIDTH 642 0
DWIDTH 54 0
BBX 53 55 1 -1
BITMAP
38000000000038
3FFFFFFFFFFFF8
7FFFFFFFFFFFF8
7FFFFFFFFFFFF8
7FFFFFFFFFFFF8
7FFFF7FE01FFF8
7E0007FE0003F0
F80007FE0001F0
F00007FE0001F0
F00007FE0000F0
E00007FE0000E0
E00007FE0000E0
E00007FE0000E0
C00007FE0000E0
000007FE000000
000007FE000000
000007FE000000
000007FE000000
000007FE000000
000007FE000000
000007FE000000
000007FE000000
000007FE000000
000007FE000000
000007FE000000
000007FE000000
000007FE000000
000007FE000000
000007FE000000
000007FE000000
000007FE000000
000007FE000000
000007FE000000
000007FE000000
000007FE000000
000007FE000000
000007FE000000
000007FE000000
000007FE000000
000007FE000000
000007FE000000
000007FE000000
000007FE000000
000007FE000000
000007FE000000
000007FE000000
000007FE000000
000007FE000000
000007FE000000
00000FFE000000
00000FFF000000
00003FFFC00000
0007FFFFFE0000
000FFFFFFF0000
0007E0003E0000
ENDCHAR
STARTCHAR 0055
ENCODING 85
SWIDTH 726 0
DWIDTH 61 0
BBX 59 55 1 -1
BITMAP
7C007F0003F003E0
FFFFFF0003FFFFE0
FFFFFF0003FFFFE0
FFFFE00001FFFF00
0FFFC000001FFC00
07FF80000007FC00
03FF80000003F800
03FF80000003F800
01FF80000001F800
01FF80000001F800
01FF80000001F800
01FF80000001F800
01FF80000001F800
01FF80000001F800
01FF80000001F800
01FF00000001F800
01FF00000001F000
01FF00000001F000
01FF00000001F000
01FF00000001F000
01FF00000001F000
01FF00000001F000
01FF00000001F000
01FF00000001F000
01FF00000001F000
01FF00000001F000
01FF00000001F000
01FF00000001F000
01FF00000001F000
01FF00000001F000
01FF00000001F000
01FF00000001F000
01FF00000001F000
01FF80000001F000
01FF80000001F000
01FF80000001F000
01FF80000001F000
01FF80000001F000
00FF80000001F000
00FF80000001F000
00FFC0000003E000
00FFC0000003E000
00FFC0000007E000
00FFE0000007C000
007FE000000FC000
007FF000001F8000
007FF800003F8000
003FFE0000FF0000
001FFFC007FE0000
000FFFFFFFFC0000
0007FFFFFFF80000
0003FFFFFFE00000
0000FFFFFFC00000
00003FFFFE000000
000001FFE0000000
ENDCHAR
STARTCHAR 0056
ENCODING 86
SWIDTH 642 0
DWIDTH 54 0
BBX 55 55 0 -1
BITMAP
FFFFF8000FFFFE
FFFFF8000FFFFE
7FFFF80007FFFE
1FFFC000001FF8
0FFF0000000FF0
07FF00000007E0
07FF0000000FE0
03FF0000000FC0
03FF0000000FC0
01FF8000001F80
01FF8000001F80
00FF8000001F00
00FF8000003F00
00FFC000003E00
007FC000007E00
007FC000007C00
003FE000007C00
003FE00000F800
003FE00000F800
001FF00001F000
001FF00001F000
000FF00003E000
000FF80003E000
000FF80003E000
0007F80007C000
0007FC0007C000
0007FC000F8000
0003FC000F8000
0003FE001F0000
0001FE001F0000
0001FF003E0000
0001FF003E0000
0000FF003C0000
0000FF807C0000
00007F80780000
00007F80F80000
00007FC0F00000
00003FC1F00000
00003FC1F00000
00001FE3E00000
00001FE3E00000
00001FF7C00000
00000FF7C00000
00000FFF800000
00000FFF800000
000007FF000000
000007FF000000
000003FF000000
000003FE000000
000003FE000000
000001FC000000
000001FC000000
000001FC000000
000000F8000000
000000E0000000
ENDCHAR
STARTCHAR 0057
ENCODING 87
SWIDTH 940 0
DWIDTH 79 0
BBX 80 55 1 -1
BITMAP
FC01F0FE0000FF83C007
FFFFF0FFFFFFFFC3FFFF
7FFFF07FFFFFFF81FFFF
1FFF001FFFFFFE001FFC
0FFE001FFE03FC000FF8
0FFE000FFC00FC0007F0
07FE000FFC00F80007E0
07FE0007FC00F00007E0
03FF0007FC01F0000FC0
03FF0003FE01E0000FC0
01FF0003FE01E0000F80
01FF8001FF03C0001F00
00FF8001FF03C0001F00
00FF8000FF0780003E00
007FC000FF8780003E00
007FC0007F8F00003C00
007FC0007FCF00007C00
003FE0007FDE00007800
003FE0003FDE0000F800
001FE0003FFC0000F000
001FF0001FF80001F000
001FF0001FF80001E000
000FF8001FF00003E000
000FF8000FF00003C000
0007F8000FF80003C000
0007FC0007F800078000
0007FC0007FC00078000
0003FE0007FC000F0000
0003FE0007FC000F0000
0001FE0007FE001E0000
0001FF000FFE001E0000
0001FF000FFF003E0000
0000FF801FFF003C0000
0000FF801CFF003C0000
00007F803CFF80780000
00007FC0387F80780000
00007FC0787FC0F00000
00003FE0707FC0F00000
00003FE0F03FC1E00000
00003FE0E03FE1E00000
00001FF1E01FE3C00000
00001FF1C01FF3C00000
00000FFBC01FF7800000
00000FFB800FF7800000
00000FFF800FFF800000
000007FF000FFF000000
000007FF0007FF000000
000007FF0007FE000000
000003FE0007FE000000
000003FE0003FE000000
000003FC0003FC000000
000001FC0003FC000000
000001FC0001F8000000
000001F80001F8000000
000000F00001E0000000
ENDCHAR
STARTCHAR 0058
ENCODING 88
SWIDTH 678 0
DWIDTH 57 0
BBX 55 55 1 -1
BITMAP
181FFFC00F807E
1FFFFFC00FFFFE
1FFFFFC00FFFFE
03FFF8000FFFF8
01FFF00000FFE0
00FFF000003FC0
007FF000003F80
003FF800003F00
003FF800007E00
001FFC0000FC00
000FFC0000F800
000FFE0001F000
0007FF0003E000
0003FF0007C000
0001FF80078000
0001FFC00F8000
0000FFC01F0000
00007FE03E0000
00007FF07C0000
00003FF0F80000
00001FF9F00000
00001FFDE00000
00000FFFC00000
000007FF800000
000007FF800000
000003FF800000
000001FF800000
000000FFC00000
000000FFE00000
000001FFE00000
000003FFF00000
000007DFF80000
00000F9FFC0000
00000F0FFC0000
00001E07FE0000
00003E07FF0000
00007C03FF0000
0000F801FF8000
0001F001FFC000
0003F000FFC000
0007E0007FE000
0007C0007FF000
000F80003FF800
001F80001FF800
003F00001FFC00
007E00000FFE00
00FE00000FFE00
01FC000007FF00
03FC000007FF80
07FC000003FFC0
0FFE000007FFE0
1FFF80000FFFF0
FFFFF800FFFFFC
FFFFF800FFFFFE
F001F800FFFFFE
ENDCHAR
STARTCHAR 0059
ENCODING 89
SWIDTH 607 0
DWIDTH 51 0
BBX 53 55 0 -1
BITMAP
FFFFF0001FFFF0
FFFFF8001FFFF8
FFFFF0000FFFF0
3FFF000001FFC0
1FFE000000FF00
0FFE000000FE00
07FF000000FC00
07FF000001FC00
03FF800001F800
01FF800003F000
01FFC00003E000
00FFC00007E000
007FE00007C000
007FE0000F8000
003FF0001F0000
001FF0001F0000
001FF8003E0000
000FF8003C0000
0007FC007C0000
0007FE00F80000
0003FE00F00000
0003FF01E00000
0001FF03E00000
0000FF83C00000
0000FFC7800000
00007FCF800000
00007FEF000000
00003FFE000000
00001FFE000000
00001FFC000000
00000FFC000000
00000FFC000000
00000FFC000000
000007FC000000
000007FC000000
000007FC000000
000007FC000000
000007FC000000
000007FC000000
000007FC000000
00000FFC000000
00000FFC000000
00000FFC000000
00000FFC000000
00000FFC000000
00000FFC000000
00000FFC000000
00000FFC000000
00000FFC000000
00000FFC000000
00001FFE000000
00007FFF800000
0007FFFFF80000
0007FFFFFC0000
0007FFFFF80000
ENDCHAR
STARTCHAR 005A
ENCODING 90
SWIDTH 630 0
DWIDTH 53 0
BBX 49 55 2 -1
BITMAP
03F0003FFFFF00
03FFFFFFFFFF00
07FFFFFFFFFF00
07FFFFFFFFFE00
07FFFFFFFFFE00
07FC00001FFC00
0FE000003FF800
0FC000007FF000
0F8000007FF000
0F000000FFE000
1F000001FFC000
1E000001FF8000
1E000003FF8000
1C000007FF0000
1C00000FFE0000
0000000FFC0000
0000001FFC0000
0000003FF80000
0000003FF00000
0000007FE00000
000000FFE00000
000001FFC00000
000001FF800000
000003FF000000
000007FE000000
000007FE000000
00000FFC000000
00001FF8000000
00003FF0000000
00003FF0000000
00007FE0000000
0000FFC0000000
0000FFC0000000
0001FF80000000
0003FF00000000
0007FE00000000
0007FE00000000
000FFC00000000
001FF800000100
003FF800000780
003FF000000780
007FE000000780
00FFC000000F00
01FFC000000F00
01FF8000001F00
03FF0000001F00
07FF0000003F00
0FFE000000FE00
1FFC000003FE00
1FF800007FFE00
3FFFFFFFFFFC00
7FFFFFFFFFFC00
FFFFFFFFFFFC00
FFFFFFFFFFFC00
F8000000003800
ENDCHAR
STARTCHAR 005B
ENCODING 91
SWIDTH 333 0
DWIDTH 28 0
BBX 19 78 8 -19
BITMAP
FFFFE0
FFFFE0
FFFFE0
FF0000
FF0000
FF0000
FF0000
FF0000
FF0000
FF0000
FF0000
FF0000
FF0000
FF0000
FF0000
FF0000
FF0000
FF0000
FF0000
FF0000
FF0000
FF0000
FF0000
FF0000
FF0000
FF0000
FF0000
FF0000
FF0000
FF0000
FF0000
FF0000
FF0000
FF0000
FF0000
FF0000
FF0000
FF0000
FF0000
FF0000
FF0000
FF0000
FF0000
FF0000
FF0000
FF0000
FF0000
FF0000
FF0000
FF0000
FF0000
FF0000
FF0000
FF0000
FF0000
FF0000
FF0000
FF0000
FF0000
FF0000
FF0000
FF0000
FF0000
FF0000
FF0000
FF0000
FF0000
FF0000
FF0000
FF0000
FF0000
FF0000
FF0000
FF0000
FF8000
FFFFE0
FFFFE0
FFFFE0
ENDCHAR
STARTCHAR 005C
ENCODING 92
SWIDTH 404 0
DWIDTH 34 0
BBX 33 78 1 -19
BITMAP
FC00000000
7C00000000
7C00000000
7C00000000
3E00000000
3E00000000
1E00000000
1F00000000
1F00000000
0F00000000
0F80000000
0780000000
07C0000000
07C0000000
03C0000000
03E0000000
03E0000000
01E0000000
01F0000000
00F0000000
00F0000000
00F8000000
0078000000
007C000000
007C000000
003C000000
003E000000
003E000000
001E000000
001F000000
000F000000
000F800000
000F800000
0007800000
0007C00000
0007C00000
0003C00000
0003E00000
0003E00000
0001F00000
0001F00000
0000F00000
0000F80000
0000F80000
0000780000
00007C0000
00007C0000
00003C0000
00003E0000
00003E0000
00001F0000
00001F0000
00001F0000
00000F8000
00000F8000
0000078000
000007C000
000007C000
000003C000
000003E000
000003E000
000001F000
000001F000
000001F000
000000F800
000000F800
000000F800
0000007C00
0000007C00
0000007C00
0000003E00
0000003E00
0000003E00
0000001F00
0000001F00
0000001F80
0000000F80
0000000F80
ENDCHAR
STARTCHAR 005D
ENCODING 93
SWIDTH 345 0
DWIDTH 29 0
BBX 19 78 2 -19
BITMAP
FFFFE0
FFFFE0
FFFFE0
003FE0
001FE0
001FE0
001FE0
001FE0
001FE0
001FE0
001FE0
001FE0
001FE0
001FE0
001FE0
001FE0
001FE0
001FE0
001FE0
001FE0
001FE0
001FE0
001FE0
001FE0
001FE0
001FE0
001FE0
001FE0
001FE0
001FE0
001FE0
001FE0
001FE0
001FE0
001FE0
001FE0
001FE0
001FE0
001FE0
001FE0
001FE0
001FE0
001FE0
001FE0
001FE0
001FE0
001FE0
001FE0
001FE0
001FE0
001FE0
001FE0
001FE0
001FE0
001FE0
001FE0
001FE0
001FE0
001FE0
001FE0
001FE0
001FE0
001FE0
001FE0
001FE0
001FE0
001FE0
001FE0
001FE0
001FE0
001FE0
001FE0
001FE0
001FE0
003FE0
FFFFE0
FFFFE0
FFFFE0
ENDCHAR
STARTCHAR 005E
ENCODING 94
SWIDTH 476 0
DWIDTH 40 0
BBX 44 33 -2 23
BITMAP
000002000000
000007000000
000007800000
00000F800000
00001FC00000
00001FE00000
00003FE00000
00007FF00000
00007FF00000
0000FFF80000
0001FFBC0000
0001FF1C0000
0003FF1E0000
0007FE0F0000
000FFC070000
000FF8078000
001FF803C000
003FF001C000
003FE001E000
007FE000E000
00FFC0007000
00FF80007800
01FF80003800
03FF00003C00
03FE00001E00
07FE00000E00
0FFC00000F00
0FF800000780
1FF800000380
3FF0000003C0
3FE0000001C0
7FE0000000E0
FFC0000000F0
ENDCHAR
STARTCHAR 005F
ENCODING 95
SWIDTH 476 0
DWIDTH 40 0
BBX 40 5 0 -14
BITMAP
FFFFFFFFFF
FFFFFFFFFF
FFFFFFFFFF
FFFFFFFFFF
FFFFFFFFFF
ENDCHAR
STARTCHAR 0060
ENCODING 96
SWIDTH 511 0
DWIDTH 43 0
BBX 17 14 10 41
BITMAP
0F0000
FF8000
FF8000
7FC000
3FE000
1FF000
0FF000
03F800
01FC00
007C00
003E00
000F00
000780
000380
ENDCHAR
STARTCHAR 0061
ENCODING 97
SWIDTH 476 0
DWIDTH 40 0
BBX 38 37 3 -1
BITMAP
0001FF0000
001FFFC000
007FFFE000
01FFFFF000
03FFFFF800
07E03FF800
0FC00FF800
1F8007FC00
3F8007FC00
3F8007FC00
7F0007FC00
200007FC00
000007FC00
000007FC00
000007FC00
000007FC00
000007FC00
000007FC00
0001FFFC00
003FFFFC00
01FFFFFC00
0FFF07F800
1FF807F800
3FE007F800
7FC007F800
7FC007F800
7F8007F800
FF8007F800
FFC007F800
FFC007FC00
7FC00FFC0C
7FF03FFFFC
7FFFFFFFFC
7FFFF3FFF8
3FFFC3FFE0
1FFF03FF80
07F000FC00
ENDCHAR
STARTCHAR 0062
ENCODING 98
SWIDTH 571 0
DWIDTH 48 0
BBX 42 60 2 -1
BITMAP
000E00000000
00FE00000000
0FFE00000000
FFFE00000000
FFFE00000000
FFFE00000000
0FFE00000000
07FC00000000
07FC00000000
03FC00000000
03FC00000000
03FC00000000
03FC00000000
03FC00000000
03FC00000000
03FC00000000
03FC00000000
03FC00000000
03FC00000000
03FC00000000
03FC00000000
03FC00000000
03FC00000000
03FC01FF0000
03FC1FFFC000
03FCFFFFF000
03FFFFFFF800
03FFC07FFC00
03FE001FFE00
03FC000FFF00
03FC0007FF00
03FC0003FF80
03FC0001FF80
03FC0001FF80
03FC0000FFC0
03FC0000FFC0
03FC0000FFC0
03FC00007FC0
03FC00007FC0
03FC00007FC0
03FC00007FC0
03FC00007FC0
03FC00007FC0
03FC00007FC0
03FC00007F80
03FC00007F80
03FC00007F80
03FC0000FF00
03FC0000FF00
03FC0000FE00
03FC0001FE00
07FE0001FC00
07FE0003F800
07FF0007F000
07FF800FE000
07FFC03FC000
07FFFFFF0000
07FFFFFC0000
07FFFFF00000
003FFF000000
ENDCHAR
STARTCHAR 0063
ENCODING 99
SWIDTH 440 0
DWIDTH 37 0
BBX 31 37 3 -1
BITMAP
00007FC0
0007FFF8
001FFFFC
003FFFFE
00FFFFFE
01FC0FFE
03F001FE
07F000FC
0FE00038
0FC00000
1FC00000
3FC00000
3FC00000
3FC00000
7F800000
7F800000
7F800000
7F800000
7F800000
FFC00000
FFC00000
FFC00000
FFC00000
7FC00000
7FE00000
7FE00000
7FF00000
3FF80000
3FFC0004
3FFE001E
1FFF80FE
0FFFFFFC
07FFFFF8
03FFFFE0
01FFFF80
007FFE00
001FF000
ENDCHAR
STARTCHAR 0064
ENCODING 100
SWIDTH 571 0
DWIDTH 48 0
BBX 44 61 3 -2
BITMAP
000000001C00
000000007C00
00000003FC00
0000000FFC00
0000003FF800
000000FFF800
000001FFF800
000000FFF800
0000001FF800
0000000FF800
0000000FF800
0000000FF800
0000000FF800
0000000FF800
0000000FF800
0000000FF800
0000000FF800
0000000FF800
0000000FF800
0000000FF800
0000000FF800
0000000FF800
0000000FF800
00007FCFF800
0007FFFFF800
001FFFFFF800
007FFFFFF800
00FF01FFF800
01FC007FF000
03F0003FF000
07F0001FF000
0FE0000FF000
1FE0000FF000
1FC0000FF000
3FC0000FF000
3FC0000FF000
3FC0000FF000
7FC0000FF000
7F80000FF000
7F80000FF000
7F80000FF000
7F80000FF000
FFC0000FF000
FFC0000FF000
FFC0000FF000
7FC0000FF000
7FC0000FF000
7FE0000FF000
7FE0000FF000
7FE0000FF800
3FF0000FF800
3FF8000FF800
1FFC000FF800
1FFC000FF800
0FFF000FF800
07FFC07FFC30
03FFFFEFFFF0
01FFFF8FFFF0
007FFC0FFFC0
001FE007FC00
00000007C000
ENDCHAR
STARTCHAR 0065
ENCODING 101
SWIDTH 440 0
DWIDTH 37 0
BBX 32 37 3 -1
BITMAP
0003FC00
001FFF80
007FFFC0
00FFFFE0
01FC1FF0
03F00FF8
07E007FC
0FE003FC
0FC001FE
1FC001FE
3F8001FE
3F8001FF
3F8003FF
7F801FFF
7F81FFFF
7FFFFFE0
7FFFF800
7FFF0000
FFE00000
FF800000
FF800000
FF800000
7F800000
7FC00000
7FC00000
7FC00000
7FE00000
7FE00000
3FF00002
3FF8000E
1FFC001E
0FFF80FC
0FFFFFF8
07FFFFF0
01FFFFC0
00FFFF00
001FF000
ENDCHAR
STARTCHAR 0066
ENCODING 102
SWIDTH 357 0
DWIDTH 30 0
BBX 37 60 3 -1
BITMAP
000003FE00
00001FFFC0
00007FFFE0
0001FFFFF0
0003FFFFF8
0007FFFFF8
000FE03FF8
001F800FF0
003F0003E0
007E000180
00FE000000
00FC000000
01FC000000
01FC000000
03FC000000
03FC000000
03FC000000
03FC000000
03FC000000
03FC000000
03FC000000
03FC000000
03FC000000
0FFFFFE000
3FFFFFE000
7FFFFFE000
7FFFFFE000
03FC000000
03FC000000
03FC000000
03FC000000
03FC000000
03FC000000
03FC000000
03FC000000
03FC000000
03FC000000
03FC000000
03FC000000
03FC000000
03FC000000
03FC000000
03FC000000
03FC000000
03FC000000
03FC000000
03FC000000
03FC000000
03FC000000
03FC000000
07FC000000
07FC000000
07FC000000
07FE000000
07FE000000
07FE000000
1FFF800000
FFFFFC0000
FFFFFE0000
FFFFFE0000
ENDCHAR
STARTCHAR 0067
ENCODING 103
SWIDTH 523 0
DWIDTH 44 0
BBX 40 59 3 -23
BITMAP
0003FE00FE
001FFFFFFF
007FFFFFFF
00FFFFFFFF
03FC1FFFFE
07F007FF00
07E003FF00
0FE001FF80
1FC000FF80
1FC000FFC0
3FC0007FC0
3FC0007FC0
3FC0007FC0
3FC0003FC0
3FC0003FC0
3FC0003F80
3FE0003F80
3FE0003F80
3FF0007F00
1FF0007E00
1FF8007C00
0FFC00F800
0FFF01F000
07FFE7E000
03FFFF8000
00FFFE0000
003FF00000
000F800000
003C000000
01F0000000
03F0000000
07F0000000
07FC000000
07FFFF0000
07FFFFFE00
07FFFFFFC0
03FFFFFFF0
01FFFFFFF8
003FFFFFFC
001FFFFFFC
007C003FFE
03F00007FE
0FE00001FE
1F800001FE
7F000000FE
FF000000FE
FE000000FC
FE000000FC
FE000001F8
FE000001F8
FE000003F0
FF000007E0
FF80000FC0
FFC0003F00
7FF801FE00
7FFFFFF800
1FFFFFE000
07FFFF0000
00FFF00000
ENDCHAR
STARTCHAR 0068
ENCODING 104
SWIDTH 595 0
DWIDTH 50 0
BBX 46 60 2 -1
BITMAP
000E00000000
00FE00000000
07FE00000000
3FFE00000000
7FFE00000000
3FFE00000000
07FE00000000
03FE00000000
01FE00000000
01FE00000000
01FE00000000
01FE00000000
01FE00000000
01FE00000000
01FE00000000
01FE00000000
01FE00000000
01FE00000000
01FE00000000
01FE00000000
01FE00000000
01FE00000000
01FE00000000
01FE001FC000
01FE00FFF000
01FE07FFF800
01FE1FFFFC00
01FEFFFFFE00
01FFFFFFFE00
01FFF80FFF00
01FF8003FF00
01FE0001FF00
01FE0001FF00
01FE0000FF00
01FE0000FF00
01FE0000FF00
01FE0000FF00
01FE0000FF00
01FE0000FF00
01FE0000FF00
01FE0000FF00
01FE0000FF00
01FE0000FF00
01FE0000FF00
01FE0000FF00
01FE0000FF00
01FE0000FF00
01FE0000FF00
01FE0000FF00
01FE0000FF00
01FE0000FF00
03FF0000FF00
03FF0000FF00
03FF0000FF00
03FF0001FF80
07FF0003FF80
0FFF801FFF80
7FFFF03FFFFC
FFFFF03FFFFC
7FFFF01FFF1C
ENDCHAR
STARTCHAR 0069
ENCODING 105
SWIDTH 297 0
DWIDTH 25 0
BBX 22 58 2 -1
BITMAP
007000
00FC00
01FC00
03FE00
03FE00
03FE00
03FE00
01FC00
01FC00
007000
000000
000000
000000
000000
000000
000000
000000
000000
000000
000000
000000
000E00
007E00
01FE00
0FFE00
3FFE00
7FFC00
7FFC00
0FFC00
07FC00
03FC00
03FC00
03FC00
03FC00
03FC00
03FC00
03FC00
03FC00
03FC00
03FC00
03FC00
03FC00
03FC00
03FC00
03FC00
03FC00
03FC00
03FC00
03FC00
03FC00
07FC00
07FC00
07FC00
1FFE00
FFFF00
FFFFF8
FFFFFC
FC000C
ENDCHAR
STARTCHAR 006A
ENCODING 106
SWIDTH 297 0
DWIDTH 25 0
BBX 22 80 -2 -23
BITMAP
0000E0
0001F0
0003F8
0007FC
0007FC
0007FC
0007FC
0003F8
0003F0
0000E0
000000
000000
000000
000000
000000
000000
000000
000000
000000
000000
000000
000038
0000F8
0003F8
000FF8
001FF8
007FF8
01FFF8
01FFF8
007FF8
000FF8
0007F8
0007F8
0007F8
0007F8
0007F8
0007F8
0007F8
0007F8
0007F8
0007F8
0007F8
0007F8
0007F8
0007F8
0007F8
0007F8
0007F8
0007F8
0007F8
0007F8
0007F8
0007F8
0007F8
0007F8
0007F8
0007F8
0007F8
0007F8
0007F8
0007F8
0007F8
0007F8
0007F8
0007F0
0007F0
0007F0
0007F0
0007E0
0007E0
0007E0
000FC0
000F80
3E1F80
7FFF00
FFFE00
FFFC00
FFF000
FFC000
3F0000
ENDCHAR
STARTCHAR 006B
ENCODING 107
SWIDTH 559 0
DWIDTH 47 0
BBX 44 60 2 -1
BITMAP
001E00000000
00FE00000000
0FFE00000000
3FFE00000000
7FFE00000000
7FFE00000000
0FFE00000000
03FE00000000
03FE00000000
03FE00000000
03FE00000000
03FE00000000
03FE00000000
03FC00000000
03FC00000000
03FC00000000
03FC00000000
03FC00000000
03FC00000000
03FC00000000
03FC00000000
03FC00000000
03FC00000000
03FC03FFFF80
03FC03FFFF80
03FC03FFFF00
03FC001FFC00
03FC000FF000
03FC000FC000
03FC001F8000
03FC007E0000
03FC00FC0000
03FC01F80000
03FC03E00000
03FC07C00000
03FC0F800000
03FC1E000000
03FC7F000000
03FCFF800000
03FDFFC00000
03FFFFC00000
03FF7FE00000
03FE3FF00000
03FC1FF80000
03FC1FFC0000
03FC0FFE0000
03FC07FF0000
03FC03FF8000
03FC01FFC000
03FC00FFC000
03FE007FE000
03FE003FF000
03FE001FF800
03FE001FFC00
03FE000FFE00
07FF0007FF00
0FFF8007FF80
7FFFF03FFFF0
FFFFF83FFFF0
FFFFF83FFFF0
ENDCHAR
STARTCHAR 006C
ENCODING 108
SWIDTH 297 0
DWIDTH 25 0
BBX 22 60 2 -1
BITMAP
000E00
00FE00
07FE00
3FFE00
7FFE00
7FFE00
0FFE00
03FE00
03FE00
03FE00
01FE00
01FE00
01FE00
01FE00
01FE00
01FE00
01FE00
01FE00
01FE00
01FE00
01FE00
01FE00
01FE00
01FE00
01FE00
01FE00
01FE00
01FE00
01FE00
01FE00
01FE00
01FE00
01FE00
01FE00
01FE00
01FE00
01FE00
01FE00
01FE00
01FE00
01FE00
01FE00
01FE00
01FE00
01FE00
01FE00
01FE00
01FE00
01FE00
01FE00
01FE00
01FE00
01FE00
03FE00
03FE00
03FF00
07FFC0
7FFFFC
FFFFFC
FFFFFC
ENDCHAR
STARTCHAR 006D
ENCODING 109
SWIDTH 869 0
DWIDTH 73 0
BBX 69 37 3 -1
BITMAP
003C007F00007F0000
00FC03FFC007FFC000
03FC0FFFE01FFFE000
0FFC3FFFF07FFFF000
3FFCFFFFF9FFFFF800
FFFFFFFFFFFFFFFC00
FFFFF03FFFE03FFC00
FFFF801FFF000FFC00
0FFE000FFC0007FC00
0FFC0007FC0007FE00
07FC0007FC0003FE00
07FC0007FC0003FE00
07FC0007FC0003FE00
07FC0003FC0003FE00
07FC0003FC0001FE00
07FC0003FC0001FE00
07FC0003FC0001FE00
07FC0003FC0001FE00
07FC0003FC0001FE00
07FC0003FC0001FE00
07FC0003FC0001FE00
07FC0003FC0001FE00
07FC0003FC0001FE00
07FC0003FC0001FE00
07FC0003FC0001FE00
07FC0003FC0001FE00
07FC0003FC0001FE00
07FC0003FC0001FE00
07FC0003FC0001FE00
07FC0003FC0003FE00
0FFC0007FC0003FE00
0FFC0007FC0003FE00
0FFC0007FC0003FE00
1FFF000FFE000FFF00
FFFFF07FFFF03FFFF0
FFFFF07FFFF87FFFF8
FE01F07C00787E01F8
ENDCHAR
STARTCHAR 006E
ENCODING 110
SWIDTH 595 0
DWIDTH 50 0
BBX 46 37 3 -1
BITMAP
001C003F8000
00FC01FFE000
03FC0FFFF800
0FFC3FFFF800
7FFCFFFFFC00
FFFFFFFFFC00
FFFFE01FFE00
7FFF0007FE00
0FFC0003FE00
07FC0003FE00
07FC0001FE00
07FC0001FE00
07FC0001FE00
07FC0001FF00
07FC0001FF00
07FC0001FF00
07FC0001FF00
03FC0001FF00
03FC0000FF00
03FC0001FF00
03FC0001FF00
03FC0001FF00
03FC0001FF00
03FC0001FF00
03FC0001FF00
03FC0001FF00
03FC0001FF00
03FC0001FF00
03FC0001FF00
03FC0001FF00
07FC0001FF00
07FC0001FF00
07FC0003FF00
1FFE0007FFC0
FFFFE03FFFF8
FFFFE03FFFFC
FFFFE03FFFF8
ENDCHAR
STARTCHAR 006F
ENCODING 111
SWIDTH 559 0
DWIDTH 47 0
BBX 40 37 3 -1
BITMAP
0000FFE000
0007FFFC00
003FFFFF00
007FFFFF80
01FF03FFE0
03FC00FFF0
07F8003FF0
0FF0001FF8
1FE0001FFC
1FE0000FFC
3FC00007FE
3FC00007FE
7FC00003FF
7FC00003FF
7FC00001FF
7F800001FF
7F800001FF
FF800001FF
FFC00001FF
FFC00001FF
FFC00001FF
7FC00001FF
7FC00001FF
7FE00001FF
7FE00001FE
7FE00001FE
3FF00001FC
3FF00003FC
1FF80003F8
1FFC0007F0
0FFE000FE0
07FF001FC0
03FFE07F80
01FFFFFF00
007FFFFC00
001FFFF000
0003FF0000
ENDCHAR
STARTCHAR 0070
ENCODING 112
SWIDTH 571 0
DWIDTH 48 0
BBX 43 60 2 -23
BITMAP
000E00000000
003E00FF0000
00FE0FFFE000
03FE7FFFF000
0FFFFFFFF800
1FFFC03FFE00
7FFE000FFE00
FFFC0007FF00
FFFC0001FF80
07FC0001FF80
03FC0000FFC0
03FC00007FC0
03FC00007FC0
03FC00003FE0
03FC00003FE0
03FC00003FE0
03FC00001FE0
03FC00001FE0
03FC00001FE0
03FC00001FE0
03FC00001FE0
03FC00001FE0
03FC00001FE0
03FC00001FE0
03FC00001FC0
03FC00001FC0
03FC00001F80
03FC00003F80
03FC00003F00
03FC00007F00
03FC00007E00
03FE0000FC00
03FF8001F800
03FFF00FF000
03FFFFFFC000
03FFFFFF0000
03FFFFFC0000
03FC7FE00000
03FC00000000
03FC00000000
03FC00000000
03FC00000000
03FC00000000
03FC00000000
03FC00000000
03FC00000000
03FC00000000
03FC00000000
03FE00000000
03FE00000000
03FE00000000
03FE00000000
03FE00000000
03FE00000000
03FE00000000
07FF00000000
0FFF80000000
7FFFF8000000
FFFFF8000000
FFFFF8000000
ENDCHAR
STARTCHAR 0071
ENCODING 113
SWIDTH 559 0
DWIDTH 47 0
BBX 42 59 3 -23
BITMAP
00007FF01C00
0003FFFF7C00
000FFFFFFC00
003FFFFFFC00
00FF80FFFC00
01FE003FFC00
03F8001FFC00
07F0000FF800
0FF0000FF800
0FE00007F800
1FE00007F800
3FC00007F800
3FC00007F800
3FC00007F800
7FC00007F800
7FC00007F800
7F800007F800
7F800007F800
7F800007F800
FF800007F800
FFC00007F800
FFC00007F800
7FC00007F800
7FC00007F800
7FC00007F800
7FE00007F800
7FE00007F800
3FF00007F800
3FF00007F800
3FF80007F800
1FFC0007F800
0FFF000FF800
07FFC07FF800
03FFFFF7F800
01FFFFC7F800
007FFF07F800
000FF007F800
00000007F800
00000007F800
00000007F800
00000007F800
00000007F800
00000007F800
00000007F800
00000007F800
00000007F800
00000007F800
00000007F800
00000007F800
00000007F800
00000007F800
0000000FF800
0000000FF800
0000000FFC00
0000000FFC00
0000003FFE00
000001FFFFC0
000003FFFFC0
000001FFCFC0
ENDCHAR
STARTCHAR 0072
ENCODING 114
SWIDTH 392 0
DWIDTH 33 0
BBX 30 38 3 -1
BITMAP
001C0000
007C00E0
01FC03F0
07F80FF8
1FF81FFC
7FF87FFC
FFF9FFFC
FFFBFFFC
3FFF83F8
0FFE01F0
07FC00E0
07FC0040
07F80000
07F80000
07F80000
07F80000
07F80000
07F80000
07F80000
07F80000
07F80000
07F80000
07F80000
07F80000
07F80000
07F80000
07F80000
07F80000
07F80000
07F80000
07FC0000
07FC0000
0FFC0000
0FFC0000
1FFF0000
7FFFFC00
FFFFFC00
E000FC00
ENDCHAR
STARTCHAR 0073
ENCODING 115
SWIDTH 404 0
DWIDTH 34 0
BBX 27 37 4 -1
BITMAP
003FFF00
01FFFF00
07FFFF80
0FFFFF80
1FE07F80
3FC01F80
7F800F80
7F800780
7F800780
7F800380
7F800000
7FC00000
7FE00000
7FF00000
3FFC0000
1FFF0000
0FFFC000
07FFF000
03FFFC00
00FFFE00
003FFF00
000FFF80
0003FFC0
0000FFC0
00007FC0
C0003FE0
E0003FE0
E0001FE0
F0001FE0
F0003FC0
F8003FC0
FE007F80
FF81FF80
FFFFFF00
FFFFFC00
FFFFF000
03FF8000
ENDCHAR
STARTCHAR 0074
ENCODING 116
SWIDTH 345 0
DWIDTH 29 0
BBX 26 44 3 -1
BITMAP
00380000
00380000
00F80000
01F80000
03F80000
07F80000
0FF80000
3FFFFFC0
7FFFFFC0
FFFFFFC0
FFFFFFC0
0FFFFFC0
0FF80000
0FF80000
0FF80000
0FF80000
0FF80000
0FF80000
0FF80000
0FF80000
0FF80000
0FF80000
0FF00000
0FF00000
0FF00000
0FF00000
0FF00000
0FF00000
0FF00000
0FF00000
0FF00000
0FF00000
0FF00000
0FF00000
0FF00000
0FF80000
0FF80000
0FFC01C0
07FFFFC0
07FFFFC0
07FFFF00
03FFFC00
01FFF000
007F8000
ENDCHAR
STARTCHAR 0075
ENCODING 117
SWIDTH 595 0
DWIDTH 50 0
BBX 47 37 2 -1
BITMAP
003C00000700
03FC0003FF00
1FFC00FFFF00
7FFC00FFFF00
FFFC00FFFF00
3FFC0007FF00
07FC0001FF00
07FC0001FF00
07FC0001FF00
07FC0001FF00
07FC0001FF00
07F80001FF00
07F80001FF00
07F80001FE00
07F80001FE00
07F80001FE00
07F80001FE00
07F80001FE00
07F80001FE00
07F80001FE00
07F80001FE00
07F80001FE00
07FC0001FE00
07FC0001FE00
07FC0001FE00
07FC0001FE00
07FC0001FE00
07FC0001FE00
03FE0001FE00
03FE0001FF00
03FF0007FF00
03FFC03FFFFE
01FFFFFDFFFE
00FFFFF1FFFC
007FFF81FFE0
003FFE01FF00
000FE000F000
ENDCHAR
STARTCHAR 0076
ENCODING 118
SWIDTH 464 0
DWIDTH 39 0
BBX 40 37 0 -1
BITMAP
FFFFC03FFF
FFFFC03FFF
7FFF803FFE
3FFC0007FC
1FF80003F8
1FF80001F0
0FF80003F0
0FFC0003E0
07FC0003E0
07FC0007C0
03FE0007C0
03FE000780
01FE000F00
01FF000F00
01FF001E00
00FF001E00
00FF803C00
007F803C00
007FC03800
007FC07800
003FC07000
003FE0F000
001FE0E000
001FF1E000
000FF1C000
000FF3C000
000FFB8000
0007FB8000
0007FF0000
0003FF0000
0003FE0000
0003FE0000
0001FE0000
0001FC0000
0000FC0000
0000F80000
0000F00000
ENDCHAR
STARTCHAR 0077
ENCODING 119
SWIDTH 702 0
DWIDTH 59 0
BBX 59 37 1 -1
BITMAP
FFFFC3FFFF07FFE0
FFFFC3FFFF07FFE0
7FFFC3FFFE01FFE0
3FFC007FF0003F80
1FF8007FE0003F00
1FF8003FE0003F00
0FF8003FE0003E00
0FF8001FE0003C00
07FC001FF0003C00
07FC001FF0007800
03FC000FF0007800
03FE000FF000F000
03FE000FF800F000
01FE001FF800E000
01FF001FF801E000
00FF003FFC01C000
00FF003BFC03C000
00FF807BFC038000
007F8073FE078000
007FC0F1FE070000
007FC0E1FE070000
003FC1E1FF0E0000
003FE1C0FF0E0000
001FE3C0FF1C0000
001FE380FF9C0000
001FF3807FB80000
000FF7007FB80000
000FFF007FF80000
000FFE003FF00000
0007FE003FF00000
0007FC003FE00000
0007FC001FE00000
0003FC001FC00000
0003F8001FC00000
0003F8001FC00000
0001F0000F800000
0001E0000F000000
ENDCHAR
STARTCHAR 0078
ENCODING 120
SWIDTH 476 0
DWIDTH 40 0
BBX 40 37 0 -1
BITMAP
3FFFF0603E
3FFFF07FFE
1FFFE03FFC
07FF8007F8
03FF8007F0
01FF8007E0
00FFC00FC0
00FFC00F80
007FE01F00
003FE03E00
003FF07C00
001FF8F800
000FF8F000
000FFDE000
0007FFC000
0003FF8000
0003FF0000
0001FF8000
0000FF8000
0000FFC000
0001FFE000
0003FFE000
0007DFF000
000F9FF800
001F0FF800
003E07FC00
007C07FE00
007C03FE00
00F801FF00
01F001FF80
03E000FF80
07E000FFC0
0FE0007FE0
3FE000FFF0
FFFE07FFFE
FFFE07FFFF
FFFE07FFFF
ENDCHAR
STARTCHAR 0079
ENCODING 121
SWIDTH 440 0
DWIDTH 37 0
BBX 40 59 0 -23
BITMAP
FFFF803FFF
FFFFC03FFF
FFFF803FFE
3FFC0003FC
1FF80003F8
1FF80003F0
0FF80003F0
0FF80003E0
07FC0007C0
07FC0007C0
03FC000F80
03FC000F80
03FE001F00
01FE001F00
01FE001E00
01FF003C00
00FF003C00
00FF807800
007F807800
007F80F000
007FC0F000
003FC1E000
003FC1E000
001FE1C000
001FE3C000
001FF38000
000FF78000
000FF70000
000FFF0000
0007FE0000
0007FE0000
0007FC0000
0003FC0000
0003F80000
0001F80000
0001F00000
0001F00000
0001E00000
0001E00000
0001C00000
0003C00000
0003800000
0007800000
000F000000
000F000000
001E000000
003E000000
003C000000
007C000000
00F8000000
01F8000000
03F8000000
07F0000000
0FF0000000
3FE0000000
7FE0000000
7FC0000000
7F80000000
3E00000000
ENDCHAR
STARTCHAR 007A
ENCODING 122
SWIDTH 440 0
DWIDTH 37 0
BBX 34 37 2 -1
BITMAP
0FFFFFFFC0
1FFFFFFFC0
1FFFFFFF80
1FFFFFFF80
1FC001FF00
1F0003FE00
1E0007FC00
3C000FF800
3C000FF000
38001FF000
38003FE000
30003FC000
00007F8000
0000FF8000
0001FF0000
0001FE0000
0003FC0000
0007FC0000
000FF80000
000FF00000
001FE00000
003FE00000
007FC00000
007F800000
00FF8000C0
01FF0001C0
03FE0001C0
03FC0003C0
07FC0007C0
0FF8000780
1FF0000F80
3FF0003F80
7FE007FF00
7FFFFFFF00
FFFFFFFF00
FFFFFFFE00
FE00000600
ENDCHAR
STARTCHAR 007B
ENCODING 123
SWIDTH 333 0
DWIDTH 28 0
BBX 26 79 1 -20
BITMAP
00003FC0
0001FFC0
0007FFC0
000FF800
001FE000
003FC000
003FC000
003F8000
007F8000
007F8000
007F8000
007F8000
007F8000
007F8000
007F8000
007F8000
007F8000
007F8000
007F8000
007F8000
007F8000
007F8000
007F8000
007F8000
007F8000
007F8000
007F8000
007F8000
007F8000
007F8000
007F8000
007F8000
007F0000
00FF0000
00FF0000
01FE0000
03FC0000
0FF80000
FFF00000
FF800000
FFF00000
0FF80000
03FC0000
01FE0000
00FF0000
00FF0000
007F0000
007F8000
007F8000
007F8000
007F8000
007F8000
007F8000
007F8000
007F8000
007F8000
007F8000
007F8000
007F8000
007F8000
007F8000
007F8000
007F8000
007F8000
007F8000
007F8000
007F8000
007F8000
007F8000
007F8000
003F8000
003FC000
003FC000
001FC000
001FE000
000FF800
0007FFC0
0001FFC0
00001FC0
ENDCHAR
STARTCHAR 007C
ENCODING 124
SWIDTH 476 0
DWIDTH 40 0
BBX 6 66 17 -13
BITMAP
FC
FC
FC
FC
FC
FC
FC
FC
FC
FC
FC
FC
FC
FC
FC
FC
FC
FC
FC
FC
FC
FC
FC
FC
FC
FC
FC
FC
FC
FC
FC
FC
FC
FC
FC
FC
FC
FC
FC
FC
FC
FC
FC
FC
FC
FC
FC
FC
FC
FC
FC
FC
FC
FC
FC
FC
FC
FC
FC
FC
FC
FC
FC
FC
FC
FC
ENDCHAR
STARTCHAR 007D
ENCODING 125
SWIDTH 333 0
DWIDTH 28 0
BBX 26 79 1 -20
BITMAP
FE000000
FFE00000
FFF80000
0FFC0000
03FC0000
01FE0000
01FE0000
00FF0000
00FF0000
00FF0000
00FF0000
00FF0000
00FF0000
00FF0000
00FF0000
00FF0000
00FF0000
00FF0000
00FF0000
00FF0000
00FF0000
00FF0000
00FF0000
00FF0000
00FF0000
00FF0000
00FF0000
00FF0000
00FF0000
00FF0000
00FF0000
007F0000
007F8000
007F8000
003F8000
003FC000
001FE000
000FFC00
0003FFC0
00007FC0
0003FFC0
000FFC00
001FE000
003FC000
003F8000
007F8000
007F8000
007F0000
00FF0000
00FF0000
00FF0000
00FF0000
00FF0000
00FF0000
00FF0000
00FF0000
00FF0000
00FF0000
00FF0000
00FF0000
00FF0000
00FF0000
00FF0000
00FF0000
00FF0000
00FF0000
00FF0000
00FF0000
00FF0000
00FF0000
00FF0000
00FE0000
01FE0000
01FE0000
03FC0000
0FF80000
FFF00000
FFC00000
FE000000
ENDCHAR
STARTCHAR 007E
ENCODING 126
SWIDTH 630 0
DWIDTH 53 0
BBX 32 10 11 49
BITMAP
00000002
01F80007
07FF000E
0FFFC01E
1FFFF03C
3FFFFFF8
783FFFF0
E007FFE0
C000FFC0
80003F00
ENDCHAR
STARTCHAR 00A0
ENCODING 160
SWIDTH 238 0
DWIDTH 20 0
BBX 0 0 0 0
BITMAP
ENDCHAR
STARTCHAR 00A1
ENCODING 161
SWIDTH 357 0
DWIDTH 30 0
BBX 11 56 9 -20
BITMAP
1E00
3F80
7FC0
FFC0
FFE0
FFE0
FFE0
FFC0
7FC0
3F80
1E00
0000
0000
0000
0000
0E00
0E00
0E00
0E00
0E00
1E00
1E00
1E00
1E00
1E00
1F00
1F00
1F00
1F00
3F00
3F00
3F00
3F00
3F00
3F80
3F80
3F80
7F80
7F80
7F80
7F80
7FC0
7FC0
7FC0
FFC0
FFC0
FFC0
FFC0
FFE0
FFE0
FFE0
FFE0
FFE0
FFC0
FFC0
7E00
ENDCHAR
STARTCHAR 00A2
ENCODING 162
SWIDTH 523 0
DWIDTH 44 0
BBX 31 54 7 -1
BITMAP
0000E000
0000E000
0000E000
0000E000
0000E000
0000E000
0000E000
0000FFC0
0001FFF0
000FFFFC
003FFFFE
007FFFFE
01FFFFFE
03F8E7FC
07E0E1F8
0FC0E070
0FC0E000
1F80E000
3F80E000
3F00E000
7F00E000
7F00E000
7F00E000
FF00E000
FF00E000
FF00E000
FF00E000
FF00E000
FF00E000
FF00E000
FF80E000
FF80E000
FF80E000
7FC0E000
7FE0E000
7FE0E000
3FF0E00C
3FFCE03E
1FFFE1FE
0FFFFFFC
07FFFFF0
03FFFFE0
01FFFF80
007FFE00
0003F000
0000E000
0000E000
0000E000
0000E000
0000E000
0000E000
0000E000
0000E000
0000E000
ENDCHAR
STARTCHAR 00A3
ENCODING 163
SWIDTH 523 0
DWIDTH 44 0
BBX 39 56 4 -1
BITMAP
00000FF000
00007FFC00
0001FFFF00
0007FFFF80
000FFFFFC0
001F80FFC0
003F007FC0
007C003FC0
00FC003FC0
01F8001FC0
01F8001FC0
03F8000F00
03F8000000
07F8000000
07F8000000
07F8000000
07F8000000
07F8000000
07F8000000
07FC000000
07FC000000
07FC000000
07FC000000
07FE000000
07FE000000
03FE000000
03FE000000
03FF000000
FFFFFFC000
FFFFFFC000
FFFFFFC000
FFFFFF8000
00FF800000
00FF800000
007F800000
007F800000
007F800000
003F800000
003F800000
003F800000
001F800000
001F000000
001F0000F8
001E0000FC
001E0000FC
003F0000FE
003FE0007C
03FFFC007C
0FFFFF807C
1FFFFFF07C
3FFFFFFFF8
7FFFFFFFF0
7FDFFFFFE0
7F83FFFFC0
3F007FFF80
3C0003FC00
ENDCHAR
STARTCHAR 00A4
ENCODING 164
SWIDTH 523 0
DWIDTH 44 0
BBX 33 33 5 10
BITMAP
2000000300
7000000780
F807F00F80
7C1FFE1E00
3E7FFF3C00
1FFFFFF800
0FFFFFF000
07FFFFF000
07FC1FF000
0FF007F800
0FE001FC00
1FC001FC00
1F8000FC00
3F80007E00
3F00007E00
3F00007E00
3F00007E00
3F00007E00
3F00007E00
3F80007E00
1F8000FC00
1FC001FC00
0FE001FC00
0FF007F800
07FC1FF000
07FFFFF000
0FFFFFF800
1FFFFFFC00
3E7FFF3E00
7C1FFE1F00
F807F00F80
7000000780
2000000300
ENDCHAR
STARTCHAR 00A5
ENCODING 165
SWIDTH 523 0
DWIDTH 44 0
BBX 46 55 -1 -1
BITMAP
FFFFE007FFFC
FFFFE007FFFC
7FFFE003FFFC
1FFF00007FF0
0FFE00003FE0
0FFE00003FC0
07FE00003F80
03FF00003F00
03FF00007F00
01FF80007E00
01FF80007C00
00FF8000F800
00FFC000F800
007FC001F000
007FE001F000
003FE001E000
003FF003E000
001FF003C000
001FF8078000
000FF8078000
000FFC0F0000
0FFFFC0FFF00
0FFFFE1FFF00
0FFFFE1FFF00
0FFFFF3FFF00
0001FF7C0000
0000FFF80000
0000FFF00000
00007FE00000
0FFFFFFFFF00
0FFFFFFFFF00
0FFFFFFFFF00
0FFFFFFFFF00
00001FC00000
00001FC00000
00001FC00000
00001FC00000
00003FC00000
00003FC00000
00003FC00000
00003FC00000
00003FC00000
00003FC00000
00003FC00000
00003FC00000
00003FE00000
00003FE00000
00003FE00000
00003FE00000
00007FE00000
00007FF00000
0001FFF80000
001FFFFF8000
001FFFFF8000
001FFFFF8000
ENDCHAR
STARTCHAR 00A6
ENCODING 166
SWIDTH 476 0
DWIDTH 40 0
BBX 6 66 17 -13
BITMAP
FC
FC
FC
FC
FC
FC
FC
FC
FC
FC
FC
FC
FC
FC
FC
FC
FC
FC
FC
FC
FC
FC
FC
FC
FC
FC
FC
FC
00
00
00
00
00
00
00
00
00
00
00
00
FC
FC
FC
FC
FC
FC
FC
FC
FC
FC
FC
FC
FC
FC
FC
FC
FC
FC
FC
FC
FC
FC
FC
FC
FC
FC
ENDCHAR
STARTCHAR 00A7
ENCODING 167
SWIDTH 523 0
DWIDTH 44 0
BBX 33 76 6 -22
BITMAP
00007F8000
0003FFE000
000FFFF800
003FFFFC00
007FFFFC00
00FFFFFE00
01F807FE00
03E001FC00
03C000F800
0780007000
0F80000000
0F80000000
0F80000000
1F80000000
1F80000000
1FC0000000
1FC0000000
1FE0000000
1FF0000000
1FF8000000
1FFE000000
0FFF000000
0FFFC00000
07FFF00000
03FFF80000
03FFFE0000
03FFFF8000
07FFFFC000
0F9FFFF000
1F07FFF800
3F01FFFC00
3E00FFFE00
7E003FFE00
7E000FFF00
FE0007FF00
FE0003FF80
FE0001FF80
FF0000FF80
FF80007F80
FFC0007F80
FFE0003F80
7FF8003F00
7FFC003F00
3FFF003F00
3FFFC07E00
1FFFE07C00
0FFFF8F800
03FFFCF000
01FFFFE000
007FFFC000
003FFFC000
000FFFE000
0003FFF000
0001FFF800
00007FF800
00001FF800
00000FFC00
000007FC00
000003FC00
000001FC00
000001FC00
000000FC00
000000F800
000000F800
000000F800
000001F000
1C0001F000
3E0003E000
7F8007C000
7FE01F8000
7FFFFF0000
7FFFFE0000
7FFFFC0000
3FFFF00000
0FFFC00000
03FE000000
ENDCHAR
STARTCHAR 00A8
ENCODING 168
SWIDTH 500 0
DWIDTH 42 0
BBX 24 8 9 42
BITMAP
1E003C
7F00FE
FF81FF
FF81FF
FF81FF
FF81FF
7F00FE
1E003C
ENDCHAR
STARTCHAR 00A9
ENCODING 169
SWIDTH 750 0
DWIDTH 63 0
BBX 56 55 4 -1
BITMAP
000003FF800000
00003FFFF80000
0000FFFFFE0000
0003FFFFFF8000
000FFC00FFE000
001FE0000FF000
003F800003FC00
00FE000000FE00
01F80000003F00
03F00000001F80
03E00000000FC0
07C000000007C0
0F80007FF983E0
1F0007FFFF81F0
1F001FFFFF80F0
3E003FE03F00F8
3C00FF000F0078
7C01FE0007007C
7803FC0007003C
7803F80003003C
F807F80003001E
F007F00000001E
F00FF00000001E
F00FF00000001E
F00FF00000001E
F00FF00000000F
F00FF00000000F
F00FF00000000F
F00FF00000000F
F00FF00000001F
F00FF00000001E
F00FF00000001E
F00FF00000001E
F007F80000001E
F807F80000001E
7807FC0001803C
7803FE0003803C
7C01FF0007007C
3C00FF800F0078
3E007FE03F00F8
1F001FFFFF00F0
1F0007FFFE01F0
0F8000FFF003E0
07C000000007C0
03E00000000FC0
03F00000001F80
01F80000003F00
00FE000000FE00
007F800001FC00
001FE0000FF000
000FFC007FE000
0003FFFFFF8000
0000FFFFFE0000
00003FFFF80000
000003FF800000
ENDCHAR
STARTCHAR 00AA
ENCODING 170
SWIDTH 309 0
DWIDTH 26 0
BBX 25 22 2 21
BITMAP
007F0000
03FFC000
07FFE000
1FFFE000
3E07F000
7E03F000
7E03F000
0003F000
0003F000
0003F000
0003F000
00FFF000
0FFFF000
3FC3F000
7E03F000
FC03F000
FC03F000
FE03F080
FF0FFF80
7FFFFF80
7FFBFE00
1FC1F000
ENDCHAR
STARTCHAR 00AB
ENCODING 171
SWIDTH 523 0
DWIDTH 44 0
BBX 36 31 4 3
BITMAP
0000C00060
0001E000F0
0003C001E0
00078003C0
000F8007C0
001F000F80
007E003F00
00FE007F00
01FC00FE00
03F801FC00
07F003F800
1FF007F800
3FE01FF000
7FC03FE000
FF807FC000
FF807FC000
FF807FC000
3FC01FE000
1FE00FF000
0FE007F000
07F003F800
03F800FC00
00FC007E00
007E003F00
003F001F80
001F000F80
000F8007C0
0007C003E0
0003C001F0
0001E000F0
0000C00060
ENDCHAR
STARTCHAR 00AC
ENCODING 172
SWIDTH 523 0
DWIDTH 44 0
BBX 35 21 4 0
BITMAP
FFFFFFFFE0
FFFFFFFFE0
FFFFFFFFE0
FFFFFFFFE0
0000007FE0
0000007FE0
0000007FE0
0000007FE0
0000007FE0
0000007FE0
0000007FE0
0000007FE0
0000007FE0
0000007FE0
0000007FE0
0000007FE0
0000007FE0
0000007FE0
0000007FE0
0000007FE0
0000007FE0
ENDCHAR
STARTCHAR 00AD
ENCODING 173
SWIDTH 297 0
DWIDTH 25 0
BBX 19 6 3 16
BITMAP
FFFFE0
FFFFE0
FFFFE0
FFFFE0
FFFFE0
FFFFE0
ENDCHAR
STARTCHAR 00AE
ENCODING 174
SWIDTH 750 0
DWIDTH 63 0
BBX 56 55 4 -1
BITMAP
000003FF800000
00003FFFF80000
0000FFFFFE0000
0003FFFFFF8000
000FFC00FFE000
001FE0000FF000
003F800003FC00
00FE000000FE00
01F80000003F00
03F00000001F80
03E00000000FC0
07C000000007C0
0F8003FF0003E0
1F0FFFFFE001F0
1F0FFFFFF000F0
3E01FE0FF800F8
3C00FE03FC0078
7C00FE01FC007C
7800FE01FC003C
7800FE01FE003C
F800FE00FE001E
F000FE00FE001E
F000FE00FC001E
F000FE01FC001E
F000FE01FC001E
F000FE03F8000F
F000FE0FF0000F
F000FFFFE0000F
F000FFFF80000F
F000FFFF80001F
F000FE1FC0001E
F000FE0FC0001E
F000FE0FE0001E
F000FE07E0001E
F800FE07F0001E
7800FE03F8003C
78007E01F8003C
7C007E01FC007C
3C00FE00FE0078
3E01FF007F00F8
1F0FFFE03FC0F0
1F0FFFE00FF1F0
0F80000003E3E0
07C000000007C0
03E00000000FC0
03F00000001F80
01F80000003F00
00FE000000FE00
007F800001FC00
001FE0000FF000
000FFC007FE000
0003FFFFFF8000
0000FFFFFE0000
00003FFFF80000
000003FF800000
ENDCHAR
STARTCHAR 00AF
ENCODING 175
SWIDTH 500 0
DWIDTH 42 0
BBX 25 5 8 44
BITMAP
FFFFFF80
FFFFFF80
FFFFFF80
FFFFFF80
FFFFFF80
ENDCHAR
STARTCHAR 00B0
ENCODING 176
SWIDTH 523 0
DWIDTH 44 0
BBX 23 22 10 32
BITMAP
00FE00
03FFC0
0FFFE0
1FFFF0
3F83F8
3F00FC
7E007C
7C007E
FC003E
F8003E
F8003E
F8003E
F8003E
FC003E
7C007E
7E007C
3F00FC
3F83F8
1FFFF0
0FFFE0
03FFC0
00FE00
ENDCHAR
STARTCHAR 00B1
ENCODING 177
SWIDTH 523 0
DWIDTH 44 0
BBX 35 44 4 1
BITMAP
0001F00000
0001F00000
0001F00000
0001F00000
0001F00000
0001F00000
0001F00000
0001F00000
0001F00000
0001F00000
0001F00000
0001F00000
0001F00000
0001F00000
0001F00000
FFFFFFFFE0
FFFFFFFFE0
FFFFFFFFE0
FFFFFFFFE0
0001F00000
0001F00000
0001F00000
0001F00000
0001F00000
0001F00000
0001F00000
0001F00000
0001F00000
0001F00000
0001F00000
0001F00000
0001F00000
0001F00000
0001F00000
0000000000
0000000000
0000000000
0000000000
0000000000
00000007E0
FFFFFFFFE0
FFFFFFFFE0
FFFFFFFFE0
FFFFFFFFE0
ENDCHAR
STARTCHAR 00B2
ENCODING 178
SWIDTH 357 0
DWIDTH 30 0
BBX 25 33 2 21
BITMAP
003F8000
00FFE000
03FFF800
07FFFC00
0F07FC00
1C03FE00
1C01FE00
3801FE00
3801FE00
0001FE00
0001FE00
0001FE00
0001FC00
0003FC00
0003F800
0007F800
0007F000
000FE000
001FC000
003F8000
003F0000
007E0000
00FC0000
01F80180
03E00380
03C00300
07800700
0F000F00
1FFFFF00
3FFFFE00
7FFFFE00
FFFFFE00
FFFFFC00
ENDCHAR
STARTCHAR 00B3
ENCODING 179
SWIDTH 345 0
DWIDTH 29 0
BBX 24 33 3 21
BITMAP
007F00
01FFC0
07FFE0
0FFFF0
1E1FF0
380FF8
300FF8
1007F0
0007F0
000FE0
000FC0
000F80
001E00
003FC0
00FFF0
03FFFC
07FFFC
0707FE
0003FE
0001FF
0001FF
0000FF
0000FF
0000FE
0000FE
0001FE
7001FC
F801F8
FC03F8
FE0FE0
FFFFC0
3FFF00
0FF800
ENDCHAR
STARTCHAR 00B4
ENCODING 180
SWIDTH 500 0
DWIDTH 42 0
BBX 17 14 16 41
BITMAP
007C00
00FF80
00FF80
01FF00
03FE00
03FC00
07F800
0FE000
1FC000
1F0000
3E0000
780000
F00000
E00000
ENDCHAR
STARTCHAR 00B5
ENCODING 181
SWIDTH 595 0
DWIDTH 50 0
BBX 47 59 2 -23
BITMAP
003C00000F00
03FC003FFF00
1FFC00FFFF00
7FFC00FFFF00
FFFC0007FF00
3FFC0001FF00
0FFC0001FF00
07FC0001FF00
07FC0001FF00
07FC0001FF00
07FC0001FF00
07F80001FF00
07F80001FE00
07F80001FE00
07F80001FE00
07F80001FE00
07F80001FE00
07F80001FE00
07F80001FE00
07F80001FE00
07F80001FE00
07F80001FE00
07FC0001FE00
07FC0001FE00
07FC0001FE00
07FC0001FE00
07FC0001FE00
07FC0001FE00
07FE0001FF00
07FE0001FF00
07FF0007FF00
07FFC03FFFFE
07FFFFFDFFFE
07FFFFE1FFFC
07FFFF81FFE0
07DFFE01FE00
07C7E001E000
07E000000000
07E000000000
07E000000000
07E000000000
07E000000000
07E000000000
07E000000000
0FE000000000
0FF000000000
0FF000000000
0FF000000000
0FF000000000
0FF000000000
0FF000000000
0FF000000000
0FF000000000
0FF000000000
0FF000000000
0FF000000000
0FF000000000
07F000000000
07C000000000
ENDCHAR
STARTCHAR 00B6
ENCODING 182
SWIDTH 702 0
DWIDTH 59 0
BBX 54 79 5 -21
BITMAP
0000000003C000
0000000003C000
0000000003C000
0000000003C000
0000000003C038
0000000003C07C
0000000003C07C
0000000003807C
0000000003807C
000000C00380FC
0000FFFFFFFFF8
0007FFFFFFFFC0
001FFFFFFF8000
007FFFFC038000
00FFFFF0038000
01FFFFF0038000
03FFFFF0038000
07FFFFF0038000
0FFFFFF0038000
1FFFFFF0038000
1FFFFFE0038000
3FFFFFE0038000
3FFFFFE0038000
3FFFFFE0038000
7FFFFFE0038000
7FFFFFE0038000
7FFFFFE0038000
7FFFFFE0038000
FFFFFFE0038000
FFFFFFE0038000
FFFFFFE0038000
FFFFFFE0038000
FFFFFFE0038000
FFFFFFE0038000
7FFFFFE0038000
7FFFFFE0038000
7FFFFFE0038000
7FFFFFE0038000
7FFFFFE0038000
3FFFFFE003C000
3FFFFFE003C000
3FFFFFE003C000
1FFFFFE003C000
1FFFFFE003C000
0FFFFFF003C000
07FFFFF003C000
03FFFFF003C000
01FFFFF003C000
00FFFFF003C000
007FFFF003C000
003FFFFC03C000
000FFFFFFFC000
0001FFFFFFC000
00003FFFFFC000
0000003003C000
0000000003C000
0000000003C000
0000000003C000
0000000003C000
0000000003C000
0000000003C000
0000000003C000
0000000003C000
0000000003C000
0000000003C000
0000000003C000
0000000003C000
0000000003C000
0000000007C000
0000000007C000
000000078FC000
0000000FFF8000
0000001FFF8000
0000001FFF8000
0000001FFF0000
0000001FFF0000
0000001FFE0000
0000000FFC0000
00000003F00000
ENDCHAR
STARTCHAR 00B7
ENCODING 183
SWIDTH 238 0
DWIDTH 20 0
BBX 11 11 5 12
BITMAP
1E00
3F80
7F80
FFC0
FFC0
FFE0
FFC0
FFC0
7F80
3F80
1E00
ENDCHAR
STARTCHAR 00B8
ENCODING 184
SWIDTH 500 0
DWIDTH 42 0
BBX 14 20 16 -19
BITMAP
00F0
00E0
01E0
03C0
0780
0700
0F80
1FE0
1FF0
0FF8
03FC
00FC
007C
003C
7038
FC78
FFF0
FFE0
FFC0
3F00
ENDCHAR
STARTCHAR 00B9
ENCODING 185
SWIDTH 345 0
DWIDTH 29 0
BBX 19 33 6 21
BITMAP
003800
007800
01F800
07F800
1FF800
7FF800
7BF800
01F800
01F800
01F800
01F800
01F800
01F800
01F800
01F800
01F800
01F800
01F800
01F800
01F800
01F800
01F800
01F800
01F800
01F800
01F800
01F800
03F800
03F800
07FC00
FFFFE0
FFFFE0
FFFFE0
ENDCHAR
STARTCHAR 00BA
ENCODING 186
SWIDTH 357 0
DWIDTH 30 0
BBX 25 22 2 21
BITMAP
007F8000
03FFF000
07FFF800
1FC3FC00
3F81FE00
3F00FF00
7F007F00
7E007F80
FE003F80
FE003F80
FE003F80
FE003F80
FE003F80
FF003F80
FF003F00
7F003F00
7F807E00
3FC07E00
1FE0FC00
0FFFF000
07FFE000
00FF0000
ENDCHAR
STARTCHAR 00BB
ENCODING 187
SWIDTH 523 0
DWIDTH 44 0
BBX 35 31 4 3
BITMAP
C000700000
F000780000
F8007C0000
7C003E0000
3E001F0000
3F001F8000
1F800FC000
0FC007E000
0FE003F000
07F003F800
03FC01FE00
01FE00FF00
01FF007F80
00FF807FC0
007FE03FE0
007FE01FE0
007FC03FE0
00FF807FC0
01FF007F00
01FC00FE00
03F801FC00
07F003F800
0FE007F000
0FC007E000
1F800F8000
3F001F0000
7E003E0000
7C003C0000
F800780000
F000700000
C000600000
ENDCHAR
STARTCHAR 00BC
ENCODING 188
SWIDTH 797 0
DWIDTH 67 0
BBX 58 55 6 -1
BITMAP
0038000000000000
00F8000001E00000
01F8000003C00000
07F8000003C00000
1FF8000007800000
7FF8000007800000
7BF800000F000000
01F800000E000000
01F800001E000000
01F800001C000000
01F800003C000000
01F8000038000000
01F8000078000000
01F8000070000000
01F80000E0000000
01F80000E0000000
01F80000C0000000
01F80001C0000000
01F8000180000000
01F8000380000000
01F8000300000000
01F8000700007000
01F800060000F800
01F8000E0001F800
01F8000C0003F800
01F800180007F800
03F80018000FF800
03F80030000FF800
03F80030001FF800
07FC0060003DF800
FFFFE0600079F800
FFFFE0E000F1F800
FFFFE0C001E1F800
000001C001C1F800
0000018003C1F800
000003800781F800
000003000F01F800
000007001E01F800
000006003C01F800
00000E007801F800
00000E007801F800
00000C00F001F800
00001C01FFFFFFC0
00001801FFFFFFC0
00003801FFFFFFC0
00003001FFFFFFC0
000070000001F800
000060000001F800
0000E0000001F800
0000E0000001F800
0001C0000001F800
0001C0000001F800
000380000001F800
000380000001F800
000780000001F800
ENDCHAR
STARTCHAR 00BD
ENCODING 189
SWIDTH 797 0
DWIDTH 67 0
BBX 59 55 5 -1
BITMAP
0030000000000000
00F8000001E00000
01F8000003C00000
07F8000003C00000
1FF8000007800000
7FF8000007800000
7BF800000F000000
03F800000F000000
01F800001E000000
01F800001C000000
01F800001C000000
01F8000038000000
01F8000038000000
01F8000070000000
01F8000070000000
01F80000E0000000
01F80000C0000000
01F80001C0000000
01F8000180000000
01F8000380000000
01F8000300000000
01F8000700000000
01F80006001FE000
03F8000E007FF800
03F8000C01FFFC00
03F8001C03FFFE00
03F800180783FF00
03F800300E01FF00
03F800300E00FF00
07FC00700C00FF80
FFFFC06004007F80
FFFFE0E000007F80
FFFFE0C00000FF00
000001C00000FF00
000001800000FF00
000003800000FE00
000003000001FE00
000007000001FC00
000006000003F800
000006000007F800
00000E000007F000
00000C00000FE000
00001C00001FC000
00001800003F8000
00003800003F0060
00003000007C00E0
0000700000F800C0
0000600001F000C0
0000E00003E001C0
0000E00003C003C0
0001C00007FFFFC0
0001C0000FFFFF80
000380001FFFFF80
000380003FFFFF80
000780003FFFFF00
ENDCHAR
STARTCHAR 00BE
ENCODING 190
SWIDTH 797 0
DWIDTH 67 0
BBX 61 55 4 -1
BITMAP
003F800000000000
00FFE000001C0000
03FFF00000380000
07FFF80000380000
0E0FF80000700000
1C07FC0000700000
1807FC0000600000
0803F80000E00000
0003F80000C00000
0007F00001C00000
0007E00001800000
000F800003800000
001E000003000000
003FC00007000000
00FFF00006000000
03FFF8000E000000
07FFFC000C000000
0707FE001C000000
0003FE0018000000
0001FE0038000000
0001FF0030000000
0001FF0070000C00
0000FF0060001F00
0000FE0060003F00
0000FE00C0007F00
0001FE00C000FF00
7001FC01C001FF00
F801F8018003FF00
FC03F8038003FF00
FE0FE0030007BF00
FFFFC007000F3F00
3FFF0006001E3F00
0FF8000E003C3F00
0000000C00783F00
0000001C00783F00
0000001800F03F00
0000003801E03F00
0000003003C03F00
0000007007803F00
000000600F003F00
000000E00E003F00
000000E01E003F00
000001C03FFFFFF8
000003C03FFFFFF0
000003803FFFFFF0
000007803FFFFFF0
0000070000003F00
00000F0000003F00
00000E0000003F00
00001E0000003F00
00001C0000003F00
00003C0000003F00
00003C0000003F00
0000780000003F00
0000F80000003F00
ENDCHAR
STARTCHAR 00BF
ENCODING 191
SWIDTH 404 0
DWIDTH 34 0
BBX 27 55 3 -19
BITMAP
0000F000
0001FC00
0003FE00
0007FE00
0007FF00
0007FF00
0007FF00
0007FE00
0003FE00
0001FC00
0000F000
00000000
00000000
00000000
00001800
00003800
00003800
00001C00
00001C00
00003C00
00003C00
00007C00
0001FC00
0007FE00
001FFE00
007FFE00
01FFFC00
07FFFC00
1FFFF000
3FFFE000
7FFF8000
7FFE0000
FFF80000
FFE00000
FF800000
FF000000
FE000000
FC000000
FC000000
7C000000
7C000000
7C000000
3C000000
3C000000
1E000000
0F000000
0F800780
07E03FC0
03FFFFC0
01FFFFE0
00FFFFE0
007FFFE0
003FFFC0
000FFF80
0001FE00
ENDCHAR
STARTCHAR 00C0
ENCODING 192
SWIDTH 666 0
DWIDTH 56 0
BBX 56 73 0 -1
BITMAP
00003C00000000
0001FE00000000
0003FF80000000
0001FF80000000
0000FFE0000000
00003FF0000000
00000FF8000000
000003FC000000
000000FE000000
0000003F000000
0000001F800000
00000007C00000
00000000E00000
00000000000000
00000000000000
00000000000000
00000000000000
00000000000000
0000000F000000
0000003F800000
0000007F800000
0000007F800000
0000007F800000
000000FFC00000
000000FFC00000
000001FFE00000
000001FFE00000
000001FFE00000
000003FFF00000
000003CFF00000
000007CFF00000
0000078FF80000
00000787F80000
00000F07F80000
00000F03FC0000
00001E03FC0000
00001E03FE0000
00003C01FE0000
00003C01FE0000
00007801FF0000
00007800FF0000
00007800FF0000
0000F0007F8000
0000F0007F8000
0001E0007FC000
0001E0003FC000
0003C0003FC000
0003C0001FE000
000780001FE000
0007FFFFFFF000
0007FFFFFFF000
000FFFFFFFF000
000FFFFFFFF800
001F00000FF800
001E00000FFC00
003E000007FC00
003E000007FC00
007C000007FE00
007C000003FE00
007C000003FF00
00F8000003FF00
00F8000001FF00
01F8000001FF80
01F0000001FF80
03F0000000FFC0
03F0000000FFC0
07F0000000FFE0
07F0000000FFE0
0FF0000000FFF0
1FFC000003FFF8
7FFFC0001FFFFF
FFFFC0003FFFFF
FFFFC0001FFFFF
ENDCHAR
STARTCHAR 00C1
ENCODING 193
SWIDTH 666 0
DWIDTH 56 0
BBX 56 73 0 -1
BITMAP
000000000F0000
000000001FE000
000000003FF000
000000007FE000
00000000FFC000
00000001FF0000
00000003FC0000
00000007F80000
0000000FE00000
0000001F800000
0000003E000000
00000078000000
000000E0000000
00000000000000
00000000000000
00000000000000
00000000000000
00000000000000
0000000F000000
0000003F800000
0000007F800000
0000007F800000
0000007F800000
000000FFC00000
000000FFC00000
000001FFE00000
000001FFE00000
000001FFE00000
000003FFF00000
000003CFF00000
000007CFF00000
0000078FF80000
00000787F80000
00000F07F80000
00000F03FC0000
00001E03FC0000
00001E03FE0000
00003C01FE0000
00003C01FE0000
00007801FF0000
00007800FF0000
00007800FF0000
0000F0007F8000
0000F0007F8000
0001E0007FC000
0001E0003FC000
0003C0003FC000
0003C0001FE000
000780001FE000
0007FFFFFFF000
0007FFFFFFF000
000FFFFFFFF000
000FFFFFFFF800
001F00000FF800
001E00000FFC00
003E000007FC00
003E000007FC00
007C000007FE00
007C000003FE00
007C000003FF00
00F8000003FF00
00F8000001FF00
01F8000001FF80
01F0000001FF80
03F0000000FFC0
03F0000000FFC0
07F0000000FFE0
07F0000000FFE0
0FF0000000FFF0
1FFC000001FFF8
7FFFC0001FFFFF
FFFFC0001FFFFF
FFFFC0001FFFFF
ENDCHAR
STARTCHAR 00C2
ENCODING 194
SWIDTH 666 0
DWIDTH 56 0
BBX 56 75 0 -1
BITMAP
0000001C000000
0000003E000000
0000007F000000
000000FF800000
000001FFC00000
000001FFE00000
000003FFE00000
000007FFF00000
00000FE3F80000
00001FC0FC0000
00003F007E0000
00007E003F0000
0000F8000F8000
0001F00007C000
0001E00001C000
00008000000000
00000000000000
00000000000000
00000000000000
00000000000000
0000000F000000
0000003F800000
0000007F800000
0000007F800000
0000007F800000
000000FFC00000
000000FFC00000
000001FFE00000
000001FFE00000
000001FFE00000
000003FFF00000
000003CFF00000
000007CFF00000
0000078FF80000
00000787F80000
00000F07F80000
00000F03FC0000
00001E03FC0000
00001E03FE0000
00003C01FE0000
00003C01FE0000
00007801FF0000
00007800FF0000
00007800FF0000
0000F0007F8000
0000F0007F8000
0001E0007FC000
0001E0003FC000
0003C0003FC000
0003C0001FE000
000780001FE000
0007FFFFFFF000
0007FFFFFFF000
000FFFFFFFF000
000FFFFFFFF800
001F00000FF800
001E00000FFC00
003E000007FC00
003E000007FC00
007C000007FE00
007C000003FE00
007C000003FF00
00F8000003FF00
00F8000001FF00
01F8000001FF80
01F0000001FF80
03F0000000FFC0
03F0000000FFC0
07F0000000FFE0
07F0000000FFE0
0FF0000000FFF0
1FFC000001FFF8
7FFFC0001FFFFF
FFFFC0001FFFFF
FFFFC0001FFFFF
ENDCHAR
STARTCHAR 00C3
ENCODING 195
SWIDTH 666 0
DWIDTH 56 0
BBX 56 71 0 -1
BITMAP
000007C0001000
00001FF8003800
00003FFF007800
00007FFFC0F000
0000FFFFFFE000
0001FFFFFFE000
0003C0FFFFC000
0003801FFF8000
00030007FF0000
00000000FC0000
00000000000000
00000000000000
00000000000000
00000000000000
00000000000000
00000000000000
0000000F000000
0000003F800000
0000007F800000
0000007F800000
0000007F800000
000000FFC00000
000000FFC00000
000001FFE00000
000001FFE00000
000001FFE00000
000003FFF00000
000003CFF00000
000007CFF00000
0000078FF80000
00000787F80000
00000F07F80000
00000F03FC0000
00001E03FC0000
00001E03FE0000
00003C01FE0000
00003C01FE0000
00007801FF0000
00007800FF0000
00007800FF0000
0000F0007F8000
0000F0007F8000
0001E0007FC000
0001E0003FC000
0003C0003FC000
0003C0001FE000
000780001FE000
0007FFFFFFF000
0007FFFFFFF000
000FFFFFFFF000
000FFFFFFFF800
001F00000FF800
001E00000FFC00
003E000007FC00
003E000007FC00
007C000007FE00
007C000003FE00
007C000003FF00
00F8000003FF00
00F8000001FF00
01F8000001FF80
01F0000001FF80
03F0000000FFC0
03F0000000FFC0
07F0000000FFE0
07F0000000FFE0
0FF0000000FFF0
1FFC000001FFF8
7FFFC0001FFFFF
FFFFC0001FFFFF
FFFFC0001FFFFF
ENDCHAR
STARTCHAR 00C4
ENCODING 196
SWIDTH 666 0
DWIDTH 56 0
BBX 56 70 0 -1
BITMAP
00003C001E0000
0000FE007F0000
0000FF007F8000
0001FF00FF8000
0001FF00FF8000
0001FF00FF8000
0000FF007F8000
0000FE007F0000
000038001C0000
00000000000000
00000000000000
00000000000000
00000000000000
00000000000000
00000000000000
0000000F000000
0000003F800000
0000007F800000
0000007F800000
0000007F800000
000000FFC00000
000000FFC00000
000001FFE00000
000001FFE00000
000001FFE00000
000003FFF00000
000003CFF00000
000007CFF00000
0000078FF80000
00000787F80000
00000F07F80000
00000F03FC0000
00001E03FC0000
00001E03FE0000
00003C01FE0000
00003C01FE0000
00007801FF0000
00007800FF0000
00007800FF0000
0000F0007F8000
0000F0007F8000
0001E0007FC000
0001E0003FC000
0003C0003FC000
0003C0001FE000
000780001FE000
0007FFFFFFF000
0007FFFFFFF000
000FFFFFFFF000
000FFFFFFFF800
001F00000FF800
001E00000FFC00
003E000007FC00
003E000007FC00
007C000007FE00
007C000003FE00
007C000003FF00
00F8000003FF00
00F8000001FF00
01F8000001FF80
01F0000001FF80
03F0000000FFC0
03F0000000FFC0
07F0000000FFE0
07F0000000FFE0
0FF0000000FFF0
1FFC000001FFF8
7FFFC0001FFFFF
FFFFC0001FFFFF
FFFFC0001FFFFF
ENDCHAR
STARTCHAR 00C5
ENCODING 197
SWIDTH 666 0
DWIDTH 56 0
BBX 56 74 0 -1
BITMAP
0000007F000000
000001FFC00000
000003FFF00000
000007C1F80000
00000F80F80000
00001F807C0000
00001F007C0000
00001F007C0000
00001F007C0000
00001F007C0000
00001F807C0000
00000F80F80000
000007C1F80000
000007FFF00000
000001FFC00000
0000007F000000
00000000000000
00000000000000
00000000000000
0000000F000000
0000003F800000
0000007F800000
0000007F800000
0000007F800000
000000FFC00000
000000FFC00000
000001FFE00000
000001FFE00000
000001FFE00000
000003FFF00000
000003CFF00000
000007CFF00000
0000078FF80000
00000787F80000
00000F07F80000
00000F03FC0000
00001E03FC0000
00001E03FE0000
00003C01FE0000
00003C01FE0000
00007801FF0000
00007800FF0000
00007800FF0000
0000F0007F8000
0000F0007F8000
0001E0007FC000
0001E0003FC000
0003C0003FC000
0003C0001FE000
000780001FE000
0007FFFFFFF000
0007FFFFFFF000
000FFFFFFFF000
000FFFFFFFF800
001F00000FF800
001E00000FFC00
003E000007FC00
003E000007FC00
007C000007FE00
007C000003FE00
007C000003FF00
00F8000003FF00
00F8000001FF00
01F8000001FF80
01F0000001FF80
03F0000000FFC0
03F0000000FFC0
07F0000000FFE0
07F0000000FFE0
0FF0000000FFF0
1FFC000001FFF8
7FFFC0001FFFFF
FFFFC0001FFFFF
FFFFC0001FFFFF
ENDCHAR
STARTCHAR 00C6
ENCODING 198
SWIDTH 976 0
DWIDTH 82 0
BBX 78 55 1 -1
BITMAP
00000000F8000001FFF8
00000000FFFFFFFFFFF8
00000000FFFFFFFFFFF8
00000000FFFFFFFFFFF0
000000001FFFC0001FF0
000000000FFF800003F0
000000000EFF800001F0
000000001EFF800000F0
000000003CFF800000F0
0000000038FF80000070
0000000078FF80000070
00000000F0FF80000070
00000000E0FF80000070
00000001C0FF80000000
00000003C0FF80000000
0000000380FF80000000
0000000700FF80000000
0000000F00FF80000000
0000000E00FF80000600
0000001C00FF80000700
0000003C00FF80000700
0000007800FF80000E00
0000007000FF80000E00
000000F000FF80001E00
000001E000FFF7FFFE00
000001C000FFFFFFFE00
000003C000FFFFFFFE00
0000078000FFFFFFFE00
0000070000FF8000FE00
00000FFFFFFF80001E00
00001FFFFFFF80000E00
00003FFFFFFF80000E00
00003FFFFFFF80000E00
0000780000FF80000600
0000F80000FF80000600
0001F00000FF80000600
0001F00000FF80000000
0003E00000FF80000000
0007C00000FF80000000
0007C00000FF8000000C
000F800000FF8000001C
001F000000FF8000001C
003F000000FF8000003C
003E000000FF8000003C
007C000000FF8000007C
00FC000000FF8000007C
01F8000001FF800000F8
01F8000001FF800001F8
03F8000001FFC00007F8
07F8000001FFF0007FF8
0FFC000003FFFFFFFFF0
1FFFE00007FFFFFFFFF0
7FFFE0007FFFFFFFFFF0
FFFFE0007FFFFFFFFFF0
FF0060007FE00001FFE0
ENDCHAR
STARTCHAR 00C7
ENCODING 199
SWIDTH 678 0
DWIDTH 57 0
BBX 50 74 4 -20
BITMAP
0000007FFE01C0
00000FFFFFFFC0
00007FFFFFFF80
0001FFFFFFFF80
0007FF800FFF80
001FFC0000FF80
003FF000003F80
007FC000001F80
00FF8000001F80
01FF0000000F00
03FE0000000F00
07FC0000000F00
0FFC0000000700
0FF80000000700
1FF80000000700
1FF00000000700
3FF00000000000
3FE00000000000
7FE00000000000
7FE00000000000
7FE00000000000
7FC00000000000
7FC00000000000
FFC00000000000
FFC00000000000
FFC00000000000
FFC00000000000
FFC00000000000
FFC00000000000
FFC00000000000
FFC00000000000
FFC00000000000
FFE00000000000
7FE00000000000
7FE00000000000
7FE00000000000
7FE00000000000
7FF00000000000
3FF00000000000
3FF80000000000
1FF80000000000
1FFC0000000000
0FFC00000001C0
0FFE0000000380
07FF0000000780
03FF8000000780
01FFC000000F00
00FFE000003F00
007FF800007F00
003FFE0001FF00
000FFFC00FFE00
0003FFFFFFFE00
0000FFFFFFFE00
00001FFFFFF000
000001FFFC0000
00000007000000
0000000E000000
0000001C000000
0000003C000000
0000003E000000
0000007F800000
000000FFC00000
0000007FE00000
0000003FF00000
0000000FF00000
00000007F00000
00000003F00000
00000001F00000
00000381E00000
000007E1E00000
000007FFC00000
000007FF800000
000003FE000000
000001F8000000
ENDCHAR
STARTCHAR 00C8
ENCODING 200
SWIDTH 595 0
DWIDTH 50 0
BBX 45 73 3 -1
BITMAP
000F00000000
007FC0000000
00FFE0000000
007FF0000000
003FF0000000
000FFC000000
0003FE000000
0000FF000000
00003F800000
00000FC00000
000007E00000
000001F00000
000000780000
000000000000
000000000000
000000000000
000000000000
000000000000
7F000003FFE0
7FFFFFFFFFE0
7FFFFFFFFFE0
7FFFFFFFFFE0
07FF80007FC0
03FF000007C0
03FF000003C0
01FF000003C0
01FF000003C0
01FF000001C0
01FF000001C0
01FF000001C0
01FF000001C0
01FF00000000
01FF00000000
01FF00000000
01FF00000000
01FF00000000
01FF00001C00
01FF00001C00
01FF00001C00
01FF00001C00
01FF00003C00
01FF00007C00
01FFEFFFFC00
01FFFFFFFC00
01FFFFFFF800
01FFFFFFF800
01FF0003F800
01FF00007800
01FF00003C00
01FF00003C00
01FF00001C00
01FF00001C00
01FF00001C00
01FF00001C00
01FF00000000
01FF00000000
01FF00000000
01FF00000030
01FF00000038
01FF00000078
01FF00000070
01FF000000F0
01FF000000F0
01FF000001F0
01FF000003F0
01FF000007E0
01FF80000FE0
01FFC0007FE0
03FFFFFFFFE0
0FFFFFFFFFC0
FFFFFFFFFFC0
FFFFFFFFFFC0
FFC00003FF80
ENDCHAR
STARTCHAR 00C9
ENCODING 201
SWIDTH 595 0
DWIDTH 50 0
BBX 45 73 3 -1
BITMAP
00000003C000
00000007F800
0000000FFC00
0000001FF800
0000003FF000
0000007FC000
000000FF0000
000001FC0000
000003F80000
000007E00000
00000F800000
00001E000000
000038000000
000000000000
000000000000
000000000000
000000000000
000000000000
7F000003FFE0
7FFFFFFFFFE0
7FFFFFFFFFE0
7FFFFFFFFFE0
07FF80007FC0
03FF000007C0
03FF000003C0
01FF000003C0
01FF000003C0
01FF000001C0
01FF000001C0
01FF000001C0
01FF000001C0
01FF00000000
01FF00000000
01FF00000000
01FF00000000
01FF00000000
01FF00001C00
01FF00001C00
01FF00001C00
01FF00001C00
01FF00003C00
01FF00007C00
01FFEFFFFC00
01FFFFFFFC00
01FFFFFFF800
01FFFFFFF800
01FF0003F800
01FF00007800
01FF00003C00
01FF00003C00
01FF00001C00
01FF00001C00
01FF00001C00
01FF00001C00
01FF00000000
01FF00000000
01FF00000000
01FF00000030
01FF00000038
01FF00000078
01FF00000070
01FF000000F0
01FF000000F0
01FF000001F0
01FF000003F0
01FF000007E0
01FF80000FE0
01FFC0007FE0
03FFFFFFFFE0
0FFFFFFFFFC0
FFFFFFFFFFC0
FFFFFFFFFFC0
FFC00003FF80
ENDCHAR
STARTCHAR 00CA
ENCODING 202
SWIDTH 595 0
DWIDTH 50 0
BBX 45 75 3 -1
BITMAP
000003000000
00000FC00000
00001FC00000
00001FE00000
00003FF00000
00007FF80000
0000FFFC0000
0001FFFE0000
0003F8FF0000
0007F03F0000
000FE01F8000
001F8007C000
001F0003E000
003C0000F000
007800007000
002000000000
000000000000
000000000000
000000000000
000000000000
7F000003FFE0
7FFFFFFFFFE0
7FFFFFFFFFE0
7FFFFFFFFFE0
07FF80007FC0
03FF000007C0
03FF000003C0
01FF000003C0
01FF000003C0
01FF000001C0
01FF000001C0
01FF000001C0
01FF000001C0
01FF00000000
01FF00000000
01FF00000000
01FF00000000
01FF00000000
01FF00001C00
01FF00001C00
01FF00001C00
01FF00001C00
01FF00003C00
01FF00007C00
01FFEFFFFC00
01FFFFFFFC00
01FFFFFFF800
01FFFFFFF800
01FF0003F800
01FF00007800
01FF00003C00
01FF00003C00
01FF00001C00
01FF00001C00
01FF00001C00
01FF00001C00
01FF00000000
01FF00000000
01FF00000000
01FF00000030
01FF00000038
01FF00000078
01FF00000070
01FF000000F0
01FF000000F0
01FF000001F0
01FF000003F0
01FF000007E0
01FF80000FE0
01FFC0007FE0
03FFFFFFFFE0
0FFFFFFFFFC0
FFFFFFFFFFC0
FFFFFFFFFFC0
FFC00003FF80
ENDCHAR
STARTCHAR 00CB
ENCODING 203
SWIDTH 595 0
DWIDTH 50 0
BBX 45 70 3 -1
BITMAP
000E00038000
003F800FE000
003F800FE000
007FC01FF000
007FC01FF000
007FC01FF000
003FC00FF000
003F800FE000
000E00038000
000000000000
000000000000
000000000000
000000000000
000000000000
000000000000
7F000003FFE0
7FFFFFFFFFE0
7FFFFFFFFFE0
7FFFFFFFFFE0
07FF80007FC0
03FF000007C0
03FF000003C0
01FF000003C0
01FF000003C0
01FF000001C0
01FF000001C0
01FF000001C0
01FF000001C0
01FF00000000
01FF00000000
01FF00000000
01FF00000000
01FF00000000
01FF00001C00
01FF00001C00
01FF00001C00
01FF00001C00
01FF00003C00
01FF00007C00
01FFEFFFFC00
01FFFFFFFC00
01FFFFFFF800
01FFFFFFF800
01FF0003F800
01FF00007800
01FF00003C00
01FF00003C00
01FF00001C00
01FF00001C00
01FF00001C00
01FF00001C00
01FF00000000
01FF00000000
01FF00000000
01FF00000030
01FF00000038
01FF00000078
01FF00000070
01FF000000F0
01FF000000F0
01FF000001F0
01FF000003F0
01FF000007E0
01FF80000FE0
01FFC0007FE0
03FFFFFFFFE0
0FFFFFFFFFC0
FFFFFFFFFFC0
FFFFFFFFFFC0
FFC00003FF80
ENDCHAR
STARTCHAR 00CC
ENCODING 204
SWIDTH 357 0
DWIDTH 30 0
BBX 26 73 2 -1
BITMAP
0F000000
7FC00000
7FE00000
7FF00000
1FF80000
0FFC0000
03FE0000
00FF0000
003F8000
000FC000
0007E000
0001F000
00007000
00000000
00000000
00000000
00000000
00000000
7FFFFFC0
7FFFFFC0
7FFFFFC0
03FFF800
01FFE000
00FFE000
00FFC000
00FFC000
00FFC000
007FC000
007FC000
007FC000
007F8000
007F8000
007F8000
007F8000
007F8000
007F8000
007F8000
007F8000
007F8000
007F8000
007F8000
007F8000
007F8000
007F8000
007F8000
007F8000
007F8000
007F8000
007F8000
007F8000
007F8000
007F8000
007F8000
00FF8000
00FF8000
00FF8000
00FF8000
00FF8000
00FF8000
00FF8000
00FF8000
00FF8000
00FF8000
00FF8000
00FF8000
00FFC000
00FFC000
01FFC000
03FFE000
0FFFF000
FFFFFFC0
FFFFFFC0
FFFFFFC0
ENDCHAR
STARTCHAR 00CD
ENCODING 205
SWIDTH 345 0
DWIDTH 29 0
BBX 26 73 2 -1
BITMAP
00001E00
00007FC0
0000FFC0
0001FFC0
0003FF00
0007FE00
000FF800
001FE000
003F8000
007E0000
00FC0000
01F00000
03800000
00000000
00000000
00000000
00000000
00000000
7FFFFFC0
7FFFFFC0
7FFFFFC0
03FFF800
01FFE000
00FFC000
00FFC000
00FFC000
00FFC000
007FC000
007F8000
007F8000
007F8000
007F8000
007F8000
007F8000
007F8000
007F8000
007F8000
007F8000
007F8000
007F8000
007F8000
007F8000
007F8000
007F8000
007F8000
007F8000
007F8000
007F8000
007F8000
007F8000
007F8000
007F8000
007F8000
00FF8000
00FF8000
00FF8000
00FF8000
00FF8000
00FF8000
00FF8000
00FF8000
00FF8000
00FF8000
00FF8000
00FF8000
00FFC000
00FFC000
01FFC000
03FFE000
0FFFF000
FFFFFFC0
FFFFFFC0
FFFFFFC0
ENDCHAR
STARTCHAR 00CE
ENCODING 206
SWIDTH 345 0
DWIDTH 29 0
BBX 27 75 1 -1
BITMAP
000E0000
001F8000
003F8000
003FC000
007FE000
00FFF000
01FFF800
03FFFC00
07F1FC00
0FE07E00
1FC03F00
3F000F80
7E0007C0
780001E0
F00000E0
40000000
00000000
00000000
00000000
00000000
7FFFFFC0
7FFFFFC0
7FFFFFC0
03FFF800
00FFF000
00FFE000
007FE000
007FE000
007FE000
007FC000
007FC000
007FC000
007FC000
007FC000
007FC000
007FC000
007FC000
007FC000
007FC000
007FC000
007FC000
007FC000
007FC000
007FC000
007FC000
007FC000
007FC000
007FC000
007FC000
007FC000
007FC000
007FC000
007FC000
007FC000
007FC000
007FC000
007FC000
007FC000
007FC000
007FC000
007FC000
007FC000
007FC000
007FC000
007FC000
007FC000
00FFC000
00FFC000
00FFC000
01FFE000
01FFE000
07FFF800
FFFFFFC0
FFFFFFC0
FFFFFFC0
ENDCHAR
STARTCHAR 00CF
ENCODING 207
SWIDTH 357 0
DWIDTH 30 0
BBX 26 70 2 -1
BITMAP
3C001E00
7E003F00
FF007F80
FF807FC0
FF807FC0
FF807FC0
FF007F80
7E003F00
3C001E00
00000000
00000000
00000000
00000000
00000000
00000000
FFFFFFC0
FFFFFFC0
FFFFFFC0
07FFF800
01FFE000
00FFE000
00FFC000
00FFC000
00FFC000
007FC000
007FC000
007FC000
007F8000
007F8000
007F8000
007F8000
007F8000
007F8000
007F8000
007F8000
007F8000
007F8000
007F8000
007F8000
007F8000
007F8000
007F8000
007F8000
007F8000
007F8000
007F8000
007F8000
007F8000
007F8000
007F8000
00FF8000
00FF8000
00FF8000
00FF8000
00FF8000
00FF8000
00FF8000
00FF8000
00FF8000
00FF8000
00FF8000
00FF8000
00FFC000
00FFC000
01FFC000
03FFE000
0FFFF000
FFFFFFC0
FFFFFFC0
FFFFFFC0
ENDCHAR
STARTCHAR 00D0
ENCODING 208
SWIDTH 773 0
DWIDTH 65 0
BBX 58 55 3 -1
BITMAP
FFFFFFFFE0000000
FFFFFFFFFE000000
FFFFFFFFFFC00000
07FFFFFFFFF80000
03FFF001FFFC0000
03FF80000FFF0000
03FF800003FF8000
03FF000000FFC000
01FF0000007FE000
01FF0000003FF000
01FF0000001FF800
01FF0000000FFC00
01FF00000007FC00
01FF00000007FE00
01FF00000003FE00
01FF00000003FF00
01FF00000001FF00
01FF00000001FF80
01FF00000000FF80
01FF00000000FF80
01FF00000000FF80
01FF00000000FF80
01FF00000000FFC0
01FF000000007FC0
01FF000000007FC0
FFFFFFFF00007FC0
FFFFFFFF00007FC0
FFFFFFFF00007FC0
FFFFFFFF00007FC0
01FF000000007FC0
01FF000000007FC0
01FF00000000FF80
01FF00000000FF80
01FF00000000FF80
01FF00000000FF80
01FF00000000FF00
01FF00000001FF00
01FF00000001FF00
01FF00000003FE00
01FF00000003FE00
01FF00000007FC00
01FF00000007FC00
01FF0000000FF800
01FF0000001FF000
01FF0000003FF000
01FF0000007FE000
03FF000000FFC000
03FF000001FF8000
03FF800007FF0000
03FFC0001FFC0000
07FFF001FFF80000
0FFFFFFFFFE00000
7FFFFFFFFF800000
FFFFFFFFFC000000
FE003FFF80000000
ENDCHAR
STARTCHAR 00D1
ENCODING 209
SWIDTH 773 0
DWIDTH 65 0
BBX 64 71 1 -1
BITMAP
0000007C00010000
000001FF80038000
000007FFE0070000
00000FFFFC1F0000
00000FFFFFFE0000
00001FFFFFFC0000
00003C0FFFF80000
00007801FFF00000
000070007FE00000
000000000F800000
0000000000000000
0000000000000000
0000000000000000
0000000000000000
0000000000000000
0000000000000000
780F0000003E003F
7FFF8000003FFFFF
7FFFC000003FFFFF
07FFC000003FFFFF
01FFE0000001FFF0
00FFF00000007FC0
00FFF80000003F80
007FFC0000003F80
007FFE0000001F80
007FFF0000001F00
007FFF8000001F00
007FFF8000001F00
007FFFC000001F00
007DFFE000001F00
007CFFF000001F00
007C7FF800001F00
007C3FFC00001F00
007C1FFE00001F00
007C0FFF00001F00
007C0FFF80001F00
007C07FFC0001E00
007C03FFE0001E00
007C01FFF0001E00
007C00FFF8001E00
007C007FFC001E00
007C003FFC001E00
007C001FFE001E00
007C000FFF001E00
007C0007FF801E00
007C0003FFC01E00
007C0001FFE01E00
007C0000FFF01E00
007C0000FFF81E00
007C00007FFC1E00
007C00003FFE1E00
007C00001FFF1E00
007C00000FFF9E00
007C000007FFDE00
007C000003FFDE00
007C000001FFFE00
007C000000FFFE00
007C0000007FFE00
007C0000003FFE00
007C0000001FFE00
007C0000000FFE00
007C0000000FFE00
00FC00000007FE00
00FE00000003FE00
00FE00000001FE00
01FE00000000FE00
03FF000000007E00
07FFC00000003E00
FFFFFE0000003E00
FFFFFE0000001E00
E000FE0000000C00
ENDCHAR
STARTCHAR 00D2
ENCODING 210
SWIDTH 797 0
DWIDTH 67 0
BBX 59 73 4 -1
BITMAP
00000F0000000000
00007FC000000000
0000FFE000000000
00007FF000000000
00003FF800000000
00000FFC00000000
000003FE00000000
000000FF00000000
0000003F80000000
0000001FC0000000
00000007E0000000
00000001F0000000
0000000078000000
0000000000000000
0000000000000000
0000000000000000
0000000000000000
0000000000000000
000000FFF8000000
00000FFFFF800000
00007FFFFFE00000
0001FFFFFFF80000
0007FE007FFE0000
000FF0000FFF8000
003FC00003FFC000
007F800000FFE000
00FE0000007FF000
01FE0000003FF800
03FC0000001FFC00
07F80000000FFC00
0FF000000007FE00
0FF000000003FF00
1FE000000003FF00
1FE000000001FF80
3FC000000001FF80
3FC000000000FFC0
7FC000000000FFC0
7FC0000000007FC0
7FC0000000007FC0
7F80000000007FE0
FF80000000007FE0
FF80000000003FE0
FF80000000003FE0
FF80000000003FE0
FF80000000003FE0
FF80000000003FE0
FF80000000003FE0
FF80000000003FE0
FF80000000003FE0
FFC0000000003FE0
FFC0000000003FE0
7FC0000000003FC0
7FC0000000003FC0
7FE0000000003FC0
7FE0000000007FC0
3FE0000000007F80
3FF0000000007F80
3FF000000000FF00
1FF800000000FF00
1FF800000000FE00
0FFC00000001FE00
07FE00000003FC00
07FF00000003F800
03FF80000007F000
01FFC000000FE000
00FFE000001FC000
007FF800007F8000
003FFE0001FF0000
000FFFC00FFC0000
0003FFFFFFF00000
0000FFFFFFC00000
00003FFFFE000000
000003FFE0000000
ENDCHAR
STARTCHAR 00D3
ENCODING 211
SWIDTH 797 0
DWIDTH 67 0
BBX 59 73 4 -1
BITMAP
000000001E000000
000000003FC00000
000000007FE00000
00000000FFC00000
00000001FF800000
00000003FE000000
00000007FC000000
0000000FF0000000
0000001FC0000000
0000003F00000000
0000007C00000000
000000F000000000
000001C000000000
0000000000000000
0000000000000000
0000000000000000
0000000000000000
0000000000000000
000000FFF8000000
00000FFFFF800000
00007FFFFFE00000
0001FFFFFFF80000
0007FE007FFE0000
000FF0000FFF8000
003FC00003FFC000
007F800000FFE000
00FE0000007FF000
01FE0000003FF800
03FC0000001FFC00
07F80000000FFC00
0FF000000007FE00
0FF000000003FF00
1FE000000003FF00
1FE000000001FF80
3FC000000001FF80
3FC000000000FFC0
7FC000000000FFC0
7FC0000000007FC0
7FC0000000007FC0
7F80000000007FE0
FF80000000007FE0
FF80000000003FE0
FF80000000003FE0
FF80000000003FE0
FF80000000003FE0
FF80000000003FE0
FF80000000003FE0
FF80000000003FE0
FF80000000003FE0
FFC0000000003FE0
FFC0000000003FE0
7FC0000000003FC0
7FC0000000003FC0
7FE0000000003FC0
7FE0000000007FC0
3FE0000000007F80
3FF0000000007F80
3FF000000000FF00
1FF800000000FF00
1FF800000000FE00
0FFC00000001FE00
07FE00000003FC00
07FF00000003F800
03FF80000007F000
01FFC000000FE000
00FFE000001FC000
007FF800007F8000
003FFE0001FF0000
000FFFC00FFC0000
0003FFFFFFF00000
0000FFFFFFC00000
00003FFFFE000000
000003FFE0000000
ENDCHAR
STARTCHAR 00D4
ENCODING 212
SWIDTH 797 0
DWIDTH 67 0
BBX 59 75 4 -1
BITMAP
0000000E00000000
0000001F00000000
0000003F80000000
0000007FC0000000
000000FFE0000000
000000FFE0000000
000001FFF0000000
000003FFF8000000
000007F1FC000000
00000FE0FE000000
00001F803F000000
00003F001F800000
00007C0007C00000
0000F80003E00000
0000E00000E00000
0000400000000000
0000000000000000
0000000000000000
0000000000000000
0000000000000000
000000FFF8000000
00000FFFFF800000
00007FFFFFE00000
0001FFFFFFF80000
0007FE007FFE0000
000FF0000FFF8000
003FC00003FFC000
007F800000FFE000
00FE0000007FF000
01FE0000003FF800
03FC0000001FFC00
07F80000000FFC00
0FF000000007FE00
0FF000000003FF00
1FE000000003FF00
1FE000000001FF80
3FC000000001FF80
3FC000000000FFC0
7FC000000000FFC0
7FC0000000007FC0
7FC0000000007FC0
7F80000000007FE0
FF80000000007FE0
FF80000000003FE0
FF80000000003FE0
FF80000000003FE0
FF80000000003FE0
FF80000000003FE0
FF80000000003FE0
FF80000000003FE0
FF80000000003FE0
FFC0000000003FE0
FFC0000000003FE0
7FC0000000003FC0
7FC0000000003FC0
7FE0000000003FC0
7FE0000000007FC0
3FE0000000007F80
3FF0000000007F80
3FF000000000FF00
1FF800000000FF00
1FF800000000FE00
0FFC00000001FE00
07FE00000003FC00
07FF00000003F800
03FF80000007F000
01FFC000000FE000
00FFE000001FC000
007FF800007F8000
003FFE0001FF0000
000FFFC00FFC0000
0003FFFFFFF00000
0000FFFFFFC00000
00003FFFFE000000
000003FFE0000000
ENDCHAR
STARTCHAR 00D5
ENCODING 213
SWIDTH 797 0
DWIDTH 67 0
BBX 59 71 4 -1
BITMAP
000007C000100000
00001FF800380000
00003FFF00780000
00007FFFC0F00000
0000FFFFFFE00000
0001FFFFFFE00000
0003E0FFFFC00000
0003801FFF800000
00030007FF000000
00000000FC000000
0000000000000000
0000000000000000
0000000000000000
0000000000000000
0000000000000000
0000000000000000
000000FFF8000000
00000FFFFF800000
00007FFFFFE00000
0001FFFFFFF80000
0007FE007FFE0000
000FF0000FFF8000
003FC00003FFC000
007F800000FFE000
00FE0000007FF000
01FE0000003FF800
03FC0000001FFC00
07F80000000FFC00
0FF000000007FE00
0FF000000003FF00
1FE000000003FF00
1FE000000001FF80
3FC000000001FF80
3FC000000000FFC0
7FC000000000FFC0
7FC0000000007FC0
7FC0000000007FC0
7F80000000007FE0
FF80000000007FE0
FF80000000003FE0
FF80000000003FE0
FF80000000003FE0
FF80000000003FE0
FF80000000003FE0
FF80000000003FE0
FF80000000003FE0
FF80000000003FE0
FFC0000000003FE0
FFC0000000003FE0
7FC0000000003FC0
7FC0000000003FC0
7FE0000000003FC0
7FE0000000007FC0
3FE0000000007F80
3FF0000000007F80
3FF000000000FF00
1FF800000000FF00
1FF800000000FE00
0FFC00000001FE00
07FE00000003FC00
07FF00000003F800
03FF80000007F000
01FFC000000FE000
00FFE000001FC000
007FF800007F8000
003FFE0001FF0000
000FFFC00FFC0000
0003FFFFFFF00000
0000FFFFFFC00000
00003FFFFE000000
000003FFE0000000
ENDCHAR
STARTCHAR 00D6
ENCODING 214
SWIDTH 797 0
DWIDTH 67 0
BBX 59 70 4 -1
BITMAP
00001E0007800000
00007F001FC00000
00007F801FE00000
0000FF803FE00000
0000FF803FE00000
0000FF803FE00000
00007F801FE00000
00007F001FC00000
00001E0007800000
0000000000000000
0000000000000000
0000000000000000
0000000000000000
0000000000000000
0000000000000000
000000FFF8000000
00000FFFFF800000
00007FFFFFE00000
0001FFFFFFF80000
0007FE007FFE0000
000FF0000FFF8000
003FC00003FFC000
007F800000FFE000
00FE0000007FF000
01FE0000003FF800
03FC0000001FFC00
07F80000000FFC00
0FF000000007FE00
0FF000000003FF00
1FE000000003FF00
1FE000000001FF80
3FC000000001FF80
3FC000000000FFC0
7FC000000000FFC0
7FC0000000007FC0
7FC0000000007FC0
7F80000000007FE0
FF80000000007FE0
FF80000000003FE0
FF80000000003FE0
FF80000000003FE0
FF80000000003FE0
FF80000000003FE0
FF80000000003FE0
FF80000000003FE0
FF80000000003FE0
FFC0000000003FE0
FFC0000000003FE0
7FC0000000003FC0
7FC0000000003FC0
7FE0000000003FC0
7FE0000000007FC0
3FE0000000007F80
3FF0000000007F80
3FF000000000FF00
1FF800000000FF00
1FF800000000FE00
0FFC00000001FE00
07FE00000003FC00
07FF00000003F800
03FF80000007F000
01FFC000000FE000
00FFE000001FC000
007FF800007F8000
003FFE0001FF0000
000FFFC00FFC0000
0003FFFFFFF00000
0000FFFFFFC00000
00003FFFFE000000
000003FFE0000000
ENDCHAR
STARTCHAR 00D7
ENCODING 215
SWIDTH 523 0
DWIDTH 44 0
BBX 31 31 6 11
BITMAP
10000018
3800003C
7C00007E
FE0000FE
7F0001FC
3F8003F8
1FC007F0
0FE00FE0
07F01FC0
03F83F80
01FC7F00
00FEFE00
007FFC00
003FF800
001FF000
000FE000
001FF000
003FF800
007FFC00
00FEFE00
01FC7F00
03F83F80
07F01FC0
0FE00FE0
1FC007F0
3F8003F8
7F0001FC
FE0000FE
7C00007E
3800003C
10000018
ENDCHAR
STARTCHAR 00D8
ENCODING 216
SWIDTH 797 0
DWIDTH 67 0
BBX 59 61 4 -4
BITMAP
0000000000001F00
0000000000003F00
0000000000003E00
000000FFF0007C00
00000FFFFF00F800
00007FFFFFE1F000
0001FFFFFFFBF000
0007FE00FFFFE000
001FF0000FFFC000
003FC00003FFC000
007F800001FFE000
00FE0000007FF000
01FC0000003FF800
03FC0000007FFC00
07F8000000FFFC00
0FF0000001EFFE00
0FF0000001C7FF00
1FE0000003C3FF00
1FE000000783FF80
3FC000000F01FF80
3FC000001E00FFC0
7FC000001C00FFC0
7FC000003C00FFC0
7F80000078007FC0
7F800000F0007FE0
FF800001E0007FE0
FF800001C0003FE0
FF800003C0003FE0
FF80000780003FE0
FF80000F00003FE0
FF80001E00003FE0
FF80001C00003FE0
FF80003C00003FE0
FF80007800003FE0
FFC000F000003FE0
FFC001E000003FE0
7FC001C000003FC0
7FC003C000003FC0
7FE0078000003FC0
7FE00F0000007FC0
3FE01E0000007F80
3FF01C0000007F80
1FF03C000000FF00
1FF878000000FF00
1FFCF0000001FE00
0FFDE0000001FE00
07FFC0000003FC00
03FFC0000007F800
03FF80000007F000
01FFC000000FE000
00FFE000003FC000
003FF800007F8000
007FFE0001FF0000
00FFFFC00FFC0000
01F3FFFFFFF00000
01E0FFFFFFC00000
03E03FFFFE000000
07C001FFE0000000
0F80000000000000
1F00000000000000
3E00000000000000
ENDCHAR
STARTCHAR 00D9
ENCODING 217
SWIDTH 726 0
DWIDTH 61 0
BBX 59 73 1 -1
BITMAP
00000F0000000000
00007F8000000000
0000FFC000000000
00007FE000000000
00003FF000000000
00000FF800000000
000003FC00000000
000000FF00000000
0000003F80000000
0000001FC0000000
00000007E0000000
00000001F0000000
0000000078000000
0000000000000000
0000000000000000
0000000000000000
0000000000000000
0000000000000000
7C007F0003F003E0
FFFFFF0003FFFFE0
FFFFFF0003FFFFE0
FFFFE00001FFFF00
0FFFC000001FFC00
07FF80000007FC00
03FF80000003F800
03FF80000003F800
01FF80000001F800
01FF80000001F800
01FF80000001F800
01FF80000001F800
01FF80000001F800
01FF80000001F800
01FF80000001F800
01FF00000001F800
01FF00000001F000
01FF00000001F000
01FF00000001F000
01FF00000001F000
01FF00000001F000
01FF00000001F000
01FF00000001F000
01FF00000001F000
01FF00000001F000
01FF00000001F000
01FF00000001F000
01FF00000001F000
01FF00000001F000
01FF00000001F000
01FF00000001F000
01FF00000001F000
01FF00000001F000
01FF80000001F000
01FF80000001F000
01FF80000001F000
01FF80000001F000
01FF80000001F000
00FF80000001F000
00FF80000001F000
00FFC0000003E000
00FFC0000003E000
00FFC0000007E000
00FFE0000007C000
007FE000000FC000
007FF000001F8000
007FF800003F8000
003FFE0000FF0000
001FFFC007FE0000
000FFFFFFFFC0000
0007FFFFFFF80000
0003FFFFFFE00000
0000FFFFFFC00000
00003FFFFE000000
000001FFE0000000
ENDCHAR
STARTCHAR 00DA
ENCODING 218
SWIDTH 726 0
DWIDTH 61 0
BBX 59 73 1 -1
BITMAP
0000000007C00000
000000000FF00000
000000001FF80000
000000003FF80000
000000007FE00000
00000000FF800000
00000001FF000000
00000003FC000000
00000007F0000000
0000000FC0000000
0000001F00000000
0000003C00000000
0000007000000000
0000000000000000
0000000000000000
0000000000000000
0000000000000000
0000000000000000
7C007F0003F003E0
FFFFFF0003FFFFE0
FFFFFF0003FFFFE0
FFFFE00001FFFF00
0FFFC000001FFC00
07FF80000007FC00
03FF80000003F800
03FF80000003F800
01FF80000001F800
01FF80000001F800
01FF80000001F800
01FF80000001F800
01FF80000001F800
01FF80000001F800
01FF80000001F800
01FF00000001F800
01FF00000001F000
01FF00000001F000
01FF00000001F000
01FF00000001F000
01FF00000001F000
01FF00000001F000
01FF00000001F000
01FF00000001F000
01FF00000001F000
01FF00000001F000
01FF00000001F000
01FF00000001F000
01FF00000001F000
01FF00000001F000
01FF00000001F000
01FF00000001F000
01FF00000001F000
01FF80000001F000
01FF80000001F000
01FF80000001F000
01FF80000001F000
01FF80000001F000
00FF80000001F000
00FF80000001F000
00FFC0000003E000
00FFC0000003E000
00FFC0000007E000
00FFE0000007C000
007FE000000FC000
007FF000001F8000
007FF800003F8000
003FFE0000FF0000
001FFFC007FE0000
000FFFFFFFFC0000
0007FFFFFFF80000
0003FFFFFFE00000
0000FFFFFFC00000
00003FFFFE000000
000001FFE0000000
ENDCHAR
STARTCHAR 00DB
ENCODING 219
SWIDTH 726 0
DWIDTH 61 0
BBX 59 75 1 -1
BITMAP
0000000700000000
0000000F80000000
0000001FC0000000
0000003FE0000000
0000007FE0000000
000000FFF0000000
000000FFF8000000
000001FFFC000000
000003F8FE000000
000007E07F000000
00000FC01F800000
00001F800FC00000
00003E0003E00000
00007C0001F00000
0000700000F00000
0000200000000000
0000000000000000
0000000000000000
0000000000000000
0000000000000000
7C007F0003F003E0
FFFFFF0003FFFFE0
FFFFFF0003FFFFE0
FFFFE00001FFFF00
0FFFC000001FFC00
07FF80000007FC00
03FF80000003F800
03FF80000003F800
01FF80000001F800
01FF80000001F800
01FF80000001F800
01FF80000001F800
01FF80000001F800
01FF80000001F800
01FF80000001F800
01FF00000001F800
01FF00000001F000
01FF00000001F000
01FF00000001F000
01FF00000001F000
01FF00000001F000
01FF00000001F000
01FF00000001F000
01FF00000001F000
01FF00000001F000
01FF00000001F000
01FF00000001F000
01FF00000001F000
01FF00000001F000
01FF00000001F000
01FF00000001F000
01FF00000001F000
01FF00000001F000
01FF80000001F000
01FF80000001F000
01FF80000001F000
01FF80000001F000
01FF80000001F000
00FF80000001F000
00FF80000001F000
00FFC0000003E000
00FFC0000003E000
00FFC0000007E000
00FFE0000007C000
007FE000000FC000
007FF000001F8000
007FF800003F8000
003FFE0000FF0000
001FFFC007FE0000
000FFFFFFFFC0000
0007FFFFFFF80000
0003FFFFFFE00000
0000FFFFFFC00000
00003FFFFE000000
000001FFE0000000
ENDCHAR
STARTCHAR 00DC
ENCODING 220
SWIDTH 726 0
DWIDTH 61 0
BBX 59 70 1 -1
BITMAP
00000F0003C00000
00001F8007E00000
00003FC00FF00000
00007FC01FF00000
00007FC01FF00000
00007FC01FF00000
00003FC00FF00000
00001F8007E00000
00000F0003C00000
0000000000000000
0000000000000000
0000000000000000
0000000000000000
0000000000000000
0000000000000000
7C007F0003F003E0
FFFFFF0003FFFFE0
FFFFFF0003FFFFE0
FFFFE00001FFFF00
0FFFC000001FFC00
07FF80000007FC00
03FF80000003F800
03FF80000003F800
01FF80000001F800
01FF80000001F800
01FF80000001F800
01FF80000001F800
01FF80000001F800
01FF80000001F800
01FF80000001F800
01FF00000001F800
01FF00000001F000
01FF00000001F000
01FF00000001F000
01FF00000001F000
01FF00000001F000
01FF00000001F000
01FF00000001F000
01FF00000001F000
01FF00000001F000
01FF00000001F000
01FF00000001F000
01FF00000001F000
01FF00000001F000
01FF00000001F000
01FF00000001F000
01FF00000001F000
01FF00000001F000
01FF80000001F000
01FF80000001F000
01FF80000001F000
01FF80000001F000
01FF80000001F000
00FF80000001F000
00FF80000001F000
00FFC0000003E000
00FFC0000003E000
00FFC0000007E000
00FFE0000007C000
007FE000000FC000
007FF000001F8000
007FF800003F8000
003FFE0000FF0000
001FFFC007FE0000
000FFFFFFFFC0000
0007FFFFFFF80000
0003FFFFFFE00000
0000FFFFFFC00000
00003FFFFE000000
000001FFE0000000
ENDCHAR
STARTCHAR 00DD
ENCODING 221
SWIDTH 607 0
DWIDTH 51 0
BBX 53 73 0 -1
BITMAP
000000003C0000
000000007F8000
00000000FFC000
00000001FF8000
00000007FF0000
00000007FC0000
0000000FF00000
0000003FC00000
0000007F000000
000000FE000000
000001F8000000
000003E0000000
00000780000000
00000000000000
00000000000000
00000000000000
00000000000000
00000000000000
FFFFF0001FFFF0
FFFFF8001FFFF8
FFFFF0000FFFF0
3FFF000001FFC0
1FFE000000FF00
0FFE000000FE00
07FF000000FC00
07FF000001FC00
03FF800001F800
01FF800003F000
01FFC00003E000
00FFC00007E000
007FE00007C000
007FE0000F8000
003FF0001F0000
001FF0001F0000
001FF8003E0000
000FF8003C0000
0007FC007C0000
0007FE00F80000
0003FE00F00000
0003FF01E00000
0001FF03E00000
0000FF83C00000
0000FFC7800000
00007FCF800000
00007FEF000000
00003FFE000000
00001FFE000000
00001FFC000000
00000FFC000000
00000FFC000000
00000FFC000000
000007FC000000
000007FC000000
000007FC000000
000007FC000000
000007FC000000
000007FC000000
000007FC000000
00000FFC000000
00000FFC000000
00000FFC000000
00000FFC000000
00000FFC000000
00000FFC000000
00000FFC000000
00000FFC000000
00000FFC000000
00000FFC000000
00001FFE000000
00007FFF800000
0007FFFFF80000
0007FFFFFC0000
0007FFFFF80000
ENDCHAR
STARTCHAR 00DE
ENCODING 222
SWIDTH 571 0
DWIDTH 48 0
BBX 44 55 2 -1
BITMAP
7FFFC3800000
7FFFFF800000
7FFFFF800000
07FFFF800000
01FFF0000000
00FFC0000000
00FFC0000000
00FF80000000
00FF80000000
00FF80000000
00FFFFFE0000
00FFFFFFE000
00FFFFFFF800
00FFC01FFE00
00FFC003FF00
00FFC001FF80
00FF8000FFC0
00FF80007FC0
00FF80003FE0
00FF80003FE0
00FF80001FF0
00FF80001FF0
00FF80001FF0
00FF80001FF0
00FF80001FF0
00FF80001FF0
00FF80001FF0
00FF80001FF0
00FF80001FF0
00FF80001FF0
00FF80003FE0
00FF80003FE0
00FF80007FC0
00FF8000FFC0
00FF8001FF80
00FF8007FF00
00FF803FFE00
00FFFFFFF800
00FFFFFFE000
00FFFFFF8000
00FFFFF80000
00FF80000000
00FF80000000
00FF80000000
00FF80000000
00FF80000000
00FFC0000000
01FFC0000000
01FFC0000000
01FFC0000000
03FFE0000000
07FFF0000000
7FFFFF800000
FFFFFF800000
FFFFFF800000
ENDCHAR
STARTCHAR 00DF
ENCODING 223
SWIDTH 595 0
DWIDTH 50 0
BBX 44 60 3 -1
BITMAP
000001FF0000
00000FFFC000
00003FFFF000
0000FFFFF800
0003FFFFFC00
0007F01FFC00
000FC007FE00
001F0003FE00
003F0001FE00
007E0001FF00
007E0001FF00
00FC0000FF00
00FC0000FF00
01FC0000FE00
01FC0001FE00
03FC0001FE00
03FC0001FC00
03FC0003F800
03F80007F800
03F80007E000
03F8001FC000
03FC003F8000
03FC007F0000
03FC00FE0000
0FFC01FC0000
3FFC03F80000
7FFC07F00000
7FFC0FF00000
03FC0FF00000
03FC0FF00000
03FC0FF00000
03FC0FF80000
03FC0FF80000
03FC0FFE0000
03FC0FFF0000
03FC07FF8000
03FC07FFE000
03FC03FFF000
03FC01FFFC00
03FC007FFE00
03FC003FFF00
03FC000FFF80
03FC0007FFC0
03FC0001FFE0
03FC0000FFE0
03FC00007FE0
03FC00003FF0
03FC00001FF0
03FC00001FF0
03FC00000FF0
03FC00000FE0
03FC00000FE0
07FC02001FE0
07FE07801FC0
07FE0FC01FC0
07FE0FF07F80
0FFF0FFFFF00
FFFF8FFFFC00
FFFFC7FFF800
FFFFC1FF8000
ENDCHAR
STARTCHAR 00E0
ENCODING 224
SWIDTH 476 0
DWIDTH 40 0
BBX 38 56 3 -1
BITMAP
0078000000
07FC000000
07FC000000
03FE000000
01FF000000
00FF800000
003F800000
001FC00000
0007E00000
0003F00000
0001F00000
0000780000
00003C0000
00000C0000
0000000000
0000000000
0000000000
0000000000
0000000000
0001FF0000
001FFFC000
007FFFE000
01FFFFF000
03FFFFF800
07E03FF800
0FC00FF800
1F8007FC00
3F8007FC00
3F8007FC00
7F0007FC00
200007FC00
000007FC00
000007FC00
000007FC00
000007FC00
000007FC00
000007FC00
0001FFFC00
003FFFFC00
01FFFFFC00
0FFF07F800
1FF807F800
3FE007F800
7FC007F800
7FC007F800
7F8007F800
FF8007F800
FFC007F800
FFC007FC00
7FC00FFC0C
7FF03FFFFC
7FFFFFFFFC
7FFFF3FFF8
3FFFC3FFE0
1FFF03FF80
07F000FC00
ENDCHAR
STARTCHAR 00E1
ENCODING 225
SWIDTH 476 0
DWIDTH 40 0
BBX 38 56 3 -1
BITMAP
000003C000
000007F800
00000FF800
00001FF800
00003FE000
00003FC000
00007F8000
0000FE0000
0001FC0000
0001F00000
0003E00000
0007C00000
0007000000
000E000000
0000000000
0000000000
0000000000
0000000000
0000000000
0001FF0000
001FFFC000
007FFFE000
01FFFFF000
03FFFFF800
07E03FF800
0FC00FF800
1F8007FC00
3F8007FC00
3F8007FC00
7F0007FC00
200007FC00
000007FC00
000007FC00
000007FC00
000007FC00
000007FC00
000007FC00
0001FFFC00
003FFFFC00
01FFFFFC00
0FFF07F800
1FF807F800
3FE007F800
7FC007F800
7FC007F800
7F8007F800
FF8007F800
FFC007F800
FFC007FC00
7FC00FFC0C
7FF03FFFFC
7FFFFFFFFC
7FFFF3FFF8
3FFFC3FFE0
1FFF03FF80
07F000FC00
ENDCHAR
STARTCHAR 00E2
ENCODING 226
SWIDTH 476 0
DWIDTH 40 0
BBX 38 56 3 -1
BITMAP
0000C00000
0001E00000
0003F00000
0007F00000
0007F80000
000FFC0000
001FFE0000
003FFE0000
003F3F0000
007C1F8000
00F80F8000
01F003C000
03E001E000
038000F000
0100002000
0000000000
0000000000
0000000000
0000000000
0001FF0000
001FFFC000
007FFFE000
01FFFFF000
03FFFFF800
07E03FF800
0FC00FF800
1F8007FC00
3F8007FC00
3F8007FC00
7F0007FC00
200007FC00
000007FC00
000007FC00
000007FC00
000007FC00
000007FC00
000007FC00
0001FFFC00
003FFFFC00
01FFFFFC00
0FFF07F800
1FF807F800
3FE007F800
7FC007F800
7FC007F800
7F8007F800
FF8007F800
FFC007F800
FFC007FC00
7FC00FFC0C
7FF03FFFFC
7FFFFFFFFC
7FFFF3FFF8
3FFFC3FFE0
1FFF03FF80
07F000FC00
ENDCHAR
STARTCHAR 00E3
ENCODING 227
SWIDTH 476 0
DWIDTH 40 0
BBX 38 54 3 -1
BITMAP
003E000000
007F800C00
00FFC01C00
01FFE01C00
03FFF87800
07FFFFF800
0787FFF000
0F01FFE000
0E00FFC000
04003F8000
00000F0000
0000000000
0000000000
0000000000
0000000000
0000000000
0000000000
0001FF0000
001FFFC000
007FFFE000
01FFFFF000
03FFFFF800
07E03FF800
0FC00FF800
1F8007FC00
3F8007FC00
3F8007FC00
7F0007FC00
200007FC00
000007FC00
000007FC00
000007FC00
000007FC00
000007FC00
000007FC00
0001FFFC00
003FFFFC00
01FFFFFC00
0FFF07F800
1FF807F800
3FE007F800
7FC007F800
7FC007F800
7F8007F800
FF8007F800
FFC007F800
FFC007FC00
7FC00FFC0C
7FF03FFFFC
7FFFFFFFFC
7FFFF3FFF8
3FFFC3FFE0
1FFF03FF80
07F000FC00
ENDCHAR
STARTCHAR 00E4
ENCODING 228
SWIDTH 476 0
DWIDTH 40 0
BBX 38 51 3 -1
BITMAP
00F001E000
01F803F000
03FC07F800
07FC0FF800
07FC0FF800
03FC07F800
01F803F000
00F001E000
0000000000
0000000000
0000000000
0000000000
0000000000
0000000000
0001FF0000
001FFFC000
007FFFE000
01FFFFF000
03FFFFF800
07E03FF800
0FC00FF800
1F8007FC00
3F8007FC00
3F8007FC00
7F0007FC00
200007FC00
000007FC00
000007FC00
000007FC00
000007FC00
000007FC00
000007FC00
0001FFFC00
003FFFFC00
01FFFFFC00
0FFF07F800
1FF807F800
3FE007F800
7FC007F800
7FC007F800
7F8007F800
FF8007F800
FFC007F800
FFC007FC00
7FC00FFC0C
7FF03FFFFC
7FFFFFFFFC
7FFFF3FFF8
3FFFC3FFE0
1FFF03FF80
07F000FC00
ENDCHAR
STARTCHAR 00E5
ENCODING 229
SWIDTH 476 0
DWIDTH 40 0
BBX 38 56 3 -1
BITMAP
0003F80000
000FFE0000
001FFF0000
003F1F8000
007C0FC000
007C07C000
00FC07C000
00F807C000
00FC07C000
007C07C000
007C0FC000
003F1F8000
001FFF0000
000FFE0000
0003F80000
0000000000
0000000000
0000000000
0000000000
0001FF0000
001FFFC000
007FFFE000
01FFFFF000
03FFFFF800
07E03FF800
0FC00FF800
1F8007FC00
3F8007FC00
3F8007FC00
7F0007FC00
200007FC00
000007FC00
000007FC00
000007FC00
000007FC00
000007FC00
000007FC00
0001FFFC00
003FFFFC00
01FFFFFC00
0FFF07F800
1FF807F800
3FE007F800
7FC007F800
7FC007F800
7F8007F800
FF8007F800
FFC007F800
FFC007FC00
7FC00FFC0C
7FF03FFFFC
7FFFFFFFFC
7FFFF3FFF8
3FFFC3FFE0
1FFF03FF80
07F000FC00
ENDCHAR
STARTCHAR 00E6
ENCODING 230
SWIDTH 690 0
DWIDTH 58 0
BBX 52 37 3 -1
BITMAP
0001FE003FC000
001FFF80FFF800
007FFFE3FFFC00
00FFFFFFFFFF00
03F03FFFC1FF00
07C00FFF00FF80
0FC007FF007FC0
1FC007FE003FC0
1FE007FC001FE0
3FC007FC001FE0
3F8003FC001FE0
3C0003FC001FF0
000003F8001FF0
000003F801FFF0
000003F83FFF80
000003FFFFF000
000007FFFE0000
0000FFFFC00000
000FFFF8000000
00FFFFF8000000
07FF07F8000000
1FF807FC000000
3FF003FC000000
7FC003FC000000
7FC003FC000000
7FC003FE000000
7F8003FE000000
FF8003FF000000
FFC003FF000000
FFC003FF800070
7FC007FFC001F0
7FE00FFFF80FE0
7FF03E7FFFFFC0
7FFFFC3FFFFF00
3FFFE01FFFFC00
1FFF8007FFF000
07F80000FF8000
ENDCHAR
STARTCHAR 00E7
ENCODING 231
SWIDTH 440 0
DWIDTH 37 0
BBX 32 55 3 -19
BITMAP
00007FC0
0003FFF8
001FFFFE
003FFFFF
00FFFFFF
01FC07FF
03F801FE
07F0007C
0FE00038
0FE00000
1FC00000
1FC00000
3FC00000
3FC00000
7F800000
7F800000
7F800000
7F800000
7F800000
FFC00000
FFC00000
FFC00000
FFC00000
7FE00000
7FE00000
7FE00000
7FF00000
3FF80000
3FFC0006
3FFE000E
1FFF807F
0FFFFFFE
07FFFFFC
03FFFFF0
01FFFFC0
007FFF00
000FF800
00007000
00006000
0000E000
0001E000
0003F000
0003FC00
0007FE00
0001FF00
00007F00
00003F00
00000F00
00000F00
000C0F00
001F0E00
001FFE00
001FFC00
001FF000
000FC000
ENDCHAR
STARTCHAR 00E8
ENCODING 232
SWIDTH 440 0
DWIDTH 37 0
BBX 32 56 3 -1
BITMAP
01E00000
0FF00000
0FF80000
0FFC0000
07FC0000
01FE0000
00FF0000
003F8000
001F8000
000FC000
0003E000
0001F000
00007000
00003800
00000000
00000000
00000000
00000000
00000000
0003FC00
001FFF80
007FFFC0
00FFFFE0
01FC1FF0
03F00FF8
07E007FC
0FE003FC
0FC001FE
1FC001FE
3F8001FE
3F8001FF
3F8003FF
7F801FFF
7F81FFFF
7FFFFFE0
7FFFF800
7FFF0000
FFE00000
FF800000
FF800000
FF800000
7F800000
7FC00000
7FC00000
7FC00000
7FE00000
7FE00000
3FF00002
3FF8000E
1FFC001E
0FFF80FC
0FFFFFF8
07FFFFF0
01FFFFC0
00FFFF00
001FF000
ENDCHAR
STARTCHAR 00E9
ENCODING 233
SWIDTH 440 0
DWIDTH 37 0
BBX 32 56 3 -1
BITMAP
00000F00
00001FE0
00003FF0
00003FE0
00007FC0
0000FF00
0001FE00
0001FC00
0003F000
0007E000
000F8000
000F0000
001E0000
00380000
00000000
00000000
00000000
00000000
00000000
0003FC00
001FFF80
007FFFC0
00FFFFE0
01FC1FF0
03F00FF8
07E007FC
0FE003FC
0FC001FE
1FC001FE
3F8001FE
3F8001FF
3F8003FF
7F801FFF
7F81FFFF
7FFFFFE0
7FFFF800
7FFF0000
FFE00000
FF800000
FF800000
FF800000
7F800000
7FC00000
7FC00000
7FC00000
7FE00000
7FE00000
3FF00002
3FF8000E
1FFC001E
0FFF80FC
0FFFFFF8
07FFFFF0
01FFFFC0
00FFFF00
001FF000
ENDCHAR
STARTCHAR 00EA
ENCODING 234
SWIDTH 440 0
DWIDTH 37 0
BBX 32 56 3 -1
BITMAP
0000C000
0001E000
0003F000
0007F000
000FF800
000FFC00
001FFC00
003FFE00
007F3F00
007C1F80
00F80F80
01F007C0
03E001E0
038000E0
01000020
00000000
00000000
00000000
00000000
0003FC00
001FFF80
007FFFC0
00FFFFE0
01FC1FF0
03F00FF8
07E007FC
0FE003FC
0FC001FE
1FC001FE
3F8001FE
3F8001FF
3F8003FF
7F801FFF
7F81FFFF
7FFFFFE0
7FFFF800
7FFF0000
FFE00000
FF800000
FF800000
FF800000
7F800000
7FC00000
7FC00000
7FC00000
7FE00000
7FE00000
3FF00002
3FF8000E
1FFC001E
0FFF80FC
0FFFFFF8
07FFFFF0
01FFFFC0
00FFFF00
001FF000
ENDCHAR
STARTCHAR 00EB
ENCODING 235
SWIDTH 440 0
DWIDTH 37 0
BBX 32 51 3 -1
BITMAP
03C00780
07E00FC0
0FF01FE0
1FF03FE0
1FF03FE0
0FF01FE0
07E00FC0
03C00780
00000000
00000000
00000000
00000000
00000000
00000000
0003FC00
001FFF80
007FFFC0
00FFFFE0
01FC1FF0
03F00FF8
07E007FC
0FE003FC
0FC001FE
1FC001FE
3F8001FE
3F8001FF
3F8003FF
7F801FFF
7F81FFFF
7FFFFFE0
7FFFF800
7FFF0000
FFE00000
FF800000
FF800000
FF800000
7F800000
7FC00000
7FC00000
7FC00000
7FE00000
7FE00000
3FF00002
3FF8000E
1FFC001E
0FFF80FC
0FFFFFF8
07FFFFF0
01FFFFC0
00FFFF00
001FF000
ENDCHAR
STARTCHAR 00EC
ENCODING 236
SWIDTH 309 0
DWIDTH 26 0
BBX 23 56 1 -1
BITMAP
0F0000
FF8000
FF8000
7FC000
3FE000
1FF000
07F000
03F800
01FC00
007E00
003E00
000F00
000780
000180
000000
000000
000000
000000
000000
000380
001F80
00FF80
03FF00
1FFF00
1FFF00
1FFF00
03FF00
01FF00
00FF00
00FF00
00FF00
00FF00
00FF00
00FF00
00FF00
00FF00
00FF00
00FF00
00FF00
00FF00
00FF00
00FF00
00FF00
00FF00
00FF00
00FF00
00FF00
01FF00
01FF00
01FF00
03FF00
07FF80
7FFFC0
7FFFFC
7FFFFE
7F0006
ENDCHAR
STARTCHAR 00ED
ENCODING 237
SWIDTH 297 0
DWIDTH 25 0
BBX 22 56 2 -1
BITMAP
0001E0
0003FC
0007FC
000FFC
000FF8
001FE0
003FC0
007F00
007E00
00FC00
01F000
03E000
038000
070000
000000
000000
000000
000000
000000
000E00
007E00
01FE00
0FFE00
3FFE00
7FFC00
7FFC00
0FFC00
07FC00
03FC00
03FC00
03FC00
03FC00
03FC00
03FC00
03FC00
03FC00
03FC00
03FC00
03FC00
03FC00
03FC00
03FC00
03FC00
03FC00
03FC00
03FC00
03FC00
03FC00
07FC00
07FC00
07FC00
1FFE00
FFFF00
FFFFF8
FFFFFC
FC000C
ENDCHAR
STARTCHAR 00EE
ENCODING 238
SWIDTH 297 0
DWIDTH 25 0
BBX 22 56 1 -1
BITMAP
006000
00F000
00F800
01FC00
03FC00
03FE00
07FF00
0FFF00
0F9F80
1F0FC0
3E07C0
7C01E0
7800F0
E00070
400020
000000
000000
000000
000000
000700
003F00
00FF00
07FF00
1FFF00
3FFF00
3FFE00
07FE00
03FE00
01FE00
01FE00
01FE00
01FE00
01FE00
01FE00
01FE00
01FE00
01FE00
01FE00
01FE00
01FE00
01FE00
01FE00
01FE00
01FE00
01FE00
01FE00
01FE00
01FE00
03FE00
03FE00
07FE00
0FFF00
FFFF80
FFFFF8
FFFFFC
FE0004
ENDCHAR
STARTCHAR 00EF
ENCODING 239
SWIDTH 309 0
DWIDTH 26 0
BBX 23 51 1 -1
BITMAP
1E0078
7F01FC
FF83FE
FF83FE
FF83FE
FF83FE
7F01FC
1E0078
000000
000000
000000
000000
000000
000000
000380
001F80
00FF00
03FF00
1FFF00
1FFF00
1FFF00
03FF00
01FF00
00FF00
00FF00
00FF00
00FF00
00FF00
00FF00
00FF00
00FF00
00FF00
00FF00
00FF00
00FF00
00FF00
00FF00
00FF00
00FF00
00FF00
00FF00
00FF00
01FF00
01FF00
01FF00
03FF00
07FF80
7FFFC0
7FFFFC
7FFFFE
7F0006
ENDCHAR
STARTCHAR 00F0
ENCODING 240
SWIDTH 559 0
DWIDTH 47 0
BBX 40 60 3 0
BITMAP
0000001800
001C003C00
003F007C00
001F80F800
000FC1F000
0007F3E000
0003FF8000
0001FF0000
0000FE0000
00007F0000
00007F8000
0000FFC000
0001CFE000
00078FF000
000F07F800
001E03F800
003C01FC00
003801FE00
001000FF00
0000007F00
0000007F80
0000003FC0
0000003FC0
0001FE1FE0
000FFFCFF0
003FFFFFF0
007FFFFFF8
01FF03FFF8
03FC00FFFC
07F8003FFC
0FF0001FFC
1FE0000FFE
1FE0000FFE
3FC00007FE
3FC00007FF
7FC00003FF
7FC00003FF
7FC00001FF
7F800001FF
7F800001FF
FF800001FF
FFC00001FF
FFC00001FF
FFC00001FF
7FC00001FF
7FC00001FF
7FE00001FF
7FE00001FE
7FE00001FE
3FF00001FC
3FF00003FC
1FF80003F8
1FFC0007F0
0FFE000FE0
07FF001FC0
03FFE07F80
01FFFFFF00
007FFFFC00
001FFFF000
0003FF0000
ENDCHAR
STARTCHAR 00F1
ENCODING 241
SWIDTH 595 0
DWIDTH 50 0
BBX 46 54 3 -1
BITMAP
0000F0000000
0003FC003000
0007FE007000
000FFF80E000
000FFFE1E000
001FFFFFC000
003C3FFF8000
00380FFF8000
007007FF0000
002001FE0000
000000780000
000000000000
000000000000
000000000000
000000000000
000000000000
000000000000
001C003F8000
00FC01FFE000
03FC0FFFF800
0FFC3FFFF800
7FFCFFFFFC00
FFFFFFFFFC00
FFFFE01FFE00
7FFF0007FE00
0FFC0003FE00
07FC0003FE00
07FC0001FE00
07FC0001FE00
07FC0001FE00
07FC0001FF00
07FC0001FF00
07FC0001FF00
07FC0001FF00
03FC0001FF00
03FC0000FF00
03FC0001FF00
03FC0001FF00
03FC0001FF00
03FC0001FF00
03FC0001FF00
03FC0001FF00
03FC0001FF00
03FC0001FF00
03FC0001FF00
03FC0001FF00
03FC0001FF00
07FC0001FF00
07FC0001FF00
07FC0003FF00
1FFE0007FFC0
FFFFE03FFFF8
FFFFE03FFFFC
FFFFE03FFFF8
ENDCHAR
STARTCHAR 00F2
ENCODING 242
SWIDTH 559 0
DWIDTH 47 0
BBX 40 56 3 -1
BITMAP
000F000000
00FF800000
00FF800000
007FC00000
003FE00000
001FF00000
0007F00000
0003F80000
0000FC0000
00007E0000
00001E0000
00000F0000
0000078000
000001C000
0000000000
0000000000
0000000000
0000000000
0000000000
0000FFE000
0007FFFC00
003FFFFF00
007FFFFF80
01FF03FFE0
03FC00FFF0
07F8003FF0
0FF0001FF8
1FE0001FFC
1FE0000FFC
3FC00007FE
3FC00007FE
7FC00003FF
7FC00003FF
7FC00001FF
7F800001FF
7F800001FF
FF800001FF
FFC00001FF
FFC00001FF
FFC00001FF
7FC00001FF
7FC00001FF
7FE00001FF
7FE00001FE
7FE00001FE
3FF00001FC
3FF00003FC
1FF80003F8
1FFC0007F0
0FFE000FE0
07FF001FC0
03FFE07F80
01FFFFFF00
007FFFFC00
001FFFF000
0003FF0000
ENDCHAR
STARTCHAR 00F3
ENCODING 243
SWIDTH 559 0
DWIDTH 47 0
BBX 40 56 3 -1
BITMAP
0000007800
000000FF00
000001FF00
000003FF00
000003FE00
000007F800
00000FF000
00001FC000
00001F8000
00003E0000
00007C0000
0000F80000
0000E00000
0001C00000
0000000000
0000000000
0000000000
0000000000
0000000000
0000FFE000
0007FFFC00
003FFFFF00
007FFFFF80
01FF03FFE0
03FC00FFF0
07F8003FF0
0FF0001FF8
1FE0001FFC
1FE0000FFC
3FC00007FE
3FC00007FE
7FC00003FF
7FC00003FF
7FC00001FF
7F800001FF
7F800001FF
FF800001FF
FFC00001FF
FFC00001FF
FFC00001FF
7FC00001FF
7FC00001FF
7FE00001FF
7FE00001FE
7FE00001FE
3FF00001FC
3FF00003FC
1FF80003F8
1FFC0007F0
0FFE000FE0
07FF001FC0
03FFE07F80
01FFFFFF00
007FFFFC00
001FFFF000
0003FF0000
ENDCHAR
STARTCHAR 00F4
ENCODING 244
SWIDTH 559 0
DWIDTH 47 0
BBX 40 56 3 -1
BITMAP
00001C0000
00003E0000
00003E0000
00007F0000
0000FF8000
0001FF8000
0001FFC000
0003FFE000
0007E3F000
000FC1F000
000F80F800
001F007C00
003C003E00
0078000E00
0020000400
0000000000
0000000000
0000000000
0000000000
0000FFE000
0007FFFC00
003FFFFF00
007FFFFF80
01FF03FFE0
03FC00FFF0
07F8003FF0
0FF0001FF8
1FE0001FFC
1FE0000FFC
3FC00007FE
3FC00007FE
7FC00003FF
7FC00003FF
7FC00001FF
7F800001FF
7F800001FF
FF800001FF
FFC00001FF
FFC00001FF
FFC00001FF
7FC00001FF
7FC00001FF
7FE00001FF
7FE00001FE
7FE00001FE
3FF00001FC
3FF00003FC
1FF80003F8
1FFC0007F0
0FFE000FE0
07FF001FC0
03FFE07F80
01FFFFFF00
007FFFFC00
001FFFF000
0003FF0000
ENDCHAR
STARTCHAR 00F5
ENCODING 245
SWIDTH 559 0
DWIDTH 47 0
BBX 40 54 3 -1
BITMAP
0003C00000
000FF00180
001FF801C0
003FFE0380
007FFF0F00
007FFFFF00
00F0FFFE00
00E03FFC00
01C01FFC00
008007F800
000001E000
0000000000
0000000000
0000000000
0000000000
0000000000
0000000000
0000FFE000
0007FFFC00
003FFFFF00
007FFFFF80
01FF03FFE0
03FC00FFF0
07F8003FF0
0FF0001FF8
1FE0001FFC
1FE0000FFC
3FC00007FE
3FC00007FE
7FC00003FF
7FC00003FF
7FC00001FF
7F800001FF
7F800001FF
FF800001FF
FFC00001FF
FFC00001FF
FFC00001FF
7FC00001FF
7FC00001FF
7FE00001FF
7FE00001FE
7FE00001FE
3FF00001FC
3FF00003FC
1FF80003F8
1FFC0007F0
0FFE000FE0
07FF001FC0
03FFE07F80
01FFFFFF00
007FFFFC00
001FFFF000
0003FF0000
ENDCHAR
STARTCHAR 00F6
ENCODING 246
SWIDTH 559 0
DWIDTH 47 0
BBX 40 51 3 -1
BITMAP
001E003C00
003F007E00
007F80FF00
00FF81FF00
00FF81FF00
007F80FF00
003F007E00
001E003C00
0000000000
0000000000
0000000000
0000000000
0000000000
0000000000
0000FFE000
0007FFFC00
003FFFFF00
007FFFFF80
01FF03FFE0
03FC00FFF0
07F8003FF0
0FF0001FF8
1FE0001FFC
1FE0000FFC
3FC00007FE
3FC00007FE
7FC00003FF
7FC00003FF
7FC00001FF
7F800001FF
7F800001FF
FF800001FF
FFC00001FF
FFC00001FF
FFC00001FF
7FC00001FF
7FC00001FF
7FE00001FF
7FE00001FE
7FE00001FE
3FF00001FC
3FF00003FC
1FF80003F8
1FFC0007F0
0FFE000FE0
07FF001FC0
03FFE07F80
01FFFFFF00
007FFFFC00
001FFFF000
0003FF0000
ENDCHAR
STARTCHAR 00F7
ENCODING 247
SWIDTH 523 0
DWIDTH 44 0
BBX 35 33 4 10
BITMAP
0000E00000
0003F00000
0003F80000
0007FC0000
0007FC0000
0007FC0000
0003F80000
0003F80000
0000E00000
0000000000
0000000000
0000000000
0000000000
0000000000
0000000000
FFFFFFFFE0
FFFFFFFFE0
FFFFFFFFE0
FFFFFFFFE0
0000000000
0000000000
0000000000
0000000000
0000000000
0000E00000
0003F80000
0003F80000
0007FC0000
0007FC0000
0007FC0000
0003F80000
0003F80000
0000E00000
ENDCHAR
STARTCHAR 00F8
ENCODING 248
SWIDTH 559 0
DWIDTH 47 0
BBX 40 43 3 -4
BITMAP
000000001F
000000001E
000000003C
0000FFC078
0007FFFCF0
003FFFFFE0
007FFFFFE0
01FF03FFE0
03FC007FF0
07F8003FF8
0FF0001FF8
1FE0003FFC
1FE0007FFE
3FC00077FE
3FC000F3FE
7FC001E3FF
7FC003C3FF
7FC00381FF
7F800701FF
7F800F01FF
FF801E01FF
FF801C01FF
FFC03801FF
FFC07801FF
7FC0F001FF
7FC1E001FF
7FC1C001FF
7FE3C001FE
7FE78001FE
3FFF0003FC
3FFE0003FC
1FFE0003F8
0FFC0007F0
0FFE000FE0
07FF001FC0
03FFC07F80
03FFFFFF00
07FFFFFC00
0F1FFFF000
1F01FF0000
1E00000000
3C00000000
7800000000
ENDCHAR
STARTCHAR 00F9
ENCODING 249
SWIDTH 595 0
DWIDTH 50 0
BBX 47 56 2 -1
BITMAP
0003C0000000
001FE0000000
001FF0000000
001FF8000000
0007FC000000
0003FC000000
0001FE000000
00007F000000
00003F000000
00000F800000
000007C00000
000003E00000
000000F00000
000000700000
000000000000
000000000000
000000000000
000000000000
000000000000
003C00000F00
03FC003FFF00
1FFC00FFFF00
7FFC00FFFF00
FFFC0007FF00
3FFC0001FF00
07FC0001FF00
07FC0001FF00
07FC0001FF00
07FC0001FF00
07FC0001FF00
07F80001FF00
07F80001FE00
07F80001FE00
07F80001FE00
07F80001FE00
07F80001FE00
07F80001FE00
07F80001FE00
07F80001FE00
07F80001FE00
07F80001FE00
07FC0001FE00
07FC0001FE00
07FC0001FE00
07FC0001FE00
07FC0001FE00
07FC0001FE00
03FE0001FF00
03FE0001FF00
03FF0007FF00
03FFC03FFFFE
01FFFFFDFFFE
00FFFFF1FFFC
007FFF81FFE0
003FFE01FF00
000FE000F000
ENDCHAR
STARTCHAR 00FA
ENCODING 250
SWIDTH 595 0
DWIDTH 50 0
BBX 47 56 2 -1
BITMAP
0000001E0000
0000003FE000
0000007FE000
0000007FC000
000000FF8000
000001FF0000
000001FC0000
000003F80000
000007E00000
00000FC00000
00000F800000
00001E000000
00003C000000
000070000000
000000000000
000000000000
000000000000
000000000000
000000000000
003C00000F00
03FC003FFF00
1FFC00FFFF00
7FFC00FFFF00
FFFC0007FF00
3FFC0001FF00
07FC0001FF00
07FC0001FF00
07FC0001FF00
07FC0001FF00
07FC0001FF00
07F80001FF00
07F80001FE00
07F80001FE00
07F80001FE00
07F80001FE00
07F80001FE00
07F80001FE00
07F80001FE00
07F80001FE00
07F80001FE00
07F80001FE00
07FC0001FE00
07FC0001FE00
07FC0001FE00
07FC0001FE00
07FC0001FE00
07FC0001FE00
03FE0001FF00
03FE0001FF00
03FF0007FF00
03FFC03FFFFE
01FFFFFDFFFE
00FFFFF1FFFC
007FFF81FFE0
003FFE01FF00
000FE000F000
ENDCHAR
STARTCHAR 00FB
ENCODING 251
SWIDTH 595 0
DWIDTH 50 0
BBX 47 56 2 -1
BITMAP
000007000000
00000F800000
00000F800000
00001FC00000
00003FE00000
00003FF00000
00007FF00000
0000FFF80000
0001F8FC0000
0003F07C0000
0003E03E0000
0007C01F0000
000F00078000
000E00038000
000C00010000
000000000000
000000000000
000000000000
000000000000
003C00000F00
03FC003FFF00
1FFC00FFFF00
7FFC00FFFF00
FFFC0007FF00
3FFC0001FF00
07FC0001FF00
07FC0001FF00
07FC0001FF00
07FC0001FF00
07FC0001FF00
07F80001FF00
07F80001FE00
07F80001FE00
07F80001FE00
07F80001FE00
07F80001FE00
07F80001FE00
07F80001FE00
07F80001FE00
07F80001FE00
07F80001FE00
07FC0001FE00
07FC0001FE00
07FC0001FE00
07FC0001FE00
07FC0001FE00
07FC0001FE00
03FE0001FF00
03FE0001FF00
03FF0007FF00
03FFC03FFFFE
01FFFFFDFFFE
00FFFFF1FFFC
007FFF81FFE0
003FFE01FF00
000FE000F000
ENDCHAR
STARTCHAR 00FC
ENCODING 252
SWIDTH 595 0
DWIDTH 50 0
BBX 47 51 2 -1
BITMAP
0003C00F0000
000FE03F8000
000FF03FC000
001FF07FC000
001FF07FC000
000FF03FC000
0007E01F8000
0003C00F0000
000000000000
000000000000
000000000000
000000000000
000000000000
000000000000
003C00000F00
03FC003FFF00
1FFC00FFFF00
7FFC00FFFF00
FFFC0007FF00
3FFC0001FF00
07FC0001FF00
07FC0001FF00
07FC0001FF00
07FC0001FF00
07FC0001FF00
07F80001FF00
07F80001FE00
07F80001FE00
07F80001FE00
07F80001FE00
07F80001FE00
07F80001FE00
07F80001FE00
07F80001FE00
07F80001FE00
07F80001FE00
07FC0001FE00
07FC0001FE00
07FC0001FE00
07FC0001FE00
07FC0001FE00
07FC0001FE00
03FE0001FF00
03FE0001FF00
03FF0007FF00
03FFC03FFFFE
01FFFFFDFFFE
00FFFFF1FFFC
007FFF81FFE0
003FFE01FF00
000FE000F000
ENDCHAR
STARTCHAR 00FD
ENCODING 253
SWIDTH 440 0
DWIDTH 37 0
BBX 40 78 0 -23
BITMAP
000001E000
000003FC00
000007FE00
000007FC00
00000FF800
00001FF000
00003FC000
00003F8000
00007E0000
0000FC0000
0001F00000
0001E00000
0003800000
0007000000
0000000000
0000000000
0000000000
0000000000
0000000000
FFFF803FFF
FFFFC03FFF
FFFF803FFE
3FFC0003FC
1FF80003F8
1FF80003F0
0FF80003F0
0FF80003E0
07FC0007C0
07FC0007C0
03FC000F80
03FC000F80
03FE001F00
01FE001F00
01FE001E00
01FF003C00
00FF003C00
00FF807800
007F807800
007F80F000
007FC0F000
003FC1E000
003FC1E000
001FE1C000
001FE3C000
001FF38000
000FF78000
000FF70000
000FFF0000
0007FE0000
0007FE0000
0007FC0000
0003FC0000
0003F80000
0001F80000
0001F00000
0001F00000
0001E00000
0001E00000
0001C00000
0003C00000
0003800000
0007800000
000F000000
000F000000
001E000000
003E000000
003C000000
007C000000
00F8000000
01F8000000
03F8000000
07F0000000
0FF0000000
3FE0000000
7FE0000000
7FC0000000
7F80000000
3E00000000
ENDCHAR
STARTCHAR 00FE
ENCODING 254
SWIDTH 571 0
DWIDTH 48 0
BBX 43 82 2 -23
BITMAP
001E00000000
00FE00000000
07FE00000000
7FFE00000000
FFFE00000000
FFFC00000000
0FFC00000000
07FC00000000
03FC00000000
03FC00000000
03FC00000000
03FC00000000
03FC00000000
03FC00000000
03FC00000000
03FC00000000
03FC00000000
03FC00000000
03FC00000000
03FC00000000
03FC00000000
03FC00000000
03FC00000000
03FC00FF0000
03FC0FFFC000
03FCFFFFF000
03FFFFFFF800
03FFC07FFC00
03FC000FFE00
03FC0007FF00
03FC0003FF80
03FC0001FF80
03FC0000FFC0
03FC00007FC0
03FC00007FC0
03FC00003FE0
03FC00003FE0
03FC00003FE0
03FC00001FE0
03FC00001FE0
03FC00001FE0
03FC00001FE0
03FC00001FE0
03FC00001FE0
03FC00001FE0
03FC00001FC0
03FC00001FC0
03FC00001FC0
03FC00003F80
03FC00003F80
03FC00003F00
03FC00007E00
03FC00007E00
03FE0000FC00
03FF8003F800
03FFF00FE000
03FFFFFFC000
03FFFFFF0000
03FFFFFC0000
03FC7FC00000
03FC00000000
03FC00000000
03FC00000000
03FC00000000
03FC00000000
03FC00000000
03FC00000000
03FC00000000
03FC00000000
03FC00000000
03FC00000000
03FC00000000
03FC00000000
03FC00000000
03FC00000000
03FC00000000
07FE00000000
07FE00000000
0FFF00000000
7FFFF8000000
FFFFF8000000
FFFFF8000000
ENDCHAR
STARTCHAR 00FF
ENCODING 255
SWIDTH 440 0
DWIDTH 37 0
BBX 40 73 0 -23
BITMAP
003C007800
007F00FE00
00FF01FE00
00FF81FF00
00FF81FF00
00FF01FE00
007F00FE00
003C007800
0000000000
0000000000
0000000000
0000000000
0000000000
0000000000
FFFF803FFF
FFFFC03FFF
FFFF803FFE
3FFC0003FC
1FF80003F8
1FF80003F0
0FF80003F0
0FF80003E0
07FC0007C0
07FC0007C0
03FC000F80
03FC000F80
03FE001F00
01FE001F00
01FE001E00
01FF003C00
00FF003C00
00FF807800
007F807800
007F80F000
007FC0F000
003FC1E000
003FC1E000
001FE1C000
001FE3C000
001FF38000
000FF78000
000FF70000
000FFF0000
0007FE0000
0007FE0000
0007FC0000
0003FC0000
0003F80000
0001F80000
0001F00000
0001F00000
0001E00000
0001E00000
0001C00000
0003C00000
0003800000
0007800000
000F000000
000F000000
001E000000
003E000000
003C000000
007C000000
00F8000000
01F8000000
03F8000000
07F0000000
0FF0000000
3FE0000000
7FE0000000
7FC0000000
7F80000000
3E00000000
ENDCHAR
STARTCHAR 0131
ENCODING 305
SWIDTH 297 0
DWIDTH 25 0
BBX 22 37 2 -1
BITMAP
000E00
007E00
01FE00
0FFE00
3FFE00
7FFC00
7FFC00
0FFC00
07FC00
03FC00
03FC00
03FC00
03FC00
03FC00
03FC00
03FC00
03FC00
03FC00
03FC00
03FC00
03FC00
03FC00
03FC00
03FC00
03FC00
03FC00
03FC00
03FC00
03FC00
07FC00
07FC00
07FC00
1FFE00
FFFF00
FFFFF8
FFFFFC
FC000C
ENDCHAR
STARTCHAR 0141
ENCODING 321
SWIDTH 559 0
DWIDTH 47 0
BBX 45 55 2 -1
BITMAP
3E003F800000
3FFFFF800000
3FFFFF000000
3FFFF0000000
03FFE0000000
01FFC0000000
00FFC0000000
00FFC0000000
00FF80000000
00FF80000000
00FF80000000
00FF80000000
00FF80020000
00FF80060000
00FF800E0000
00FF801E0000
00FF807E0000
00FF80F80000
00FF83F00000
00FF87C00000
00FF8F800000
00FFBE000000
00FFFC000000
00FFF8000000
00FFE0000000
00FFC0000000
00FF80000000
00FF80000000
01FF80000000
07FF80000000
0FFF80000000
1FFF80000000
7EFF80000000
FCFF80000000
F8FF80000000
E0FF80000000
C0FF80000000
80FF80000000
00FF80000000
00FF80000030
00FF80000038
00FF80000078
00FF80000078
00FF80000070
00FF800000F0
00FF800000F0
01FF800001F0
01FF800003F0
01FF800007E0
01FFC000FFE0
03FFFFFFFFE0
07FFFFFFFFE0
7FFFFFFFFFE0
7FFFFFFFFFC0
7FF0000003C0
ENDCHAR
STARTCHAR 0142
ENCODING 322
SWIDTH 297 0
DWIDTH 25 0
BBX 22 60 2 -1
BITMAP
001E00
00FE00
07FE00
3FFE00
FFFE00
FFFE00
07FE00
03FE00
01FE00
01FE00
01FE00
01FE00
01FE00
01FE00
01FE00
01FE00
01FE00
01FE00
01FE00
01FE00
01FE04
01FE1C
01FE3C
01FE7C
01FFF8
01FFE0
01FFC0
01FF80
01FE00
01FE00
07FE00
0FFE00
3FFE00
7FFE00
F9FE00
F1FE00
C1FE00
81FE00
01FE00
01FE00
01FE00
01FE00
01FE00
01FE00
01FE00
01FE00
01FF00
01FF00
01FF00
01FF00
01FF00
03FF00
03FF00
03FF00
03FF00
07FF00
0FFFC0
7FFFFC
FFFFFC
7FFFFC
ENDCHAR
STARTCHAR 0152
ENCODING 338
SWIDTH 1035 0
DWIDTH 87 0
BBX 81 55 4 -1
BITMAP
0000007FFF000001FFFE00
00000FFFFFFFFFFFFFFE00
00007FFFFFFFFFFFFFFE00
0001FFFFFFFFFFFFFFFE00
0007FF800FFFF80007FE00
000FF80001FFF000007E00
003FE000007FF000003E00
007F8000003FF000003C00
00FF0000003FF000001C00
01FE0000003FF000001C00
03FC0000003FF000001C00
07F80000003FF000001C00
0FF80000001FF000001C00
0FF00000001FF000000000
1FE00000001FF000000000
1FE00000001FF000000000
3FE00000001FF000000000
3FC00000001FF000000000
7FC00000001FF00000C000
7FC00000001FF00001C000
7FC00000001FF00001C000
7F800000001FF00001C000
7F800000001FF00003C000
FF800000001FF00007C000
FF800000001FF007FFC000
FF800000001FFFFFFFC000
FF800000001FFFFFFFC000
FF800000001FFFFFFFC000
FF800000001FF0003FC000
FF800000001FF00007C000
FF800000001FF00003C000
FF800000001FF00001C000
FFC00000003FF00001C000
7FC00000003FF00001C000
7FC00000003FF00001C000
7FC00000003FF00001C000
7FE00000003FF000000000
3FE00000003FF000000000
3FE00000003FF000000000
3FF00000003FF000000100
1FF00000003FF000000380
1FF80000003FF000000780
0FFC0000003FF000000780
0FFC0000003FF000000F80
07FE0000003FF000000F00
03FF0000003FF000001F00
01FFC000003FF000003F00
00FFE000003FF000007F00
007FF800007FF00000FE00
003FFE0000FFFC000FFE00
000FFFE007FFFFFFFFFE00
0003FFFFFFFFFFFFFFFE00
0000FFFFFFFFFFFFFFFC00
00001FFFFFFFFFFFFFFC00
000001FFFE0000001FFC00
ENDCHAR
STARTCHAR 0153
ENCODING 339
SWIDTH 809 0
DWIDTH 68 0
BBX 63 37 3 -1
BITMAP
0000FFC0000FF000
000FFFF8007FFE00
003FFFFE01FFFF80
00FFFFFF83FFFFC0
01FF01FFCFF07FE0
03FC007FEFE03FF0
07F8003FFFC01FF0
0FF0001FFF800FF8
1FE0000FFF8007F8
1FE00007FF0007FC
3FC00007FF0007FC
3FC00003FF0007FE
7FC00003FF000FFE
7FC00001FF007FFE
7FC00001FF0FFFFE
7F800001FFFFFFC0
7F800001FFFFF000
FF800001FFFC0000
FF800000FF800000
FFC00000FF000000
7FC00000FF000000
7FC00000FF000000
7FC00001FF800000
7FC00001FF800000
7FE00001FF800000
7FE00001FFC00000
3FF00001FFC00000
3FF00003FFE00000
1FF80003FFE00004
0FFC0007FFF0001C
0FFE000FFFF8003C
07FF001FDFFF01F8
03FFE07F8FFFFFF0
01FFFFFF07FFFFC0
007FFFFC03FFFF80
001FFFF001FFFC00
0003FF00003FE000
ENDCHAR
STARTCHAR 0160
ENCODING 352
SWIDTH 559 0
DWIDTH 47 0
BBX 39 75 4 -1
BITMAP
0300000300
03C0000780
03E0001F00
01F8003E00
00FC00FC00
007F01F800
003F87F000
001FEFE000
000FFFC000
0007FF8000
0003FF8000
0001FF0000
0000FE0000
00007C0000
0000380000
0000000000
0000000000
0000000000
0000000000
0000000000
0001FFF820
001FFFFFE0
007FFFFFE0
01FFFFFFE0
03FF80FFE0
07FC001FE0
0FF80007E0
1FF00003E0
1FE00003E0
3FE00001E0
3FE00000E0
3FE00000F0
3FE00000F0
3FE0000070
3FE0000000
3FE0000000
3FE0000000
3FF0000000
3FF8000000
3FFC000000
1FFF000000
1FFFC00000
0FFFF00000
07FFFC0000
03FFFF8000
01FFFFE000
007FFFF800
001FFFFE00
0007FFFF00
0001FFFFC0
00007FFFE0
00000FFFF0
000003FFF0
000000FFF8
0000007FF8
0000001FFC
0000000FFC
0000000FFC
E0000007FC
E0000007FE
E0000007FE
E0000003FC
F0000007FC
F0000007FC
F8000007FC
F8000007FC
FC00000FF8
FE00001FF0
FF80003FF0
FFC0007FE0
FFFC03FFC0
FFFFFFFF80
7FFFFFFE00
7FFFFFF800
601FFF8000
ENDCHAR
STARTCHAR 0161
ENCODING 353
SWIDTH 404 0
DWIDTH 34 0
BBX 27 57 4 -1
BITMAP
10000200
3C000F00
1E001E00
0F003E00
07C07C00
07E1F800
03F3F000
01FFF000
00FFE000
00FFC000
007F8000
003F8000
003F0000
001E0000
000C0000
00000000
00000000
00000000
00000000
00000000
003FFF00
01FFFF00
07FFFF80
0FFFFF80
1FE07F80
3FC01F80
7F800F80
7F800780
7F800780
7F800380
7F800000
7FC00000
7FE00000
7FF00000
3FFC0000
1FFF0000
0FFFC000
07FFF000
03FFFC00
00FFFE00
003FFF00
000FFF80
0003FFC0
0000FFC0
00007FC0
C0003FE0
E0003FE0
E0001FE0
F0001FE0
F0003FC0
F8003FC0
FE007F80
FF81FF80
FFFFFF00
FFFFFC00
FFFFF000
03FF8000
ENDCHAR
STARTCHAR 0178
ENCODING 376
SWIDTH 607 0
DWIDTH 51 0
BBX 53 70 0 -1
BITMAP
0001E000780000
0003F000FC0000
0007F801FE0000
0007F801FE0000
0007FC01FF0000
0007F801FE0000
0007F801FE0000
0003F000FC0000
0001E000780000
00000000000000
00000000000000
00000000000000
00000000000000
00000000000000
00000000000000
FFFFF0001FFFF0
FFFFF8001FFFF8
FFFFF0000FFFF0
3FFF000001FFC0
1FFE000000FF00
0FFE000000FE00
07FF000000FC00
07FF000001FC00
03FF800001F800
01FF800003F000
01FFC00003E000
00FFC00007E000
007FE00007C000
007FE0000F8000
003FF0001F0000
001FF0001F0000
001FF8003E0000
000FF8003C0000
0007FC007C0000
0007FE00F80000
0003FE00F00000
0003FF01E00000
0001FF03E00000
0000FF83C00000
0000FFC7800000
00007FCF800000
00007FEF000000
00003FFE000000
00001FFE000000
00001FFC000000
00000FFC000000
00000FFC000000
00000FFC000000
000007FC000000
000007FC000000
000007FC000000
000007FC000000
000007FC000000
000007FC000000
000007FC000000
00000FFC000000
00000FFC000000
00000FFC000000
00000FFC000000
00000FFC000000
00000FFC000000
00000FFC000000
00000FFC000000
00000FFC000000
00000FFC000000
00001FFE000000
00007FFF800000
0007FFFFF80000
0007FFFFFC0000
0007FFFFF80000
ENDCHAR
STARTCHAR 017D
ENCODING 381
SWIDTH 630 0
DWIDTH 53 0
BBX 49 75 2 -1
BITMAP
00060000060000
000780000F0000
0007C0003E0000
0003F0007C0000
0001F801F80000
0000FE03F00000
00007F0FE00000
00003FDFC00000
00001FFF800000
00000FFF800000
000007FF000000
000003FE000000
000001FC000000
000000F8000000
00000070000000
00000000000000
00000000000000
00000000000000
00000000000000
00000000000000
03F0003FFFFF00
03FFFFFFFFFF00
07FFFFFFFFFF00
07FFFFFFFFFE00
07FFFFFFFFFC00
07FFF8000FFC00
0FF800001FF800
0FE000001FF000
0F8000003FE000
0F8000007FE000
1F000000FFC000
1E000000FF8000
1E000001FF0000
1E000003FF0000
1C000003FE0000
00000007FC0000
0000000FF80000
0000000FF80000
0000001FF00000
0000003FE00000
0000007FC00000
0000007FC00000
000000FF800000
000001FF000000
000001FE000000
000003FE000000
000007FC000000
00000FF8000000
00000FF0000000
00001FF0000000
00003FE0000000
00007FC0000000
00007FC0000000
0000FF80000000
0001FF00000000
0003FE00000000
0003FE00000000
0007FC00000000
000FF800000100
001FF800000780
001FF000000780
003FE000000780
007FE000000F00
00FFC000000F00
00FF8000001F00
01FF8000001F00
03FF0000003F00
07FE0000007E00
0FFC000003FE00
1FFC00003FFE00
3FFFFFFFFFFC00
7FFFFFFFFFFC00
FFFFFFFFFFFC00
FFFFFFFFFFFC00
F8000000003800
ENDCHAR
STARTCHAR 017E
ENCODING 382
SWIDTH 440 0
DWIDTH 37 0
BBX 34 57 2 -1
BITMAP
00C0001800
00E0003800
00F800F800
007C01F000
003E03E000
001F07C000
000FCFC000
000FFF8000
0007FF0000
0003FF0000
0003FE0000
0001FC0000
0000FC0000
0000780000
0000300000
0000000000
0000000000
0000000000
0000000000
0000000000
0FFFFFFFC0
1FFFFFFFC0
1FFFFFFF80
1FFFFFFF80
1FC001FF00
1F0003FE00
1E0007FC00
3C000FF800
3C000FF000
38001FF000
38003FE000
30003FC000
00007F8000
0000FF8000
0001FF0000
0001FE0000
0003FC0000
0007FC0000
000FF80000
000FF00000
001FE00000
003FE00000
007FC00000
007F800000
00FF8000C0
01FF0001C0
03FE0001C0
03FC0003C0
07FC0007C0
0FF8000780
1FF0000F80
3FF0003F80
7FE007FF00
7FFFFFFF00
FFFFFFFF00
FFFFFFFE00
FE00000600
ENDCHAR
STARTCHAR 0192
ENCODING 402
SWIDTH 523 0
DWIDTH 44 0
BBX 48 68 -2 -14
BITMAP
000000000FE0
000000007FFC
00000001FFFE
00000003FFFF
0000000FE1FF
0000001F807F
0000003F007F
0000007E003E
0000007E003C
000000FC0000
000001FC0000
000001FC0000
000003F80000
000003F80000
000007F80000
000007F80000
000007F00000
00000FF00000
00000FF00000
00000FF00000
00001FF00000
00001FE00000
00001FE00000
00001FE00000
00001FE00000
0000FFFFE000
000FFFFFE000
000FFFFFC000
000FFFFFC000
00003FC00000
00007FC00000
00007F800000
00007F800000
00007F800000
00007F800000
00007F800000
0000FF000000
0000FF000000
0000FF000000
0000FF000000
0000FF000000
0001FF000000
0001FE000000
0001FE000000
0001FE000000
0001FE000000
0001FC000000
0003FC000000
0003FC000000
0003FC000000
0003F8000000
0003F8000000
0007F8000000
0007F8000000
0007F0000000
0007F0000000
0007E0000000
000FE0000000
000FE0000000
000FC0000000
000F80000000
381F80000000
7C1F00000000
FE3E00000000
FFFC00000000
FFF800000000
7FE000000000
3F8000000000
ENDCHAR
STARTCHAR 02C6
ENCODING 710
SWIDTH 500 0
DWIDTH 42 0
BBX 22 15 10 40
BITMAP
003000
007800
00FC00
01FE00
01FE00
03FF00
07FF80
07FF80
0FCFC0
1F87E0
3F03F0
3C00F0
780078
F0003C
400018
ENDCHAR
STARTCHAR 02C7
ENCODING 711
SWIDTH 500 0
DWIDTH 42 0
BBX 22 15 10 41
BITMAP
400018
F0003C
780078
3C00F0
3E03F0
1F87E0
0FCFC0
07FF80
07FF80
03FF00
01FE00
01FE00
00FC00
007800
003000
ENDCHAR
STARTCHAR 02C9
ENCODING 713
SWIDTH 500 0
DWIDTH 42 0
BBX 25 5 8 44
BITMAP
FFFFFF80
FFFFFF80
FFFFFF80
FFFFFF80
FFFFFF80
ENDCHAR
STARTCHAR 02D8
ENCODING 728
SWIDTH 500 0
DWIDTH 42 0
BBX 22 13 10 41
BITMAP
E0000C
E0001C
E0001C
F0003C
70003C
780078
7C00F8
3F03F0
1FFFF0
1FFFE0
0FFFC0
03FF00
00FC00
ENDCHAR
STARTCHAR 02D9
ENCODING 729
SWIDTH 500 0
DWIDTH 42 0
BBX 9 10 16 41
BITMAP
1E00
3F00
7F80
FF80
FF80
FF80
FF80
7F80
3F00
1E00
ENDCHAR
STARTCHAR 02DA
ENCODING 730
SWIDTH 500 0
DWIDTH 42 0
BBX 17 15 13 40
BITMAP
07E000
1FF800
3FFC00
7C3E00
F81F00
F81F00
F81F00
F81F80
F81F00
F81F00
F81F00
7C3E00
3FFC00
1FF800
07E000
ENDCHAR
STARTCHAR 02DB
ENCODING 731
SWIDTH 500 0
DWIDTH 42 0
BBX 13 17 18 -16
BITMAP
00C0
0380
0700
0F00
1E00
3C00
7C00
FC00
FC00
FC00
FC00
FC00
FC00
FF18
7FF8
3FF0
0FC0
ENDCHAR
STARTCHAR 02DC
ENCODING 732
SWIDTH 500 0
DWIDTH 42 0
BBX 26 10 8 43
BITMAP
03E00000
07F800C0
0FFE01C0
1FFF8780
3FFFFF80
7FFFFF00
787FFE00
E01FFE00
E007F800
C001F000
ENDCHAR
STARTCHAR 02DD
ENCODING 733
SWIDTH 500 0
DWIDTH 42 0
BBX 25 13 13 41
BITMAP
01E03E00
03F87F80
07F87F80
07F8FF00
0FE0FE00
0FC1F800
1F83F000
1F03E000
3E07C000
7C078000
780F0000
E00E0000
C0180000
ENDCHAR
STARTCHAR 0394
ENCODING 916
SWIDTH 607 0
DWIDTH 51 0
BBX 48 56 2 0
BITMAP
000001800000
000003800000
000003C00000
000007C00000
000007E00000
000007E00000
00000FE00000
00000FF00000
00001FF00000
00001FF80000
00001FF80000
00003FFC0000
00003FFC0000
00007BFC0000
000073FE0000
000071FE0000
0000E1FF0000
0000E1FF0000
0001E0FF0000
0001C0FF8000
0003C07F8000
0003807FC000
0003807FC000
0007803FE000
0007003FE000
000F001FE000
000E001FF000
000E000FF000
001C000FF800
001C000FF800
003C0007F800
00380007FC00
00780003FC00
00700003FE00
00700003FE00
00F00001FE00
00E00001FF00
01E00000FF00
01C00000FF80
01C00000FF80
038000007FC0
038000007FC0
078000003FC0
070000003FE0
070000001FE0
0E0000001FF0
0E0000001FF0
1E0000000FF0
1C0000000FF8
3C00000007F8
3800000007FC
3800000007FC
7000000003FE
7FFFFFFFFFFE
FFFFFFFFFFFE
FFFFFFFFFFFF
ENDCHAR
STARTCHAR 03A9
ENCODING 937
SWIDTH 773 0
DWIDTH 65 0
BBX 56 57 4 0
BITMAP
000003FFE00000
00007FFFFE0000
0003FFFFFFC000
000FFE007FF000
003FF0000FFC00
007FC00003FF00
01FF800000FF80
03FE0000007FC0
07FC0000003FE0
0FFC0000001FF0
0FF80000000FF8
1FF00000000FF8
3FF000000007FC
3FE000000007FC
3FE000000003FE
7FC000000003FE
7FC000000003FE
7FC000000001FF
FFC000000001FF
FF8000000001FF
FF8000000001FF
FF8000000001FF
FF8000000001FF
FF8000000001FF
FF8000000001FF
FF8000000001FF
7F8000000001FF
7FC000000001FF
7FC000000001FE
7FC000000003FE
3FC000000003FE
3FC000000003FC
1FE000000007FC
1FE000000007F8
0FF000000007F0
07F00000000FF0
03F80000001FE0
01FC0000001FC0
00FE0000003F80
007F0000007E00
001F800001FC00
0007E00007F000
6001FC001F8006
60001E007C0006
30000600600006
30000600600006
3000060060000E
3800060060001E
3E00060060003E
3FFFFE007FFFFE
3FFFFE007FFFFE
3FFFFE007FFFFE
3FFFFE007FFFFC
3FFFFE007FFFFC
3FFFFE007FFFFC
3FFFFE007FFFFC
3FFFFE007FFFFC
ENDCHAR
STARTCHAR 03BC
ENCODING 956
SWIDTH 595 0
DWIDTH 50 0
BBX 47 59 2 -23
BITMAP
003C00000F00
03FC003FFF00
1FFC00FFFF00
7FFC00FFFF00
FFFC0007FF00
3FFC0001FF00
0FFC0001FF00
07FC0001FF00
07FC0001FF00
07FC0001FF00
07FC0001FF00
07F80001FF00
07F80001FE00
07F80001FE00
07F80001FE00
07F80001FE00
07F80001FE00
07F80001FE00
07F80001FE00
07F80001FE00
07F80001FE00
07F80001FE00
07FC0001FE00
07FC0001FE00
07FC0001FE00
07FC0001FE00
07FC0001FE00
07FC0001FE00
07FE0001FF00
07FE0001FF00
07FF0007FF00
07FFC03FFFFE
07FFFFFDFFFE
07FFFFE1FFFC
07FFFF81FFE0
07DFFE01FE00
07C7E001E000
07E000000000
07E000000000
07E000000000
07E000000000
07E000000000
07E000000000
07E000000000
0FE000000000
0FF000000000
0FF000000000
0FF000000000
0FF000000000
0FF000000000
0FF000000000
0FF000000000
0FF000000000
0FF000000000
0FF000000000
0FF000000000
0FF000000000
07F000000000
07C000000000
ENDCHAR
STARTCHAR 03C0
ENCODING 960
SWIDTH 547 0
DWIDTH 46 0
BBX 43 41 1 -1
BITMAP
000000000060
0000000000E0
007FFFFFFFE0
03FFFFFFFFE0
0FFFFFFFFFE0
1FFFFFFFFFC0
3FFFFFFFFF80
3FFFFFFFFE00
3E0C003F8000
780C007F8000
700C007F8000
600C007F8000
600C007F8000
000C007F8000
000C007F8000
000C007F8000
000C007F8000
000C007F8000
000C007F0000
000C007F0000
000C007F0000
000C007F0000
001C00FF0000
001C00FF0000
001C00FF0000
001C00FF0000
001C00FF0000
001C00FF0060
001C007F0060
0038007F0060
C038007F0060
E078007F00E0
E078007F00C0
71F8007F80C0
7FF8007F80C0
7FF0007F81C0
7FF0003FC380
7FF0003FFF80
3FE0001FFF00
1FC0000FFE00
0F800003F800
ENDCHAR
STARTCHAR 2010
ENCODING 8208
SWIDTH 297 0
DWIDTH 25 0
BBX 19 6 3 16
BITMAP
FFFFE0
FFFFE0
FFFFE0
FFFFE0
FFFFE0
FFFFE0
ENDCHAR
STARTCHAR 2013
ENCODING 8211
SWIDTH 476 0
DWIDTH 40 0
BBX 34 4 3 17
BITMAP
FFFFFFFFC0
FFFFFFFFC0
FFFFFFFFC0
FFFFFFFFC0
ENDCHAR
STARTCHAR 2014
ENCODING 8212
SWIDTH 761 0
DWIDTH 64 0
BBX 57 4 3 17
BITMAP
FFFFFFFFFFFFFF80
FFFFFFFFFFFFFF80
FFFFFFFFFFFFFF80
FFFFFFFFFFFFFF80
ENDCHAR
STARTCHAR 2018
ENCODING 8216
SWIDTH 238 0
DWIDTH 20 0
BBX 15 23 3 33
BITMAP
001E
007E
01F8
07E0
0FC0
1F80
3F00
3E00
7E00
7C00
FC00
FC00
FC00
FC00
FE00
FF80
FFE0
7FE0
7FF0
3FF0
3FF0
1FE0
07C0
ENDCHAR
STARTCHAR 2019
ENCODING 8217
SWIDTH 238 0
DWIDTH 20 0
BBX 16 24 2 32
BITMAP
03C0
07F0
0FF8
0FFC
0FFC
0FFE
07FE
03FE
00FF
007F
007F
003F
003E
003E
007E
007C
00FC
00F8
01F0
03E0
0FC0
3F00
FC00
F000
ENDCHAR
STARTCHAR 201A
ENCODING 8218
SWIDTH 238 0
DWIDTH 20 0
BBX 16 24 2 -15
BITMAP
03C0
07F0
0FF8
0FFC
0FFC
0FFE
07FE
03FE
00FF
007F
007F
003F
003E
003E
007E
007C
00FC
00F8
01F0
03E0
0FC0
3F00
FC00
F000
ENDCHAR
STARTCHAR 201C
ENCODING 8220
SWIDTH 440 0
DWIDTH 37 0
BBX 32 23 3 33
BITMAP
001E000F
007E003F
01F800FC
07E003F0
0FC007E0
1F800FC0
3F001F80
3E001F00
7E003F00
7C003E00
FC007E00
FC007E00
FC007E00
FC007E00
FE007F00
FF807FC0
FFE07FF0
7FE03FF0
7FF03FF8
3FF01FF8
3FF01FF8
1FE00FF0
07C003E0
ENDCHAR
STARTCHAR 201D
ENCODING 8221
SWIDTH 440 0
DWIDTH 37 0
BBX 33 24 2 32
BITMAP
03C001E000
07F003F800
0FF807FC00
0FFC07FE00
0FFC07FE00
0FFE07FF00
07FE03FF00
03FE01FF00
00FF007F80
007F003F80
007F003F80
003F001F80
003E001F00
003E001F00
007E003F00
007C003E00
00FC007E00
00F8007C00
01F000F800
03E001F000
0FC007E000
3F001F8000
FC007E0000
F000380000
ENDCHAR
STARTCHAR 201E
ENCODING 8222
SWIDTH 440 0
DWIDTH 37 0
BBX 33 24 2 -15
BITMAP
03C001E000
07F003F800
0FF807FC00
0FFC07FE00
0FFC07FE00
0FFE07FF00
07FE03FF00
03FE01FF00
00FF007F80
007F003F80
007F003F80
003F001F80
003E001F00
003E001F00
007E003F00
007C003E00
00FC007E00
00F8007C00
01F000F800
03E001F000
0FC007E000
3F001F8000
FC007E0000
F000380000
ENDCHAR
STARTCHAR 2020
ENCODING 8224
SWIDTH 523 0
DWIDTH 44 0
BBX 39 76 3 -22
BITMAP
0000380000
00007C0000
0000FE0000
0001FF0000
0003FF0000
0003FF8000
0003FF0000
0001FF0000
0001FE0000
0000FC0000
0000FC0000
0000F80000
0000780000
0000780000
0000780000
0000780000
0000780000
0000700000
0000700000
1C007000E0
3F007003F0
7FC0700FF8
FFFC70FFFC
FFFFFFFFFE
FFFFFFFFFE
FFFFF7FFFC
7FE0701FF8
3F007003F0
0C007000E0
0000700000
0000780000
0000780000
0000780000
0000780000
0000FC0000
0000FC0000
0001FE0000
0001FE0000
0003FF0000
0003FF8000
0003FF8000
0003FF0000
0001FF0000
0001FE0000
0001FE0000
0001FE0000
0001FC0000
0000FC0000
0000FC0000
0000FC0000
0000FC0000
0000FC0000
0000FC0000
0000F80000
0000F80000
0000F80000
0000F80000
0000F80000
0000F80000
0000F80000
0000F80000
0000F80000
0000F80000
0000780000
0000780000
0000780000
0000780000
0000780000
0000780000
0000780000
0000780000
0000780000
0000780000
0000780000
0000780000
0000700000
ENDCHAR
STARTCHAR 2021
ENCODING 8225
SWIDTH 523 0
DWIDTH 44 0
BBX 39 76 2 -22
BITMAP
0000380000
00007C0000
0000FE0000
0001FF0000
0003FF8000
0003FF8000
0001FF8000
0001FF0000
0000FE0000
0000FE0000
00007E0000
00007C0000
00007C0000
00003C0000
00003C0000
00003C0000
0000380000
0000380000
1C00380070
3F003800F8
7FC03807FC
7FF8383FFE
FFFFFFFFFE
FFFFFFFFFE
FFFFFFFFFE
7FF0380FFC
3F003801F8
1C00380070
0000380000
00003C0000
00003C0000
00007C0000
00007C0000
00007E0000
0000FE0000
0001FF0000
0001FF8000
0003FF8000
0001FF8000
0001FF0000
0000FE0000
0000FE0000
00007C0000
00007C0000
00007C0000
0000380000
1C00380070
3E003800F8
7F803803FC
7FE0381FFE
FFFFFFFFFE
FFFFFFFFFE
FFFFFFFFFE
7FF8381FFC
3F803803F8
1C00380070
0000380000
0000380000
0000380000
0000380000
0000380000
00003C0000
00003C0000
00007C0000
00007C0000
00007E0000
0000FE0000
0000FE0000
0001FF0000
0001FF8000
0003FF8000
0003FF8000
0001FF0000
0000FE0000
00007C0000
0000380000
ENDCHAR
STARTCHAR 2022
ENCODING 8226
SWIDTH 630 0
DWIDTH 53 0
BBX 22 22 16 16
BITMAP
01FC00
07FF00
0FFFC0
1FFFE0
3FFFE0
7FFFF0
7FFFF8
FFFFF8
FFFFF8
FFFFFC
FFFFFC
FFFFFC
FFFFFC
FFFFF8
FFFFF8
7FFFF8
7FFFF0
3FFFF0
1FFFE0
0FFFC0
07FF00
01FC00
ENDCHAR
STARTCHAR 2026
ENCODING 8230
SWIDTH 726 0
DWIDTH 61 0
BBX 51 11 5 -1
BITMAP
1E0001E0001E00
3F8003F8003F80
7F8007F8007F80
FFC00FFC00FFC0
FFC00FFC00FFC0
FFE00FFE00FFE0
FFE00FFE00FFE0
FFC00FFC00FFC0
7F8007F8007F80
3F8003F8003F80
1E0001E0001E00
ENDCHAR
STARTCHAR 2030
ENCODING 8240
SWIDTH 1035 0
DWIDTH 87 0
BBX 82 55 2 -1
BITMAP
007F800000000000000000
01FFE00001F00000000000
07FFF00001E00000000000
0F83F80003C00000000000
1F01FC0003C00000000000
1E00FC0007800000000000
3E00FE0007000000000000
3E007E000F000000000000
7E007F000E000000000000
7C003F001E000000000000
7C003F001C000000000000
FC003F0038000000000000
FC003F0078000000000000
FC003F0070000000000000
FC003F00F0000000000000
FE003F00E0000000000000
7E003F01C0000000000000
7E003F01C0000000000000
7E003F0380000000000000
7F003E0300000000000000
3F003E0700000000000000
3F807C0E00000000000000
1FC0780E00000000000000
1FE1F01C00000000000000
0FFFE01800000000000000
03FFC03800000000000000
00FF003000000000000000
0000007001FC00001FC000
000000600FFF00007FF800
000000E01FFFC001FFFC00
000000C03E1FE003E0FE00
000001807807F007C07F00
00000380F803F007C03F00
00000301F003F80F803F80
00000701F001F80F801F80
00000603F001FC1F801FC0
00000E03E001FC1F000FC0
00000C03E000FC1F000FC0
00001C03E000FC1F000FC0
00001807E000FC3F000FC0
00003807E000FC3F000FC0
00007007E000FC3F000FC0
00007007F000FC3F800FC0
0000E007F000FC3F800FC0
0000C003F000FC1F800FC0
0001C003F000FC1F800FC0
00018003F000F81F800F80
00038003F800F81FC00F80
00070001F800F00FC00F00
00070001FC01F00FE01F00
000E0000FE03E007F01E00
000E00007F07C003F87C00
001C00003FFF8001FFF800
003C00001FFE0000FFE000
0000000007F800003F8000
ENDCHAR
STARTCHAR 2039
ENCODING 8249
SWIDTH 297 0
DWIDTH 25 0
BBX 19 31 3 3
BITMAP
0000C0
0001E0
0003C0
0007C0
000F80
001F00
003E00
00FE00
01FC00
03F800
07F000
0FF000
3FE000
7FC000
FF8000
FF8000
7F8000
3FC000
1FE000
0FF000
07F000
01F800
00FC00
007E00
003F00
001F00
000F80
0007C0
0003E0
0001E0
0000C0
ENDCHAR
STARTCHAR 203A
ENCODING 8250
SWIDTH 297 0
DWIDTH 25 0
BBX 19 31 3 3
BITMAP
600000
F00000
780000
7C0000
3E0000
1F0000
1F8000
0FC000
07E000
07F800
03FC00
01FE00
00FF00
007F80
007FC0
003FE0
007FC0
007F80
00FF00
01FC00
03F800
07F000
07E000
0FC000
1F8000
3F0000
3C0000
780000
F00000
E00000
C00000
ENDCHAR
STARTCHAR 2044
ENCODING 8260
SWIDTH 95 0
DWIDTH 8 0
BBX 29 53 -10 0
BITMAP
000000F8
000000F0
000000F0
000001E0
000001E0
000003C0
000003C0
00000780
00000700
00000F00
00000E00
00001E00
00001C00
00003C00
00003800
00007800
00007000
0000F000
0000E000
0000E000
0001C000
0001C000
00038000
00038000
00070000
00070000
000E0000
000E0000
001C0000
001C0000
00380000
00380000
00780000
00700000
00F00000
00E00000
01E00000
01C00000
01C00000
03800000
03800000
07000000
07000000
0E000000
0E000000
1C000000
1C000000
38000000
38000000
38000000
70000000
70000000
E0000000
ENDCHAR
STARTCHAR 2122
ENCODING 8482
SWIDTH 809 0
DWIDTH 68 0
BBX 65 27 1 27
BITMAP
7FE000E7FC0001FF80
7FFFFFE7FE0001FF00
7FFFFFE1FE0001FC00
781F01C0FF0003F800
601F01C0FF0003F800
E01F01C0FF0007F800
C01F01C0FF8007F800
001F0000FF8007F800
001F0000EFC00FF800
001F0000E7C00DF800
001F0000E7E01DF800
001F0000E3E019F800
001F0000E3F039F800
001F0000E1F031F800
001F0000E1F071F800
001F0000E0F861F800
001F0000E0F8E1F800
001F0001E07CE1F800
001F0001E07DC1F800
001F0001E07FC1F800
001F0001E03F81F800
001F0001E03F81F800
001F0001E01F01F800
001F0001E01F01F800
003F8003F00E01FC00
03FFF81FFE0E1FFF80
03FFF81FFE001FFF80
ENDCHAR
STARTCHAR 2126
ENCODING 8486
SWIDTH 773 0
DWIDTH 65 0
BBX 56 57 4 0
BITMAP
000003FFE00000
00007FFFFE0000
0003FFFFFFC000
000FFE007FF000
003FF0000FFC00
007FC00003FF00
01FF800000FF80
03FE0000007FC0
07FC0000003FE0
0FFC0000001FF0
0FF80000000FF8
1FF00000000FF8
3FF000000007FC
3FE000000007FC
3FE000000003FE
7FC000000003FE
7FC000000003FE
7FC000000001FF
FFC000000001FF
FF8000000001FF
FF8000000001FF
FF8000000001FF
FF8000000001FF
FF8000000001FF
FF8000000001FF
FF8000000001FF
7F8000000001FF
7FC000000001FF
7FC000000001FE
7FC000000003FE
3FC000000003FE
3FC000000003FC
1FE000000007FC
1FE000000007F8
0FF000000007F0
07F00000000FF0
03F80000001FE0
01FC0000001FC0
00FE0000003F80
007F0000007E00
001F800001FC00
0007E00007F000
6001FC001F8006
60001E007C0006
30000600600006
30000600600006
3000060060000E
3800060060001E
3E00060060003E
3FFFFE007FFFFE
3FFFFE007FFFFE
3FFFFE007FFFFE
3FFFFE007FFFFC
3FFFFE007FFFFC
3FFFFE007FFFFC
3FFFFE007FFFFC
3FFFFE007FFFFC
ENDCHAR
STARTCHAR 2202
ENCODING 8706
SWIDTH 500 0
DWIDTH 42 0
BBX 31 55 5 -1
BITMAP
0003F800
000FFE00
003FFF00
003FE3C0
007FC1C0
007F81E0
007F00F0
007E00F0
007C00F8
00000078
00000078
0000007C
0000007C
0000007C
0000007C
0000007E
0000007E
0000007E
0000007E
0000007E
0000007E
0000007E
001FC07E
007FF07E
01FFF87E
03F81C7E
07F00E7E
0FE0067E
1FC003FE
1F8003FE
3F8001FE
3F0001FE
7F0001FC
7F0001FC
7E0001FC
7E0001FC
FE0001F8
FE0001F8
FC0001F8
FC0001F8
FC0001F0
FC0001F0
FC0003E0
7C0003E0
7C0003E0
7C0007C0
7C0007C0
3E000780
3E000F00
1E001F00
1F001E00
0F803C00
07C0F800
01FFE000
007F0000
ENDCHAR
STARTCHAR 2206
ENCODING 8710
SWIDTH 607 0
DWIDTH 51 0
BBX 48 56 2 0
BITMAP
000001800000
000003800000
000003C00000
000007C00000
000007E00000
000007E00000
00000FE00000
00000FF00000
00001FF00000
00001FF80000
00001FF80000
00003FFC0000
00003FFC0000
00007BFC0000
000073FE0000
000071FE0000
0000E1FF0000
0000E1FF0000
0001E0FF0000
0001C0FF8000
0003C07F8000
0003807FC000
0003807FC000
0007803FE000
0007003FE000
000F001FE000
000E001FF000
000E000FF000
001C000FF800
001C000FF800
003C0007F800
00380007FC00
00780003FC00
00700003FE00
00700003FE00
00F00001FE00
00E00001FF00
01E00000FF00
01C00000FF80
01C00000FF80
038000007FC0
038000007FC0
078000003FC0
070000003FE0
070000001FE0
0E0000001FF0
0E0000001FF0
1E0000000FF0
1C0000000FF8
3C00000007F8
3800000007FC
3800000007FC
7000000003FE
7FFFFFFFFFFE
FFFFFFFFFFFE
FFFFFFFFFFFF
ENDCHAR
STARTCHAR 220F
ENCODING 8719
SWIDTH 821 0
DWIDTH 69 0
BBX 64 81 3 -18
BITMAP
FFFFFFFFFFFFFFFF
FFFFFFFFFFFFFFFF
FFFFFFFFFFFFFFFF
01FE000000007F80
01FE000000007F80
01FE000000007F80
01FE000000007F80
01FE000000007F80
01FE000000007F80
01FE000000007F80
01FE000000007F80
01FE000000007F80
01FE000000007F80
01FE000000007F80
01FE000000007F80
01FE000000007F80
01FE000000007F80
01FE000000007F80
01FE000000007F80
01FE000000007F80
01FE000000007F80
01FE000000007F80
01FE000000007F80
01FE000000007F80
01FE000000007F80
01FE000000007F80
01FE000000007F80
01FE000000007F80
01FE000000007F80
01FE000000007F80
01FE000000007F80
01FE000000007F80
01FE000000007F80
01FE000000007F80
01FE000000007F80
01FE000000007F80
01FE000000007F80
01FE000000007F80
01FE000000007F80
01FE000000007F80
01FE000000007F80
01FE000000007F80
01FE000000007F80
01FE000000007F80
01FE000000007F80
01FE000000007F80
01FE000000007F80
01FE000000007F80
01FE000000007F80
01FE000000007F80
01FE000000007F80
01FE000000007F80
01FE000000007F80
01FE000000007F80
01FE000000007F80
01FE000000007F80
01FE000000007F80
01FE000000007F80
01FE000000007F80
01FE000000007F80
01FE000000007F80
01FE000000007F80
01FE000000007F80
01FE000000007F80
01FE000000007F80
01FE000000007F80
01FE000000007F80
01FE000000007F80
01FE000000007F80
01FE000000007F80
01FE000000007F80
01FE000000007F80
01FE000000007F80
01FE000000007F80
01FE000000007F80
01FE000000007F80
01FE000000007F80
01FE000000007F80
FFFFFC00003FFFFF
FFFFFC00003FFFFF
FFFFFC00003FFFFF
ENDCHAR
STARTCHAR 2211
ENCODING 8721
SWIDTH 714 0
DWIDTH 60 0
BBX 52 81 3 -18
BITMAP
3FFFFFFFFFFE00
3FFFFFFFFFFF00
1FFFFFFFFFFF00
0FFC0001FFFF00
0FFC00001FFF00
07FE000007FF00
03FF000001FF00
01FF000000FF00
01FF8000007F80
00FFC000003F80
007FE000001F80
003FE000000F80
003FF000000F80
001FF800000780
000FFC00000780
000FFC000003C0
0007FE000003C0
0003FF000001C0
0001FF000001C0
0001FF800001C0
0000FFC0000000
00007FE0000000
00007FE0000000
00003FF0000000
00001FF8000000
00000FFC000000
00000FFC000000
000007FE000000
000003FF000000
000001FF000000
000001FF800000
000000FFC00000
0000007FE00000
0000007FE00000
0000003FF00000
0000001FF80000
0000000FF80000
0000000FFC0000
00000007FE0000
00000003FF0000
00000001FF0000
00000001FF0000
00000000FE0000
000000007C0000
00000000780000
00000000F00000
00000001E00000
00000003C00000
00000007800000
0000000F800000
0000000F000000
0000001E000000
0000003C000000
00000078000000
000000F0000000
000001E0000000
000003C0000000
00000780000000
00000F00000000
00001F00000000
00001E00000000
00003C00000070
00007800000070
0000F000000070
0001E0000000F0
0003C0000000F0
000780000001E0
000F00000003E0
001E00000003E0
003C00000007E0
007C0000000FC0
00780000003FC0
00F0000000FFC0
01E000000FFFC0
03FFFFFFFFFFC0
07FFFFFFFFFF80
0FFFFFFFFFFF80
1FFFFFFFFFFF80
3FFFFFFFFFFF80
7FFFFFFFFFFF00
FFFFFFFFFFFF00
ENDCHAR
STARTCHAR 2212
ENCODING 8722
SWIDTH 523 0
DWIDTH 44 0
BBX 36 5 4 24
BITMAP
FFFFFFFFE0
FFFFFFFFF0
FFFFFFFFF0
FFFFFFFFF0
FFFFFFFFF0
ENDCHAR
STARTCHAR 2219
ENCODING 8729
SWIDTH 238 0
DWIDTH 20 0
BBX 11 11 5 12
BITMAP
1E00
3F80
7F80
FFC0
FFC0
FFE0
FFC0
FFC0
7F80
3F80
1E00
ENDCHAR
STARTCHAR 221A
ENCODING 8730
SWIDTH 547 0
DWIDTH 46 0
BBX 51 69 -1 -1
BITMAP
00000000003FE0
00000000003FE0
00000000007FE0
00000000007FE0
00000000007C00
0000000000FC00
0000000000F800
0000000001F800
0000000001F000
0000000001F000
0000000003F000
0000000003E000
0000000003E000
0000000007E000
0000000007C000
000000000FC000
000000000F8000
000000000F8000
000000001F8000
000000001F0000
000000001F0000
000000003F0000
000000003E0000
000000007E0000
000000007C0000
000000007C0000
00000000FC0000
00000000F80000
00380000F80000
01F80001F80000
0FF80001F00000
7FFC0003F00000
FFFC0003E00000
FBFC0003E00000
43FE0007E00000
01FE0007C00000
01FF0007C00000
01FF000FC00000
00FF000F800000
00FF801F800000
007F801F000000
007F801F000000
007FC03F000000
003FC03E000000
003FE03E000000
003FE07E000000
001FE07C000000
001FF0FC000000
001FF0F8000000
000FF0F8000000
000FF9F8000000
0007F9F0000000
0007F9F0000000
0007FFF0000000
0003FFE0000000
0003FFE0000000
0003FFC0000000
0001FFC0000000
0001FFC0000000
0000FF80000000
0000FF80000000
0000FF80000000
00007F00000000
00007F00000000
00007E00000000
00003E00000000
00003E00000000
00001C00000000
00001C00000000
ENDCHAR
STARTCHAR 221E
ENCODING 8734
SWIDTH 714 0
DWIDTH 60 0
BBX 51 31 4 10
BITMAP
007F00001FC000
01FFC0007FF000
03FFE001FFFC00
0FFFF003FFFE00
0FFFF807FC1F00
1F80FC0FF00780
3E001E0FE00380
3C000E1FC001C0
3800073F8000C0
7000033F0000E0
700001FF000060
600000FE000060
600000FC000060
600000FC000060
E00000F8000060
C00001F8000060
C00001F0000060
400003F0000060
600003F0000060
600007F0000060
60000FF80000E0
60000FF80000E0
30001FCC0001C0
38003F8F0003C0
18007F878007C0
1C00FF07F01F80
0F03FE03FFFF00
07FFFC01FFFE00
03FFF800FFFC00
00FFE0003FF800
003F80000FE000
ENDCHAR
STARTCHAR 222B
ENCODING 8747
SWIDTH 273 0
DWIDTH 23 0
BBX 39 79 -8 -15
BITMAP
0000000FE0
0000003FF0
0000007FF8
000001FFFC
000001E7FC
000003C3FE
000007C1FE
00000781FC
00000F80FC
00000F8078
00001F8000
00001F8000
00003F0000
00003F0000
00003F0000
00003F0000
00007F0000
00007F0000
00007F0000
00007F0000
00007F0000
00007F0000
00007F0000
0000FF0000
0000FF0000
0000FF0000
0000FF0000
0000FF0000
0000FF0000
0000FF0000
0000FF0000
0000FF0000
0000FF0000
0000FF0000
0000FF0000
0000FF0000
0000FE0000
0001FE0000
0001FE0000
0001FE0000
0001FE0000
0001FE0000
0001FE0000
0001FE0000
0001FE0000
0001FE0000
0001FE0000
0001FE0000
0001FE0000
0001FE0000
0001FE0000
0001FE0000
0001FE0000
0001FE0000
0001FC0000
0001FC0000
0001FC0000
0001FC0000
0001FC0000
0001FC0000
0001FC0000
0001FC0000
0001F80000
0001F80000
0001F80000
0003F80000
0003F00000
0003F00000
0003F00000
3C03E00000
7E03E00000
7F07C00000
FF07C00000
FF87800000
7FCF000000
7FFE000000
7FFC000000
1FF8000000
0FE0000000
ENDCHAR
STARTCHAR 2248
ENCODING 8776
SWIDTH 547 0
DWIDTH 46 0
BBX 43 21 2 9
BITMAP
000000000020
000000000060
007F800001E0
07FFF80003E0
1FFFFF000FE0
7FFFFFE03FE0
FF80FFFFFF80
FE000FFFFE00
F80001FFF800
E000001FC000
C00000000020
000000000060
007F000000E0
03FFF00001E0
1FFFFC0007E0
7FFFFF800FE0
FFFFFFF07FC0
FF80FFFFFF80
FC000FFFFE00
F00001FFF800
C000001FC000
ENDCHAR
STARTCHAR 2260
ENCODING 8800
SWIDTH 547 0
DWIDTH 46 0
BBX 38 36 4 2
BITMAP
0000000040
00000000E0
00000001F0
00000003F8
00000007F0
0000000FE0
0000001FC0
0000003F80
0000007F00
000000FE00
FFFFFFFFFC
FFFFFFFFFC
FFFFFFFFFC
FFFFFFFFFC
00001F8000
00003F8000
00007F0000
0000FE0000
0001FC0000
0001F80000
0003F00000
0007F00000
FFFFFFFFFC
FFFFFFFFFC
FFFFFFFFFC
FFFFFFFFFC
01FC000000
03F8000000
07F0000000
0FE0000000
1FC0000000
3F80000000
7F00000000
3E00000000
1C00000000
0800000000
ENDCHAR
STARTCHAR 2264
ENCODING 8804
SWIDTH 547 0
DWIDTH 46 0
BBX 38 40 4 0
BITMAP
0000000004
000000003C
00000003FC
0000001FFC
000000FFFC
000007FFF8
00003FFFC0
0001FFFE00
000FFFF000
00FFFF8000
07FFFC0000
3FFFE00000
FFFF000000
FFF0000000
FF80000000
FFE0000000
FFFC000000
7FFF800000
0FFFF00000
01FFFF0000
003FFFE000
0007FFFC00
00007FFF80
00000FFFF0
000001FFFC
0000003FFC
00000007FC
00000000FC
000000000C
0000000000
0000000000
0000000000
0000000000
0000000000
0000000000
FFFFFFFFFC
FFFFFFFFFC
FFFFFFFFFC
FFFFFFFFFC
FFFFFFFFFC
ENDCHAR
STARTCHAR 2265
ENCODING 8805
SWIDTH 547 0
DWIDTH 46 0
BBX 38 40 4 0
BITMAP
8000000000
F800000000
FF00000000
FFE0000000
FFFC000000
7FFF800000
0FFFF00000
01FFFE0000
003FFFE000
0007FFFC00
0000FFFF80
00000FFFF0
000001FFFC
0000003FFC
00000007FC
0000001FFC
000000FFFC
000007FFFC
00003FFFC0
0003FFFE00
001FFFF000
00FFFF8000
07FFFC0000
3FFFE00000
FFFE000000
FFF0000000
FF80000000
FC00000000
E000000000
0000000000
0000000000
0000000000
0000000000
0000000000
0000000000
FFFFFFFFFC
FFFFFFFFFC
FFFFFFFFFC
FFFFFFFFFC
FFFFFFFFFC
ENDCHAR
STARTCHAR 22F2
ENCODING 8946
SWIDTH 547 0
DWIDTH 46 0
BBX 43 21 2 9
BITMAP
000000000020
000000000060
007F800001E0
07FFF80003E0
1FFFFF000FE0
7FFFFFE03FE0
FF80FFFFFF80
FE000FFFFE00
F80001FFF800
E000001FC000
C00000000020
000000000060
007F000000E0
03FFF00001E0
1FFFFC0007E0
7FFFFF800FE0
FFFFFFF07FC0
FF80FFFFFF80
FC000FFFFE00
F00001FFF800
C000001FC000
ENDCHAR
STARTCHAR 25CA
ENCODING 9674
SWIDTH 500 0
DWIDTH 42 0
BBX 41 87 0 -20
BITMAP
000008000000
000008000000
00000C000000
00001C000000
00001E000000
00003E000000
00003F000000
00007F000000
00007F800000
0000FF800000
0000FFC00000
0001FFC00000
0001F7E00000
0003F3E00000
0003E3F00000
0007E3F00000
0007E1F00000
0007C1F80000
000FC0F80000
000F80FC0000
001F807C0000
001F007E0000
003F003E0000
003E003F0000
007E001F0000
007C001F8000
00FC000F8000
00F8000FC000
01F80007C000
01F00007E000
03F00003E000
03F00003F000
07E00003F000
07E00001F000
07C00001F800
0FC00000F800
0F800000FC00
1F8000007C00
1F0000007E00
3F0000003E00
3E0000003F00
7E0000001F00
7C0000001F80
FC0000000F80
7C0000001F80
7E0000001F00
3E0000003F00
3E0000003F00
3F0000003E00
1F0000007E00
1F8000007C00
0F800000FC00
0FC00000F800
07C00001F800
07E00001F000
03E00003F000
03F00003E000
01F00007E000
01F80007C000
00F8000FC000
00FC000F8000
00FC001F8000
007C001F8000
007E001F0000
003E003F0000
003F003E0000
001F007E0000
001F807C0000
000F80FC0000
000FC0F80000
0007C1F80000
0007E1F00000
0003E3F00000
0003F3E00000
0003F7E00000
0001F7E00000
0001FFC00000
0000FFC00000
0000FF800000
00007F800000
00007F000000
00003F000000
00003E000000
00001E000000
00001C000000
00000C000000
000008000000
ENDCHAR
STARTCHAR F000
ENCODING 61440
SWIDTH 785 0
DWIDTH 66 0
BBX 56 69 5 -1
BITMAP
00000000006000
0000000003E000
000000000FE000
000000001FE000
000000003FC000
000000007FC000
00000000FFC000
00000000FFC000
00000001FF8000
00000001FF8000
00000003FF0000
00000003FE0000
00000007FC0000
00000007F80000
00000007E00000
00000007C00000
0007FC000FFC00
003FFF803FFF80
00FFFFFBFFFFC0
01FFFFFFFFFFF0
03FFFFFFFFFFF8
07FFFFFFFFFFFC
0FFFFFFFFFFFFE
1FFFFFFFFFFFFC
1FFFFFFFFFFFF0
3FFFFFFFFFFFE0
3FFFFFFFFFFFE0
7FFFFFFFFFFFC0
7FFFFFFFFFFF80
7FFFFFFFFFFF80
FFFFFFFFFFFF00
FFFFFFFFFFFF00
FFFFFFFFFFFF00
FFFFFFFFFFFE00
FFFFFFFFFFFE00
FFFFFFFFFFFE00
FFFFFFFFFFFE00
FFFFFFFFFFFE00
FFFFFFFFFFFE00
FFFFFFFFFFFE00
FFFFFFFFFFFE00
FFFFFFFFFFFF00
FFFFFFFFFFFF00
FFFFFFFFFFFF80
FFFFFFFFFFFF80
7FFFFFFFFFFFC0
7FFFFFFFFFFFE0
7FFFFFFFFFFFF0
3FFFFFFFFFFFF8
3FFFFFFFFFFFFC
3FFFFFFFFFFFFF
1FFFFFFFFFFFFF
1FFFFFFFFFFFFF
0FFFFFFFFFFFFE
0FFFFFFFFFFFFE
0FFFFFFFFFFFFC
07FFFFFFFFFFFC
03FFFFFFFFFFF8
03FFFFFFFFFFF8
01FFFFFFFFFFF0
01FFFFFFFFFFE0
00FFFFFFFFFFE0
007FFFFFFFFFC0
003FFFFFFFFF80
003FFFFFFFFF00
001FFFFFFFFE00
0007FFC07FFC00
0003FF001FF800
0000FC0007E000
ENDCHAR
STARTCHAR F001
ENCODING 61441
SWIDTH 595 0
DWIDTH 50 0
BBX 46 60 3 -1
BITMAP
000003FE0000
00001FFFC000
00007FFFF000
0001FFFFF800
0007FFFFF800
000FE03FFC00
001F800FFC00
003F0007FC00
007E0003F800
007E0001F000
00FC0000E000
00FC00000000
01FC00000000
01FC00000000
03FC00000000
03FC00000000
03F800000000
03F800000000
07F800000000
07F800000000
07F800000000
07F800000000
07F800000000
07F80000FE00
0FFFFFFFFE00
3FFFFFFFFE00
FFFFFFFFFE00
FFFFFFFFFE00
07F8000FFE00
07F80003FE00
07F80003FE00
07F80003FE00
07F80003FE00
07F80003FE00
07F80001FE00
07F80001FE00
07F80001FE00
07F80001FE00
07F80001FE00
07F80001FE00
07F80001FE00
07FC0001FE00
07FC0001FE00
07FC0001FE00
07FC0001FE00
03FC0003FE00
03FC0003FE00
03FC0003FE00
03FC0003FE00
03FC0003FE00
03FC0003FE00
07FC0003FE00
07FC0003FE00
07FC0003FE00
07FC0007FE00
07FE000FFE00
0FFF007FFF00
FFFFF87FFFF8
FFFFFC7FFFFC
E0007C7C0008
ENDCHAR
STARTCHAR F002
ENCODING 61442
SWIDTH 595 0
DWIDTH 50 0
BBX 46 60 3 -1
BITMAP
000003FC0600
00001FFF9E00
00007FFFFE00
0001FFFFFE00
0003FFFFFE00
0007FFFFFE00
000FC07FFE00
001F001FFE00
003E000FFE00
007E0007FC00
00FC0007FC00
00FC0007FC00
01FC0007FC00
01FC0007FC00
03FC0007FC00
03FC0007FC00
03FC0007FC00
03F80003FC00
03F80003FC00
03F80003FC00
03F80003FC00
03F80003FC00
03F80003FC00
0FFFFF83FC00
3FFFFF83FC00
7FFFFF83FC00
7FFFFF83FC00
07F80003FC00
07F80003FC00
07F80003FC00
07F80003FC00
07F80003FC00
07F80003FC00
07F80003FC00
07F80003FC00
07F80003FC00
07F80003FC00
07F80003FC00
07F80007FC00
07F80007FC00
07FC0007FC00
07FC0007FC00
07FC0007FC00
07FC0007FC00
03FC0007FC00
03FC0007FC00
03FC0007FC00
03FC0007FC00
03FC0007FC00
03FC0007FC00
07FC0007FE00
07FC0007FE00
07FC0007FE00
07FC0007FE00
07FC0007FE00
07FE000FFE00
1FFF001FFF00
FFFFF8FFFFF8
FFFFFCFFFFFC
FFFFFCFFFFF8
ENDCHAR
ENDFONT
